<?xml version="1.0" encoding="utf-8"?>
<!-- Generator: Adobe Illustrator 27.9.0, SVG Export Plug-In . SVG Version: 6.00 Build 0)  -->
<svg version="1.1" id="Layer_1" xmlns="http://www.w3.org/2000/svg" xmlns:xlink="http://www.w3.org/1999/xlink" x="0px" y="0px"
	 viewBox="0 0 850.4 368.5" style="enable-background:new 0 0 850.4 368.5;" xml:space="preserve">
<style type="text/css">
	.st0{fill:#2E4623;}
</style>
<g>
	<path class="st0" d="M85.4,148.4l-9.2,24.3l-1.1,3L29.7,294.3l-0.1,0.3L2.8,364.7h7.1l24.4-63.6h93.2l26.5,63.6h30L90.9,148.4H85.4
		z M36.9,294.3l41.5-108.2l46.2,108.2L36.9,294.3z"/>
	<polygon class="st0" points="351.7,329.1 206.9,148.3 200,148.3 200,365.8 206.8,365.8 206.8,185.4 351.7,365.7 358.6,365.7 
		358.6,148.3 351.7,148.3 	"/>
	<path class="st0" d="M284.9,135.4c-25.6-12.2-41.7-11.6-53.8,4.6l6.5,6.2c9.8-10.7,19.1-13.6,40.6-2.6c26,13.3,42.2,2.4,49.1-15.2
		l-6.3-4.2C315.2,134.8,304.6,144.8,284.9,135.4z"/>
	<polygon class="st0" points="421.9,254.6 493,254.6 493,247.8 421.9,247.8 421.9,155.3 523.2,155.3 523.2,148.4 391.9,148.4 
		391.9,365.9 527,365.9 527,359 421.9,359 	"/>
	<path class="st0" d="M595.1,300.8c0,26.8-3.3,57.6-40.5,58.2c-12.4,0.2-20.4-2.6-25.5-6.4l-3.7,4c5.7,5.5,20.6,9.2,29.2,9.2
		c14.3,0.4,28.3-3.3,40.5-10.8c18.4-11.9,30-34.2,30-69.1V148.4h-30V300.8z"/>
	<path class="st0" d="M748.2,150.3c-57,0-100.9,53.6-101.5,111.1c-0.5,57.5,42.3,106.4,99.5,106.4c55.6,0,100.8-49.3,101.4-106.8
		C848.1,203.4,802.7,150.3,748.2,150.3z M746.3,360.9c-46,0-69.6-52.6-69.6-100.2c0-58.8,28.9-103.4,71.5-103.4
		c46.6,0,69.9,55.8,69.5,103.5C817.1,308.4,797.5,360.9,746.3,360.9z"/>
	<path class="st0" d="M41,82.9c9.6,23.6,26.4,35.5,49.8,35.5h0.4c11.1,0,21.9-2.5,32-7.6c3.3-1.3,7.2-4.4,7.2-12V88.1l-1.2-2.6h-1.6
		c-1.5,0-2.7,1-3,2.6l-0.1,0.3v1.3c0,3.4-1.1,7-3.3,10.7c-5.7,7.9-15.8,11.9-30,11.9h-1.1c-8.9,0-17.2-3.3-24.6-9.9
		C55,91.3,49.7,77.2,49.7,60.5c0-11.7,2.3-22.3,6.9-31.5c8.6-14.8,19.3-22,32.6-22h8c17.1,2.6,25.5,10.2,25.5,23.3V33h5.5V12.9
		l-1-0.7c-10.4-7.6-22-11.4-34.5-11.4h-3.7c-6.8,0-14.7,2-23.3,5.9l-0.3,0.2c-18.7,11.7-28.2,29.5-28.2,53c0,7,1.3,14.7,3.8,22.9
		L41,82.9z"/>
	<path class="st0" d="M221.8,76c0-5.1-1-10.5-3.1-16.3l-0.1-0.2c-8.6-17.8-21.7-26.9-38.8-26.9h-1.1c-5.9,0-12,1.6-18.2,4.7
		l-0.1,0.1c-15.2,9.1-23,22.1-23,38.7c0,5.4,1.2,11.1,3.5,17.1l0.1,0.2c8.9,17.1,21.7,25.7,38,25.7h1.5c6.1,0,12.4-1.7,18.8-5.1
		l0.2-0.1C214.3,104.5,221.8,91.7,221.8,76z M208.8,76.7c0,3.7-0.5,7.7-1.4,11.6c-5.3,16.7-14.3,24.8-27.6,24.8
		c-3.5,0-7.6-0.9-12.2-2.7c-11.6-7.9-17.2-18.4-17.2-32.3v-4.8c0-2.3,0.3-5.3,1-9.1c5.2-17.1,14.2-25.5,27.3-25.5h2.6
		c0.8,0,2.6,0.2,6.6,1c14.1,6.6,20.9,18,20.9,35V76.7z"/>
	<path class="st0" d="M231.9,117.2h15.6l2.6-1.1v-4.3h-2.4c-2,0-2.1-0.6-2.1-1.7V66.5c0-2.6,1.1-6,3.1-10.2
		c5.7-10.2,12.3-15.2,20-15.2h1.6c2.7,0,5.3,0.4,7.8,1.3l0.1,0c5.7,1.8,8.4,7.4,8.4,17.2v51.4c0,0.2,0,0.3,0,0.3
		c-0.1,0.1-0.6,0.3-1.7,0.3h-2.4v5.5h20.5v-5.5h-2.4c-0.8,0-1.2-0.1-1.3-0.2c0,0,0,0,0-0.1V54.1c0-12.2-8.3-19.3-24.6-21.2l-0.3,0
		c-11.4,0-21.1,5-28.8,14.8v-11c0-1.7-1.1-3-2.8-3.2l-11.4,0l-2.5,1.4v4.2h2.4c1.5,0,1.7,0.3,1.7,0.7V111c0,0.4-0.2,0.7-1.7,0.7
		h-2.4v2.4C228.8,115.9,230.1,117.2,231.9,117.2z"/>
	<path class="st0" d="M378.7,111.2V4.2c0-1.6-1.2-2.9-2.8-3.1l-11,0l-2.6,1.1v4.1l2.1,0.2c1.5,0.2,2,0.5,2.1,0.6c0,0,0,0,0,0.1v32.8
		c-4.9-2.3-10.1-3.5-15.5-3.5h-1.8c-5.8,0-11.8,1.6-17.9,4.9l-0.2,0.1c-14.1,8.9-21.2,21-21.2,36.1V78c0,4.7,1,9.9,3,15.5l0.1,0.3
		c8.4,16.7,20.7,25.2,36.6,25.2h1.4c5.3,0,10.7-1.2,16-3.7c0.4,1,1.2,1.9,2.6,1.9H380l2.6-1.1v-4.3h-2.4
		C378.9,111.7,378.8,111.5,378.7,111.2z M366.6,106.8c-4.6,4.1-9.7,6-15.5,6h-1.8c-5.9,0-11.1-2.1-15.9-6.4
		c-7.3-7.5-10.9-16.1-10.9-26.4v-2.3l0-0.1c0-0.1,0-0.3,0-0.4v-1.8c0-3,0.4-6.2,1.3-9.5c4.9-15.8,13.6-23.5,26.6-23.5
		c6.2,0,11.5,2.1,16.2,6.3V106.8z"/>
	<path class="st0" d="M393.3,93.3c8.9,17.1,21.7,25.7,38,25.7h1.5c6.1,0,12.4-1.7,18.8-5.1l0.2-0.1c14.7-9.4,22.2-22.1,22.2-37.9
		c0-5.1-1-10.5-3.1-16.3l-0.1-0.2c-8.6-17.8-21.7-26.9-38.8-26.9h-1.1c-5.9,0-12,1.6-18.2,4.7l-0.1,0.1c-15.2,9.1-23,22.1-23,38.7
		c0,5.4,1.2,11.1,3.5,17.1L393.3,93.3z M402.6,73.3c0-2.3,0.3-5.3,1-9.1c5.2-17.1,14.2-25.5,27.3-25.5h2.6c0.8,0,2.6,0.2,6.6,1
		c14.1,6.6,20.9,18,20.9,35v1.9c0,3.7-0.5,7.7-1.4,11.6c-5.3,16.7-14.3,24.8-27.6,24.8c-3.5,0-7.6-0.9-12.2-2.7
		c-11.6-7.9-17.2-18.4-17.2-32.3V73.3z"/>
	<path class="st0" d="M484.2,117.2h15.4l2.7-1.1v-4.4h-2.4c-2.1,0-2.1-0.5-2.1-1V66.1c0-0.9,0.3-2.9,1.7-7c5.7-12.1,12.8-18,21.7-18
		h1.9c3.4,0,6.7,1,10,3l0.1,0.1c4.5,2.3,5.5,10.3,5.5,16.6c0,7.4-0.1,12.2-0.4,14.4l0,0.2l0,0.2c0.3,4.4,0.4,9.9,0.4,16.3v19.2
		c0,0.2,0,0.3,0,0.3c-0.1,0.1-0.6,0.3-1.7,0.3h-2.4v5.5h20.5V112l-2.1-0.3c-0.8-0.1-1.3-0.2-1.7-0.3V54.8
		c5.7-9.2,12.1-13.6,19.8-13.6h0.6c3.1,0.2,4.7,0.4,5.6,0.5V42l1.7,0.5c6.2,1.8,9.1,6.2,9.1,13.8v55.2c0,0,0,0,0,0.1
		c-0.2,0.1-0.5,0.2-1.3,0.2h-2.4v5.5h20.5v-5.5h-2.4c-1.1,0-1.6-0.2-1.7-0.3c0,0,0-0.1,0-0.3V52.9c0-1.5-0.3-3.2-0.9-5.2l-0.1-0.3
		c-4.5-9.6-12.6-14.5-24-14.5c-9.9,0-18.8,4.1-26.7,12.3c0,0,0-0.1-0.1-0.1l-0.2-0.3c-5.5-7.9-12.9-11.9-21.8-11.9
		c-12.4,0-22.3,5-29.5,14.8v-11c0-1.7-1.2-3-2.9-3.2l-11.3,0l-2.6,1.3v3.8l1.9,0.4c1.2,0.3,1.9,0.5,2.2,0.7v71.3
		c-0.4,0.2-1.1,0.4-2.3,0.7l-1.8,0.4v1.9C481,115.9,482.3,117.2,484.2,117.2z"/>
	<path class="st0" d="M621.7,24.1l0.5,0.1l0.5-0.1c7.3-1,8.4-5.2,8.4-7.6l0-0.4c-1.2-7-5.2-8.1-7.6-8.1h-1.2c-2.5,0-5.9,1.2-7.5,7
		l-0.1,0.3v1.1C614.7,19.2,615.9,22.5,621.7,24.1z"/>
	<path class="st0" d="M629.2,111V36.8c0-1.5-1-2.8-2.6-3.1l-0.3-0.1h-11.8l-2.5,1.4v4.2h2.4c2,0,2.1,0.6,2.1,1.7V110
		c0,1.1-0.1,1.7-2.1,1.7h-2.4v2.4c0,1.8,1.3,3.1,3.1,3.1h15.5l2.7-1.1v-4.4H631C629.5,111.7,629.3,111.4,629.2,111z"/>
	<path class="st0" d="M661.7,116.1v-4.3h-2.4c-2,0-2.1-0.6-2.1-1.7V66.5c0-2.6,1.1-6,3.1-10.2c5.7-10.2,12.3-15.2,20-15.2h1.6
		c2.7,0,5.3,0.4,7.8,1.3l0.1,0c5.7,1.8,8.4,7.4,8.4,17.2v51.4c0,0.2,0,0.3,0,0.3c-0.1,0.1-0.6,0.3-1.7,0.3H694v5.5h20.5v-5.5h-2.4
		c-0.8,0-1.2-0.1-1.3-0.2c0,0,0,0,0-0.1V54.1c0-12.2-8.3-19.3-24.6-21.2l-0.3,0c-11.4,0-21.1,5-28.8,14.8v-11c0-1.7-1.1-3-2.8-3.2
		l-11.4,0l-2.5,1.4v4.2h2.4c1.5,0,1.7,0.3,1.7,0.7V111c0,0.4-0.2,0.7-1.7,0.7h-2.4v2.4c0,1.8,1.3,3.1,3.1,3.1h15.6L661.7,116.1z"/>
	<path class="st0" d="M731.2,24.1l0.5,0.1l0.5-0.1c7.3-1,8.4-5.2,8.4-7.6l0-0.4c-1.2-7-5.2-8.1-7.6-8.1h-1.2c-2.5,0-5.9,1.2-7.5,7
		l-0.1,0.3v1.1C724.3,19.2,725.5,22.5,731.2,24.1z"/>
	<path class="st0" d="M724.7,117.2h15.5l2.7-1.1v-4.4h-2.4c-1.6,0-1.7-0.4-1.8-0.8V36.8c0-1.5-1-2.8-2.6-3.1l-0.3-0.1h-11.8
		l-2.5,1.4v4.2h2.4c2,0,2.1,0.6,2.1,1.7V110c0,1.1-0.1,1.7-2.1,1.7h-2.4v2.4C721.6,115.9,722.9,117.2,724.7,117.2z"/>
	<path class="st0" d="M753.6,93.3c8.9,17.1,21.7,25.7,38,25.7h1.5c6.1,0,12.4-1.7,18.8-5.1l0.2-0.1c14.7-9.4,22.2-22.1,22.2-37.9
		c0-5.1-1-10.5-3.1-16.3l-0.1-0.2c-8.6-17.8-21.7-26.9-38.8-26.9h-1.1c-5.9,0-12,1.6-18.2,4.7l-0.1,0.1c-15.2,9.1-23,22.1-23,38.7
		c0,5.4,1.2,11.1,3.5,17.1L753.6,93.3z M762.9,73.3c0-2.3,0.3-5.3,1-9.1c5.2-17.1,14.2-25.5,27.3-25.5h2.6c0.8,0,2.6,0.2,6.6,1
		c14.1,6.6,20.9,18,20.9,35v1.9c0,3.7-0.5,7.7-1.4,11.6c-5.3,16.7-14.3,24.8-27.6,24.8c-3.5,0-7.6-0.9-12.2-2.7
		c-11.6-7.9-17.2-18.4-17.2-32.3V73.3z"/>
</g>
</svg>
