<?xml version="1.0" encoding="utf-8"?>
<!-- Generator: Adobe Illustrator 27.3.1, SVG Export Plug-In . SVG Version: 6.00 Build 0)  -->
<svg version="1.1" id="Layer_1" xmlns="http://www.w3.org/2000/svg" xmlns:xlink="http://www.w3.org/1999/xlink" x="0px" y="0px"
	 viewBox="0 0 396.9 147.4" style="enable-background:new 0 0 396.9 147.4;" xml:space="preserve">
<style type="text/css">
	.st0{fill:#FFFFFF;}
</style>
<g>
	<g>
		<g>
			<path class="st0" d="M46.4,15.8c-0.3-0.6-0.7-1.2-1.2-1.6c-0.5-0.5-1.1-0.9-1.7-1.1c0.9-0.6,1.6-1.4,2-2.3c0.4-0.9,0.6-2,0.6-3
				c0-1-0.2-1.9-0.5-2.9c-0.3-0.9-0.9-1.7-1.6-2.4l-0.2-0.1l-0.1-0.2c-0.3-0.1-0.5-0.2-0.7-0.4c-0.2-0.1-0.5-0.3-0.7-0.4
				c-0.4-0.1-0.9-0.2-1.5-0.2c-0.6,0-1.2-0.1-1.9-0.1c-0.7,0-1.3,0-1.9,0c-0.6,0-1.1,0-1.6,0c-0.5,0-1,0-1.6-0.1
				c-0.6,0-1.2,0-1.7,0.1c-0.5,0.1-1,0.3-1.3,0.6c-0.4,0.3-0.5,0.8-0.5,1.5c0,0.5,0,1,0,1.4c0,0.5,0,1,0,1.4l0,0.1
				c0.1,0.8,0.1,1.6,0.1,2.5c0,0.9,0,1.8,0,2.7c0,0.9-0.1,1.8-0.1,2.7c0,0.9-0.1,1.7-0.1,2.6l0,0.1c0,0.1,0,0.2,0,0.3
				c0,0.1,0,0.2-0.1,0.3c0.2,1.2,0.2,2.6,0.1,4c-0.1,1.4-0.1,2.8-0.1,4c0,0.1,0,0.2,0,0.3c0,0.1,0,0.2,0,0.3
				c0.2,0.3,0.4,0.6,0.6,0.8c0.2,0.2,0.5,0.4,1,0.4h1.8c0.5,0,1.2,0,2,0.1c0.8,0,1.6,0.1,2.4,0.1c0.8,0,1.6,0,2.4,0
				c0.8,0,1.4-0.1,1.9-0.3c0.8-0.2,1.5-0.6,2.1-1c0.6-0.5,1.2-1.1,1.6-1.7c0.4-0.7,0.8-1.4,1-2.1c0.2-0.8,0.4-1.5,0.4-2.3
				c0-0.7-0.1-1.4-0.2-2.1C47,17.1,46.7,16.4,46.4,15.8z M36.1,7.5c0-0.3,0.1-0.6,0.3-1C36.5,6.1,36.7,6,37.2,6
				c1.1,0,1.8,0.2,2.4,0.5c0.5,0.4,0.8,1.1,0.8,2.2c0,0.2,0,0.3-0.1,0.5c-0.1,0.1-0.1,0.3-0.2,0.4l-0.4,0.6
				c-0.3,0.2-0.6,0.4-0.9,0.6c-0.3,0.2-0.7,0.3-1.1,0.3c-0.3,0-0.5,0-0.6-0.1c-0.1,0-0.3-0.1-0.6-0.3l-0.3-0.5c0-0.1,0-0.2-0.1-0.4
				c0-0.1,0-0.3,0-0.4V8.6c0-0.2,0-0.4,0-0.6C36,7.8,36,7.6,36.1,7.5z M41.3,19.5c0,0.5-0.1,1-0.4,1.3c-0.3,0.3-0.6,0.6-1,0.8
				c-0.4,0.2-0.8,0.3-1.3,0.4c-0.5,0.1-0.9,0.1-1.3,0.1c-0.1,0-0.2,0-0.3,0c-0.1,0-0.2,0-0.3-0.1c-0.3-0.3-0.6-0.5-0.6-0.7
				c-0.1-0.2-0.1-0.5-0.1-1v-2.8c0-0.3,0-0.6,0.1-0.7c0.1-0.1,0.2-0.3,0.4-0.5c0.1-0.1,0.3-0.1,0.5-0.1c0.6,0,1.2,0,1.6,0.1
				c0.4,0.1,0.7,0.2,1,0.4c0.3,0.2,0.5,0.4,0.8,0.8c0.2,0.3,0.5,0.7,0.8,1.2c0,0.1,0,0.2,0,0.4c0,0.1,0,0.3-0.1,0.4L41.3,19.5z"/>
			<path class="st0" d="M68.2,22.1c-0.3-1-0.6-2.2-1-3.6c-0.4-1.3-0.8-2.7-1.2-4.1c-0.4-1.4-0.8-2.8-1.2-4.2
				c-0.4-1.4-0.8-2.6-1.1-3.8c-0.3-1.1-0.6-2.1-0.9-2.9c-0.2-0.8-0.4-1.3-0.5-1.6c-0.1-0.3-0.3-0.5-0.5-0.7
				c-0.1-0.1-0.3-0.2-0.6-0.2c-0.2,0-0.5-0.1-0.7-0.1c-0.3,0-0.5,0-0.7,0c-0.2,0-0.4,0-0.6,0l-2.9,0c-0.4,0.2-0.7,0.7-1,1.3
				c-0.3,0.7-0.5,1.4-0.7,2.1c-0.2,0.8-0.4,1.5-0.5,2.1c-0.1,0.6-0.3,1-0.5,1.2c0,0.4-0.1,0.8-0.3,1.1c-0.2,0.4-0.3,0.7-0.3,1.1l0,0
				c-0.1,0.3-0.1,0.6-0.2,1c-0.1,0.4-0.2,0.8-0.3,1.2c-0.1,0.4-0.2,0.8-0.4,1.2c-0.1,0.4-0.3,0.7-0.4,0.9c0,0,0,0.1-0.1,0.3
				c0,0.2-0.1,0.4-0.2,0.6c-0.1,0.2-0.1,0.5-0.2,0.9l0,0c0,0.2-0.1,0.5-0.3,0.8c-0.1,0.3-0.2,0.6-0.1,0.8c-0.1,0.1-0.2,0.5-0.4,0.9
				c-0.1,0.5-0.3,1-0.4,1.6c-0.1,0.5-0.3,1-0.4,1.4c-0.1,0.4-0.2,0.6-0.2,0.7c-0.2,0.5-0.3,1.1-0.4,1.7c-0.1,0.6-0.2,1.2-0.4,1.7
				c0.1,0.3,0.3,0.6,0.6,0.7c0.3,0.1,0.7,0.3,1.1,0.3c0.4,0.1,0.8,0.1,1.3,0.1c0.4,0,0.8,0,1.1,0c0.5,0,0.9-0.1,1.2-0.4
				c0.3-0.3,0.5-0.6,0.6-0.9c0.1-0.4,0.2-0.8,0.3-1.2c0.1-0.4,0.1-0.9,0.2-1.2c0.1-0.4,0.2-0.7,0.4-0.9c0.2-0.3,0.5-0.4,0.9-0.4
				l2.7,0h2.4c0,0,0.1,0,0.2,0c0.1,0,0.1,0,0.2,0.1l0.4,0.3c0.2,0.3,0.3,0.6,0.4,1c0.1,0.4,0.2,0.7,0.3,1.1l0,0
				c0.1,0.6,0.1,1,0.2,1.3c0.1,0.3,0.2,0.6,0.4,0.8c0.2,0.2,0.4,0.3,0.7,0.4c0.3,0.1,0.7,0.1,1.2,0.1c0.3,0,0.7,0,1.1,0
				c0.4,0,0.9,0,1.3-0.1c0.4-0.1,0.8-0.2,1.1-0.4c0.3-0.2,0.4-0.5,0.4-0.9c0-0.1-0.1-0.4-0.3-1.1C68.7,24,68.5,23.2,68.2,22.1z
				 M60.3,16.7c-0.2,0.2-0.3,0.3-0.4,0.4c-0.2,0.1-0.3,0.1-0.5,0.1c-0.1,0-0.3,0-0.5,0.1c-0.1,0-0.1,0-0.1,0c-0.3,0-0.5,0-0.6,0
				c-0.2,0-0.3,0-0.5,0c-0.1,0-0.3-0.1-0.4-0.2c-0.1-0.1-0.3-0.3-0.4-0.5c0-0.1,0-0.1-0.1-0.2c0-0.1,0-0.2,0-0.2
				c0-0.3,0-0.7,0.1-1.1c0.1-0.4,0.1-0.9,0.3-1.3c0.1-0.4,0.3-0.8,0.5-1.2c0.2-0.4,0.5-0.6,0.8-0.7h0.4c0.3,0,0.6,0.2,0.8,0.6
				c0.2,0.4,0.4,0.8,0.6,1.3c0.1,0.5,0.3,1,0.3,1.5c0.1,0.5,0.1,0.9,0.1,1.2C60.6,16.4,60.5,16.5,60.3,16.7z"/>
			<path class="st0" d="M87.6,24.1c-0.3-0.6-0.7-1.1-1.2-1.8c-0.4-0.6-0.8-1.2-1.2-1.8c-0.4-0.6-0.7-1.1-1-1.6
				c-0.3-0.5-0.5-0.8-0.6-1c0.8-0.2,1.5-0.6,2.1-1c0.6-0.4,1.2-1,1.6-1.6c0.4-0.6,0.8-1.3,1-2c0.2-0.7,0.4-1.5,0.4-2.3
				c0-1.8-0.2-3.3-0.5-4.4c-0.3-1.1-0.9-2.1-1.6-2.8c-0.7-0.7-1.7-1.3-2.9-1.7c-1.2-0.4-2.6-0.7-4.3-0.9l-0.1,0
				c-0.2,0-0.4-0.1-0.6-0.1c-1,0-1.9,0-2.9,0c-1,0-1.9,0-2.9,0c-0.1,0-0.3,0.1-0.4,0.2c-0.1,0.1-0.3,0.1-0.4,0.2
				c-0.1,0.1-0.2,0.3-0.3,0.5c-0.1,0.2-0.2,0.4-0.2,0.6v4.8v5.9v12.4c0,0.1,0,0.3,0.1,0.4c0.1,0.2,0.1,0.3,0.2,0.4
				c0.2,0.2,0.3,0.3,0.5,0.4c0.2,0.1,0.4,0.2,0.7,0.2H76c0.4,0,0.9-0.1,1.3-0.3c0.4-0.2,0.6-0.5,0.6-1.1v-7c0.4,0.6,0.8,1.3,1.2,2
				c0.4,0.7,0.9,1.4,1.3,2.2c0.4,0.7,0.9,1.4,1.4,2.1c0.5,0.7,0.9,1.3,1.4,1.8c0.2,0.2,0.4,0.3,0.7,0.3c0.3,0,0.7,0,1.1,0
				c0.5,0,1,0,1.5,0c0.5,0,1,0,1.4-0.1c0.4,0,0.7-0.1,0.8-0.2c0-0.1,0.1-0.2,0.1-0.3c0-0.1,0.1-0.2,0.1-0.3c0-0.1-0.1-0.3-0.3-0.7
				C88.3,25.2,88,24.7,87.6,24.1z M82.6,11.9c-0.2,0.4-0.5,0.7-0.9,1c-0.4,0.3-0.7,0.5-1.2,0.6c-0.4,0.1-0.8,0.2-1.3,0.2
				c-0.3,0-0.7-0.1-1-0.4c-0.3-0.3-0.4-0.6-0.4-0.9V8c0-0.3,0.1-0.5,0.2-0.7c0.1-0.2,0.3-0.4,0.5-0.5c0.1,0,0.2-0.1,0.3-0.1
				c0.1,0,0.2,0,0.3,0c0.8,0,1.6,0.2,2.1,0.7c0.6,0.4,1,1,1.3,1.7c0,0.3,0,0.5,0.1,0.8c0,0.3,0.1,0.5,0.1,0.8
				C82.9,11.1,82.8,11.5,82.6,11.9z"/>
			<path class="st0" d="M107.3,24.1c-0.3-0.6-0.7-1.1-1.2-1.8c-0.4-0.6-0.8-1.2-1.2-1.8c-0.4-0.6-0.7-1.1-1-1.6
				c-0.3-0.5-0.5-0.8-0.6-1c0.8-0.2,1.5-0.6,2.1-1c0.6-0.4,1.2-1,1.6-1.6c0.4-0.6,0.8-1.3,1-2c0.2-0.7,0.4-1.5,0.4-2.3
				c0-1.8-0.2-3.3-0.5-4.4c-0.3-1.1-0.9-2.1-1.6-2.8c-0.7-0.7-1.7-1.3-2.9-1.7c-1.2-0.4-2.6-0.7-4.3-0.9l-0.1,0
				c-0.2,0-0.4-0.1-0.6-0.1c-1,0-1.9,0-2.9,0c-1,0-1.9,0-2.9,0c-0.1,0-0.3,0.1-0.4,0.2c-0.1,0.1-0.3,0.1-0.4,0.2
				c-0.1,0.1-0.2,0.3-0.3,0.5c-0.1,0.2-0.2,0.4-0.2,0.6v4.8v5.9v12.4c0,0.1,0,0.3,0.1,0.4c0.1,0.2,0.1,0.3,0.2,0.4
				c0.2,0.2,0.3,0.3,0.5,0.4c0.2,0.1,0.4,0.2,0.7,0.2h2.9c0.4,0,0.9-0.1,1.3-0.3c0.4-0.2,0.6-0.5,0.6-1.1v-7c0.4,0.6,0.8,1.3,1.2,2
				c0.4,0.7,0.9,1.4,1.3,2.2c0.4,0.7,0.9,1.4,1.4,2.1c0.5,0.7,0.9,1.3,1.4,1.8c0.2,0.2,0.4,0.3,0.7,0.3c0.3,0,0.7,0,1.1,0
				c0.5,0,1,0,1.5,0c0.5,0,1,0,1.4-0.1c0.4,0,0.7-0.1,0.8-0.2c0-0.1,0.1-0.2,0.1-0.3c0-0.1,0.1-0.2,0.1-0.3c0-0.1-0.1-0.3-0.3-0.7
				C108,25.2,107.7,24.7,107.3,24.1z M102.2,11.9c-0.2,0.4-0.5,0.7-0.9,1c-0.4,0.3-0.7,0.5-1.2,0.6c-0.4,0.1-0.8,0.2-1.3,0.2
				c-0.3,0-0.7-0.1-1-0.4c-0.3-0.3-0.4-0.6-0.4-0.9V8c0-0.3,0.1-0.5,0.2-0.7c0.1-0.2,0.3-0.4,0.5-0.5c0.1,0,0.2-0.1,0.3-0.1
				c0.1,0,0.2,0,0.3,0c0.8,0,1.6,0.2,2.1,0.7c0.6,0.4,1,1,1.3,1.7c0,0.3,0,0.5,0.1,0.8c0,0.3,0.1,0.5,0.1,0.8
				C102.6,11.1,102.5,11.5,102.2,11.9z"/>
			<path class="st0" d="M117,1.4l-0.4-0.2h-5c-0.1,0-0.2,0-0.3,0.1l-0.2,0.2L111,1.7v23c0,0,0,0.1,0,0.2c0,0.1,0,0.1,0,0.2v1.6
				l0.1,0.3l0.5,0.2h4.7l0.3,0L117,27l0.2-0.2l0-0.3V1.8c0-0.1,0-0.1-0.1-0.2C117.1,1.5,117.1,1.4,117,1.4z"/>
			<path class="st0" d="M139.1,9.5c-0.4-1.5-0.9-2.9-1.7-4.1c-0.8-1.2-1.8-2.2-3-3c-1.2-0.8-2.7-1.2-4.4-1.2c-0.8,0-1.6,0.1-2.3,0.2
				c-0.8,0.2-1.5,0.4-2.2,0.7c-0.7,0.3-1.3,0.7-1.9,1.2c-0.6,0.5-1.1,1.1-1.5,1.8c-0.2,0.3-0.4,0.7-0.5,1.1c-0.2,0.4-0.4,0.7-0.6,1
				v0c-0.4,1.3-0.7,2.6-0.9,3.8c-0.2,1.2-0.3,2.5-0.3,3.9c0,1.5,0.2,2.9,0.7,4.4c0.4,1.4,1.1,2.7,2,3.9c0.9,1.1,1.9,2.1,3.2,2.8
				c1.3,0.7,2.7,1.1,4.3,1.1c1.8,0,3.4-0.4,4.6-1.2c1.3-0.8,2.3-1.8,3-3.1c0.8-1.3,1.3-2.7,1.7-4.2c0.3-1.6,0.5-3.1,0.5-4.7
				C139.6,12.5,139.4,11,139.1,9.5z M133.5,16.2c-0.1,0.8-0.3,1.6-0.6,2.4c-0.3,0.7-0.7,1.4-1.2,1.9c-0.5,0.5-1.2,0.8-2.1,0.8
				c-0.9,0-1.6-0.2-2-0.6c-0.4-0.4-0.8-0.8-1-1.4c-0.2-0.5-0.4-1.1-0.5-1.6c-0.1-0.5-0.3-0.9-0.5-1.2c0-0.3,0-0.7-0.1-1.1
				c-0.1-0.4-0.1-0.8-0.1-1.2c0-1.1,0.1-2.1,0.3-3.2c0.2-1.1,0.6-2,1.3-2.9c0.2-0.1,0.4-0.3,0.6-0.4c0.1-0.1,0.3-0.2,0.5-0.3
				c0.2-0.1,0.3-0.2,0.6-0.2c0.2-0.1,0.5-0.1,0.8-0.1c0.9,0,1.6,0.2,2.1,0.7c0.5,0.5,1,1,1.3,1.7c0.3,0.7,0.5,1.4,0.6,2.2
				c0.1,0.8,0.2,1.6,0.2,2.2C133.7,14.7,133.6,15.4,133.5,16.2z"/>
		</g>
		<g>
			<path class="st0" d="M80.6,125.7c-1.2-4.3-2.6-9.1-4.2-14.6c-1.5-5.4-3.2-11-4.9-16.8c-1.7-5.7-3.4-11.4-5-17
				c-1.6-5.6-3.1-10.7-4.5-15.4c-1.4-4.7-2.5-8.7-3.5-12c-1-3.3-1.7-5.4-2-6.5c-0.4-1.2-1.1-2.2-2.1-2.8c-0.6-0.4-1.3-0.6-2.3-0.8
				c-0.9-0.1-1.9-0.2-3-0.2c-1,0-2,0-3,0.1c-1,0-1.8,0.1-2.3,0.1l-12,0.1c-1.6,0.9-2.9,2.8-3.9,5.5c-1,2.7-2,5.6-2.7,8.7
				c-0.8,3.1-1.5,6-2.1,8.6c-0.6,2.6-1.2,4.3-1.9,4.9c-0.2,1.6-0.6,3.1-1.3,4.6c-0.7,1.5-1.1,3.1-1.3,4.6l-0.1,0.1
				c-0.3,1.2-0.6,2.6-1,4.2c-0.4,1.6-0.8,3.2-1.3,4.9c-0.5,1.6-1,3.2-1.5,4.7c-0.5,1.5-1.1,2.8-1.6,3.8c0,0.1-0.1,0.5-0.3,1.3
				c-0.2,0.8-0.4,1.6-0.7,2.5c-0.3,0.9-0.6,2.1-1,3.7l-0.1,0.1c-0.2,0.8-0.6,2-1.1,3.3c-0.6,1.4-0.8,2.4-0.6,3.2
				c-0.4,0.6-0.9,1.9-1.5,3.9c-0.6,2-1.2,4.1-1.8,6.3c-0.6,2.2-1.2,4.2-1.6,5.9c-0.5,1.7-0.8,2.7-1,2.7c-0.8,2.2-1.3,4.5-1.7,6.9
				c-0.4,2.4-0.9,4.7-1.7,6.9c0.3,1.4,1.1,2.4,2.4,3c1.3,0.6,2.8,1,4.5,1.3c1.7,0.2,3.4,0.3,5.2,0.3c1.8,0,3.2-0.1,4.4-0.1
				c2.2,0,3.8-0.5,4.9-1.5c1.1-1,2-2.3,2.5-3.8c0.6-1.5,1-3.2,1.2-5c0.2-1.8,0.5-3.5,0.9-5c0.4-1.5,0.9-2.8,1.7-3.8
				c0.8-1,1.9-1.5,3.5-1.5l10.8-0.1H52c0.2,0,0.4,0,0.8,0.1c0.3,0.1,0.6,0.2,0.8,0.3l1.7,1.3c0.8,1.1,1.4,2.5,1.7,4
				c0.3,1.5,0.7,3,1.1,4.3l0.1,0.1c0.3,2.3,0.6,4.1,1,5.5c0.4,1.4,0.9,2.5,1.6,3.2c0.7,0.8,1.7,1.2,2.9,1.5c1.2,0.2,2.9,0.4,4.9,0.4
				c1.2,0,2.7,0,4.6,0.1c1.8,0.1,3.6,0,5.3-0.2c1.7-0.2,3.1-0.8,4.3-1.5c1.2-0.8,1.8-2.1,1.8-3.9c0-0.3-0.4-1.8-1.1-4.4
				C82.8,133.4,81.8,130,80.6,125.7z M9,136.8l-0.7,0.4l-0.4-0.6l0.7-0.4l0.4,0.3V136.8z M71,125.5h0.7l-0.1,0.8h-0.1
				c-0.4,0-0.6-0.1-0.7-0.3L71,125.5z M68.2,118l-0.4,0.6l-0.8,0.1v-1l0.3-0.3h0.6L68.2,118z M67.5,104.9h-0.1c0-0.1,0-0.1,0.1-0.1
				h0.1C67.6,104.9,67.6,104.9,67.5,104.9z M65.4,101.5l0.4-0.4l0.7,0.3l1,1l-1,0.7l-0.8-0.1l-0.4-0.6L65.4,101.5z M66.2,117.7
				l-0.6,0.4l-0.4-0.4l0.4-0.6L66.2,117.7z M65.1,112.1l0.3-0.3v0.1c0,0.2-0.1,0.5-0.3,0.8V112.1z M60.7,82.8l0.3-0.1h0.3
				c0.3,0,0.4,0.2,0.4,0.6l-0.4,0.6H61l-0.6-0.6L60.7,82.8z M60.9,85.5c0.2,0.1,0.7,0.2,1.5,0.4c0.8,0.2,1.3,0.4,1.3,0.6
				c0,0.3-0.1,0.7-0.3,1.3l-0.6-0.4c-0.3-0.1-0.6-0.2-0.9-0.3c-0.3-0.1-0.6-0.1-0.9-0.1l-0.6-0.7L60.9,85.5z M59,89.1l0.3-0.8L60,88
				l1.3,1.4H62l0.4,0.8h-0.7l-0.1-0.1c-0.7-0.2-1.3-0.2-2,0c0,0.1,0,0.3-0.1,0.6c-0.1,0.3-0.2,0.4-0.4,0.4c-0.4,0-0.6-0.2-0.6-0.7
				l0.8-0.3L59,89.1z M61.8,96.7c0.1,0,0.3,0,0.4-0.1l1.1-0.1l0.3,0.1l-0.4,0.7l-0.8,0.4l-0.6-0.3L61.6,97
				C61.6,96.8,61.6,96.7,61.8,96.7z M59.6,79.4l0.4,0.1l0.1,0.7h-0.4c-0.1-0.1-0.1-0.3-0.1-0.6V79.4z M58.7,78.6l-1,0.1l-0.6-0.3
				l0.7-0.8l0.6-0.3l0.8,0.4L58.7,78.6z M56.9,92.2c0-0.4,0.3-0.6,0.8-0.6l0.1,0.8l-0.4,0.3l-0.1-0.1l-0.4-0.1V92.2z M56.5,82.2
				v-0.7l0.4-0.1l0.3,0.4C57,82.1,56.8,82.2,56.5,82.2z M56.9,71l0.4,0.8l0.7,0.4l0.4,0.6c-0.1,0.2-0.1,0.3,0.1,0.4
				c0.1,0.1,0.3,0.2,0.4,0.3l-0.3,0.8L58,73.9c-0.2-0.4-0.3-0.7-0.3-1c-0.1-0.1-0.4-0.3-0.8-0.6c-0.4-0.3-0.7-0.5-0.9-0.7L56.9,71z
				 M52,62.7c-0.1,0.3-0.3,0.4-0.7,0.4C51.4,62.8,51.6,62.7,52,62.7z M50.3,74.1c0.2-0.2,0.3-0.3,0.4-0.3c0.1,0,0.3,0.1,0.6,0.4
				c-0.2,0.2-0.3,0.3-0.4,0.3C50.8,74.5,50.6,74.3,50.3,74.1z M50.4,82.4l-0.1,0.4l-0.4-0.1l-0.1-0.1l-0.1-0.7l0.7,0.1L50.4,82.4z
				 M50.3,49.4l0.7,0.8h-0.3c-0.4,0-0.8-0.1-1.1-0.3L50.3,49.4z M50.2,72.1l0.1,1.4c-0.7,0-1-0.3-1-0.8L50.2,72.1z M49,76.2h-0.1
				c-0.1,0-0.1-0.1-0.1-0.3L49,76.2z M48,50.7c0.2,0.2,0.3,0.3,0.3,0.4v0.1c-0.2,0-0.4-0.1-0.6-0.3L48,50.7z M47.5,60.1
				c0.2,0.2,0.3,0.3,0.3,0.4v0.1h-0.1c-0.3,0-0.4-0.1-0.4-0.3L47.5,60.1z M46.5,73.2c0.1,0,0.1,0,0.1,0.1c0,0.1,0,0.1-0.1,0.1
				c-0.1,0-0.1,0-0.1-0.1C46.3,73.3,46.4,73.2,46.5,73.2z M44.8,60.1v1.3l1.3,1.1l-0.7,0.3c-0.3-0.3-0.6-0.6-0.9-0.9
				c-0.3-0.3-0.6-0.7-0.9-1.1c0-0.1,0-0.3,0.1-0.6c0.1-0.3,0.2-0.4,0.4-0.4C44.2,59.8,44.4,59.9,44.8,60.1z M45.8,65.8
				c0,0.2-0.1,0.3-0.4,0.3h-0.1l-0.3-0.7h0.6L45.8,65.8z M43,48.7h1l-0.3,0.7L43,49.3V48.7z M44.5,72.4c0.2,0.3,0.4,0.6,0.7,0.8
				c0.3,0.3,0.4,0.6,0.4,1l-0.4,0.4l-1.1-0.6c-0.7,0-1.1-0.2-1.3-0.7L44.5,72.4z M41.4,57h0.3v0.1c0,0.1-0.1,0.3-0.4,0.6l-0.4-0.4
				C40.9,57.1,41.1,57,41.4,57z M41,60.1l-0.3-0.7l1.1-0.6l-0.1,1.3l0.8,0.6l-0.4,0.8l-0.6,0.1c-0.2,0-0.3,0-0.4-0.1
				c-0.1-0.1-0.2-0.2-0.4-0.3c0.1-0.2,0.2-0.4,0.3-0.6C41.1,60.5,41.1,60.3,41,60.1z M41.1,75.3h0.4l0.3,0.6l-0.1,0.6L41,76.3
				l-0.1-0.1L41.1,75.3z M40.4,74.3L40,74.2v-0.7h0.3l0.7,0.4C40.7,74.2,40.5,74.3,40.4,74.3z M41.7,72.5l-1.4-0.3l0.8-1.5l1.3,0.1
				L41.7,72.5z M41.7,66.6V66h0.1c0.2,0,0.3,0.1,0.3,0.4C42,66.6,41.9,66.6,41.7,66.6z M40,62.9l0.3-0.6l0.3,0.8L40,62.9z
				 M40.2,46.2c0,0.1,0.1,0.2,0.3,0.4L40.3,47h-0.4l-0.1-0.3L40.2,46.2z M39.6,55.9l0.6,0.7l-0.1,1l-0.7,0.3c-0.1,0-0.3-0.1-0.6-0.4
				l0.4-1.1L39.6,55.9z M39.4,69.3c0,0.4-0.2,0.6-0.6,0.6v-0.4C39,69.3,39.2,69.3,39.4,69.3z M38.3,75.5l0.6,0.3v0.7l-1.1,0.3
				l-0.1-0.6L38.3,75.5z M38.2,73.2c0-0.3,0.1-0.5,0.3-0.6l0.1,0.3C38.6,73.1,38.5,73.2,38.2,73.2z M38.6,50l0.3,0.6h-0.3
				c-0.3,0-0.5,0-0.6-0.1L38.6,50z M36.9,57.9l0.8,0.4L38,59l-0.3,0.7l-0.6,0.1l-0.6-0.6L36.9,57.9z M34.7,58.6c0,0.1,0,0.2-0.1,0.3
				l-0.1-0.1C34.5,58.7,34.6,58.7,34.7,58.6z M33.4,65.5l0.4-0.3l0.3,0.6L33.5,66l-0.3-0.1L33.4,65.5z M34.1,70L34,70.1h-0.1
				l-0.4-0.3c0.1,0,0.1,0,0.1-0.1c0,0,0-0.1,0.1-0.1C33.8,69.7,33.9,69.8,34.1,70z M30.7,56.7l0.7-0.3c0.3-0.3,0.4-0.6,0.3-0.8
				l1-0.7c0.3,0.3,0.4,0.7,0.4,1.3c0,0.3-0.1,0.6-0.3,1c-0.5-0.3-0.8-0.3-1.1,0.1c-0.2,0.3-0.5,0.5-0.9,0.5l-0.1-0.3V56.7z
				 M33.1,57.6c0,0.3,0,0.5-0.1,0.6l-0.1-0.6v-0.3L33.1,57.6z M29.6,81.1l0.4,0.4l0.4,1.1l-0.6,0.8l-0.6-0.7l-0.1-1L29.6,81.1z
				 M28.5,95.3l-1.7,0.3l0.1-1.7l0.6-0.4c0.5,0.4,0.9,1,1.3,1.8l0.4,0.1l0.3,0.7l-0.6,0.1L28.5,95.3z M28.7,98.3l-0.3,0.3l-0.3-0.3
				c0.1-0.1,0.2-0.1,0.3-0.1C28.6,98.2,28.6,98.2,28.7,98.3z M25.2,92.8c0-0.3,0.1-0.6,0.2-0.9c0.1-0.3,0.3-0.6,0.5-0.8l1,0.6
				c-0.2,0.5-0.4,0.9-0.7,1.4L25.2,92.8z M26.2,111.5v0.4c-0.3,0-0.5-0.1-0.6-0.3C25.7,111.6,25.9,111.5,26.2,111.5z M25.6,88.4V89
				h-0.7C24.9,88.6,25.2,88.4,25.6,88.4z M25.5,80.8c0.4,0.2,0.6,0.4,0.6,0.6v0.1C25.7,81.5,25.5,81.3,25.5,80.8z M26.8,87.3h0.4
				v0.1c0,0.2,0,0.3-0.1,0.4C26.9,87.8,26.8,87.6,26.8,87.3z M29.2,92v0.1l-0.8,0.6l-0.8-0.6l0.1-0.7l1.1,0.1L29.2,92z M27.6,82.7
				l0.4,0.3l-0.4,0.7c-0.8,0.2-1.5,0.5-1.8,0.8l0.3-1.1l0.7-0.7H27.6z M25.9,75.8l0.7,0.6v0.1L25.8,77l-0.4-0.1l-0.3-0.7L25.9,75.8z
				 M25.4,79.7l0.3,0.4v0.6c-0.5-0.1-0.7-0.4-0.7-0.8L25.4,79.7z M24.5,84.9h0.6l0.1,0.8h-0.6l-0.6-0.7L24.5,84.9z M23.4,93.2
				l-0.1,0.8l-0.8,0.1l-0.3-0.3l0.6-1L23.4,93.2z M22,95.3l0.3,0.6l-0.4,0.3l-0.4-0.4L22,95.3z M21.7,89.7c0.2-0.2,0.3-0.4,0.4-0.6
				c0.1-0.2,0.3-0.4,0.6-0.5l0.1,0.3l-0.4,0.7L21.7,89.7z M22.3,112.5c0.1,0,0.1,0.1,0.1,0.3v0.1h-0.1c-0.1,0-0.1,0-0.1-0.1
				C22.1,112.7,22.2,112.6,22.3,112.5z M21.7,82.4c0.1-0.1,0.4-0.1,0.8-0.1l0.3,0.3v0.7l-0.4,0.3h-0.3c-0.5,0-0.8-0.1-0.8-0.4
				C21.5,82.7,21.6,82.5,21.7,82.4z M21,101.8l-0.4,0.6c-0.3-0.3-0.4-0.7-0.4-1.3l0.3-0.3l0.4,0.1L21,101.8z M21.1,104.2l-0.3,0.6
				l-0.3,0.1l-0.4-0.8l0.3-0.3L21.1,104.2z M20.3,94.2l0.3,0.3l-0.3,0.4L20,94.5C20,94.3,20.1,94.2,20.3,94.2z M16.9,122.2l0.1,0.6
				h-0.3c-0.3,0-0.4-0.1-0.4-0.4l0.1-0.6L16.9,122.2z M15.8,120.4l0.6,0.3v0.7c-0.3-0.1-0.5-0.1-0.6-0.1c-0.1,0-0.2-0.2-0.3-0.6
				L15.8,120.4z M14.2,122.2l0.4,0.4l-0.4,0.3l-0.4-0.3L14.2,122.2z M12.8,116.5l0.6-0.4l0.1,0.4v0.6l-0.8-0.6H12.8z M9.4,124.2
				l0.3-0.3l0.4,0.3l0.4,0.7l-0.1,0.4c-0.2-0.2-0.4-0.4-0.6-0.5C9.6,124.7,9.4,124.5,9.4,124.2z M9.9,135.5v-0.8
				c0.3-0.3,0.5-0.4,0.7-0.4c0.3,0,0.5,0,0.6,0.1l-0.3,1L9.9,135.5z M11.1,138.2l0.3,0.3C11.2,138.4,11.1,138.4,11.1,138.2z
				 M12.1,124.4l-0.8-0.6v-1l0.7-1l0.6-0.3l-0.3,1.5l0.1,0.3L12.1,124.4z M13.1,128.6l-0.6-0.4l0.7-0.4c0.1,0,0.3,0.1,0.6,0.4
				l-0.3,0.4H13.1z M15.1,138.6l-0.8,0.1c-0.2-0.5-0.3-0.9-0.2-1.3c0-0.4,0-0.9-0.2-1.3l0.6-0.4c0.4,0.1,0.6,0.4,0.6,0.8
				c0,0.4,0.1,0.8,0.1,1.1V138.6z M18.9,135.1l-0.4,0.1c-0.5,0-0.9-0.1-1.3-0.2c-0.4-0.1-0.8-0.3-1.1-0.5l-0.6-0.6l-0.1-0.7l0.6-0.1
				l0.7,0.7l1.5,0.1l0.7,0.6V135.1z M18.3,106.6h-0.1c-0.3,0-0.4-0.1-0.4-0.3c0.2-0.2,0.4-0.3,0.6-0.3V106.6z M18.5,120.8h0.3
				l-0.3,0.4l-0.6-0.1C18,120.9,18.2,120.8,18.5,120.8z M18.5,105.1l-0.4-0.3l-0.1-0.7l0.8,0.1l0.1,0.6L18.5,105.1z M18.6,102.5
				h-0.3l-0.6-1l-0.6-0.4l-0.1-0.6l0.4-0.3l1.7,1.4L18.6,102.5z M20,112.5l-0.4-0.4l0.1-0.7l0.7-0.3l0.6,1L20,112.5z M21.1,115.1
				c0.1-0.1,0.1-0.2,0.1-0.3c0.2,0.1,0.3,0.3,0.3,0.6C21.5,115.3,21.3,115.3,21.1,115.1z M22.1,121l-0.6-0.4L22,120l0.6,0.6
				L22.1,121z M24.2,110l-0.8-0.1l-0.1-0.3l0.4-1.1h0.6V110z M24.8,110.8c-0.3-0.1-0.4-0.3-0.4-0.6l0.3-0.1l0.3,0.4L24.8,110.8z
				 M25.1,102.7l-0.7-0.1l-0.8-0.8l0.1-0.1l0.6-1.3l0.4,0.3c0.1,0.2,0.2,0.5,0.4,1c0.2,0.5,0.3,0.8,0.3,1L25.1,102.7z M26.5,121.7
				h-1l-0.1-0.6l0.6-0.4c0.1,0.1,0.2,0.2,0.4,0.2c0.2,0,0.3,0.2,0.3,0.4L26.5,121.7z M26.8,110.1l-0.6-0.4l0.4-0.4H27l0.3,0.6
				L26.8,110.1z M27.8,104.8l1,0.7l-0.6,0.7H28l-0.7-1L27.8,104.8z M28,112.2c0,0.2-0.1,0.3-0.3,0.3l-0.1-0.1l0.3-0.3
				C28,112.1,28,112.2,28,112.2z M28,118.3c-0.1,0-0.2-0.1-0.4-0.3l0.3-0.3c0.2,0.2,0.3,0.4,0.3,0.6H28z M28.7,115.3l-0.6-0.8
				l0.8-0.7l0.4,1.1L28.7,115.3z M30.9,112.1c-0.2,0.2-0.5,0.4-0.8,0.8c-0.4,0.3-0.7,0.5-0.8,0.5l-0.3-0.4c0.1-0.2,0.2-0.4,0.2-0.7
				c0-0.3,0.2-0.5,0.4-0.7l1.1-0.7l0.3,0.4V112.1z M30.9,110l-1.1,0.4l-1-0.3l-0.3-0.3c0-0.5,0.2-0.8,0.6-0.8
				c0.4-0.1,0.8-0.2,1.1-0.3l0.7,0.1l0.3,0.6L30.9,110z M30.6,69.4l-0.3-0.3l0.4-1.1h1.1l0.1,0.6l-0.7,0.8H30.6z M31.6,71.8l-0.1-1
				l0.1-0.6l1.1-0.6l0.1,0.1c0,0.4-0.1,0.7-0.2,1.1c-0.1,0.3-0.3,0.7-0.4,1.1L31.6,71.8z M33,79.7c0.8,0,1.3-0.3,1.7-1V78l0.6-0.6
				h0.3L35.4,78l-0.6,0.4c-0.1,0.2-0.1,0.4-0.1,0.6c0,0.2,0,0.4,0,0.6l-1.5,1L32.4,80L33,79.7z M33,82.2L32.5,82l0.1-0.4h0.4
				l0.4,0.7H33z M35.4,116.2l-0.7-0.1l-0.1-0.4l0.7-0.8l0.3,0.1l0.3,0.8L35.4,116.2z M37.9,120.1v-0.6c0.4,0,0.6,0.1,0.6,0.3
				C38.5,120,38.3,120.1,37.9,120.1z M37.8,111.7l-0.4-0.1v-0.4l0.6-0.7h0.4l0.4,0.3l-0.1,0.4L37.8,111.7z M38.7,113.1v-0.6
				c0.4,0,0.6,0.2,0.6,0.7H39L38.7,113.1z M40.2,118.9l-0.7,0.3l-0.3-0.4c0-0.5,0.1-0.8,0.3-0.8h0.4l0.3,0.4V118.9z M42.4,121.1
				l-0.8,0.4c0-0.4-0.1-0.8-0.4-1.1c-0.2-0.4-0.4-0.7-0.6-0.8l1.3-0.3l0.4,0.4l0.3,0.8L42.4,121.1z M40.3,113.1v-0.4l0.4-0.1
				l0.4,0.3c-0.3,0.3-0.5,0.4-0.6,0.4C40.5,113.1,40.4,113.1,40.3,113.1z M44.9,112.5v-0.1c0.1,0,0.1,0,0.1,0.1H44.9z M45.5,115.1
				c0-0.2,0.1-0.3,0.3-0.3c0.1,0,0.2,0.1,0.4,0.3c-0.1,0.1-0.2,0.1-0.4,0.1C45.6,115.2,45.5,115.2,45.5,115.1z M45.8,111.7
				c0-0.1,0-0.1,0.1-0.1v0.1H45.8z M46.1,120.6c-0.1,0-0.2,0-0.2-0.1c0,0-0.1-0.1-0.2-0.1c0.2-0.2,0.3-0.3,0.4-0.3
				c0.1,0,0.1,0,0.1,0.1c0,0,0,0.1,0.1,0.1L46.1,120.6z M46.8,105.2c-0.8,0.3-1.4,0.5-1.9,0.6c-0.5,0.1-1.2,0.2-1.9,0.3
				c-0.3,0-0.4,0-0.4-0.1c-1-0.1-1.9-0.1-2.6-0.1c-0.7,0-1.4,0-2-0.1c-0.6-0.1-1.2-0.4-1.7-0.8c-0.5-0.4-1.1-1.1-1.8-2
				c-0.1-0.3-0.2-0.6-0.3-0.9c-0.1-0.3-0.1-0.6-0.1-0.9c0-1.2,0.1-2.7,0.4-4.5c0.2-1.8,0.6-3.6,1.1-5.4c0.5-1.8,1.1-3.4,2-4.9
				c0.8-1.5,1.9-2.5,3.1-3h1.5c1.2,0,2.3,0.8,3.2,2.3c0.9,1.5,1.7,3.2,2.3,5.2c0.6,2,1.1,4,1.3,6c0.3,2,0.4,3.6,0.4,4.7
				c0,0.8-0.3,1.5-1,2.1C47.8,104.2,47.2,104.7,46.8,105.2z M51.1,110.8h-0.3c-0.8,0.2-1.5,0.6-2,1.1c-0.3,0-0.4-0.2-0.4-0.6
				c0.2-0.2,0.5-0.4,0.9-0.7c0.4-0.3,0.8-0.4,1.1-0.4h0.7V110.8z M50.9,108.9h-0.4l-0.4-0.4v-0.7l0.4-0.1l0.8,0.4L50.9,108.9z
				 M51.4,78.6L51,78.2c0.2-0.2,0.4-0.4,0.7-0.5c0.3-0.1,0.6-0.2,0.8-0.2l0.4,0.4l-0.1,0.6l-0.7,0.4L51.4,78.6z M52.5,74.1l0.4-0.4
				l0.6,0.4L53,74.5L52.5,74.1z M52.7,110.4c0-0.4,0.2-0.6,0.7-0.6C53.4,110.2,53.2,110.4,52.7,110.4z M53.8,120.4h-0.3
				c-0.2,0-0.3-0.1-0.3-0.3c0.1-0.1,0.3-0.1,0.6-0.1V120.4z M53.4,117.5l-0.4-0.1v-0.6h0.8C53.8,117.1,53.7,117.4,53.4,117.5z
				 M53.7,70.8H53l-0.4-0.4c0-0.8,0.3-1.1,1-1.1c0.2,0.4,0.3,0.8,0.3,1.1L53.7,70.8z M53.7,57.9h-0.4l-0.4-0.3L53,57l0.6-0.1
				l0.3,0.4L53.7,57.9z M54.1,62.9l0.6-0.3l0.8,1l-0.4,0.4l-0.8-0.4L54.1,62.9z M54.9,72.4l1,0.6l0.1,0.3l-0.6,0.3l-0.8-0.3
				l-0.3-0.4L54.9,72.4z M55.1,87.6h0.4l0.6,1.7l-0.6,0.4l-0.6-0.6L54.7,88L55.1,87.6z M55.1,115.6c-0.2,0-0.3-0.1-0.3-0.3
				c0.3-0.3,0.5-0.4,0.6-0.4l0.4,0.3C55.5,115.5,55.3,115.6,55.1,115.6z M55.2,103.5l-0.1-0.3l0.6-0.4l0.7,0.4l-0.3,0.6L55.2,103.5z
				 M58,110.7c-0.4,0.8-0.6,1.4-0.6,1.8l0.4,0.7c0.2,0.5,0,0.7-0.4,0.7c-0.2,0-0.3-0.2-0.4-0.6c0-0.4-0.1-0.6-0.1-0.7
				c0-0.2,0.1-0.4,0.3-0.6l-0.1-0.7l-0.8-0.4l0.3-0.6l0.8-0.3l0.6,0.3V110.7z M57.8,88.2l-0.1-0.4c0-0.2,0.1-0.3,0.3-0.3
				c0.1,0,0.2,0.1,0.4,0.3L58.2,88L57.8,88.2z M58.9,105.8l-0.6-0.7l0.6-0.6l0.6,0.4L58.9,105.8z M59.2,120v-0.1
				c0.1,0,0.1,0,0.1,0.1H59.2z M60.7,116.9l-0.8,0.3l-0.6-0.3l0.8-1.1h0.6c0.3,0,0.4,0.2,0.4,0.6L60.7,116.9z M62,126.9h-0.4v-0.6
				H62V126.9z M61.7,113l-0.8-0.3l0.4-0.8H62l0.4,0.6L61.7,113z M62.1,108.2h-0.6V107c0.7,0,1,0.2,1.1,0.7L62.1,108.2z M63.7,129.4
				l-0.7-0.6l0.1-0.4l0.6-0.1l0.3,0.8L63.7,129.4z M65.1,128l-0.6-0.7c0.2-0.2,0.6-0.3,1.3-0.3l0.1,1H65.1z M65.9,125.2l0.6-0.4h0.3
				l0.6,1l-0.6,0.1h-0.7L65.9,125.2z M68.2,139.4l-0.4,0.3c-0.4-0.3-0.8-0.8-1.1-1.5c0.8,0,1.3,0.2,1.5,0.6V139.4z M67.9,131.5
				l-0.4-0.3l-0.1-0.4c0.2-0.4,0.5-0.6,1-0.6l0.1,0.6C68.5,131.1,68.3,131.4,67.9,131.5z M67.9,126.3l-0.4-0.7l0.7-0.1l0.4,0.3v0.8
				L67.9,126.3z M68.6,126.8c0.3,0.1,0.4,0.3,0.4,0.6C68.7,127.3,68.6,127.1,68.6,126.8z M68.9,132.7l0.6-0.4l0.3,0.4l-0.4,0.4
				L68.9,132.7z M70.3,138.6l-0.6,0.3l-0.1-0.4l0.3-0.6l0.6,0.1L70.3,138.6z M72.3,130.8c-0.1-0.5-0.4-0.9-0.8-1.4h-0.1l-1-1.1
				l0.1-0.3c0.4,0.1,0.8,0.2,1.1,0.4c0.4,0.2,0.8,0.4,1.1,0.6l0.3,1.1C73,130.6,72.7,130.8,72.3,130.8z M73.4,137.5
				c-0.1,0-0.3-0.1-0.6-0.4l0.7-0.6l0.6,0.8C73.9,137.4,73.7,137.5,73.4,137.5z M74.4,133.9l-0.8,0.3l-0.7-0.7V133l0.3-0.3h0.6
				l0.7,0.6V133.9z M73.8,126.2l-0.3-0.1l0.6-0.1l0.3,0.3H73.8z M75.1,127.6v-0.1c0-0.3,0.1-0.5,0.3-0.6l0.3,0.4
				C75.5,127.5,75.3,127.6,75.1,127.6z"/>
			<path class="st0" d="M172.6,43.1l-0.1-1l-1.3-1.5c-0.2-0.1-0.5-0.2-0.9-0.3c-0.4-0.1-0.7-0.2-0.9-0.2h-18.9c-0.6,0-1.2,0.1-2,0.4
				c-0.4,0.2-0.7,0.5-0.8,0.9c-0.2,0.4-0.4,0.8-0.6,1.1V101c-0.2-0.4-0.8-1.5-1.9-3.3c-1.1-1.8-2.4-4-3.9-6.5
				c-1.5-2.5-3.2-5.3-4.9-8.1c-1.7-2.9-3.4-5.5-4.9-8c-1.5-2.5-2.8-4.6-3.8-6.3c-1-1.7-1.6-2.6-1.8-2.8c-1.5-1.3-3.3-2-5.5-2H98.1
				c-0.5,0-1,0.1-1.5,0.3c-0.5,0.2-1,0.4-1.3,0.7c-0.1,0.1-0.2,0.4-0.4,0.7c-0.1,0.3-0.2,0.6-0.2,0.7v77.8c0,0.1,0,0.3,0.1,0.5
				c0.1,0.2,0.2,0.3,0.3,0.5l1.7,1l1.5,0.1h19.2c0.3-0.1,0.7-0.3,1.1-0.5c0.5-0.2,0.8-0.4,1-0.6c0.2-0.3,0.3-1.4,0.4-3.3
				c0.1-1.9,0.1-4,0.1-6.4c0-2.4,0-4.6-0.1-6.8c0-2.2-0.1-3.7-0.1-4.6V99.1l0.1-0.4l0.1,0.4c0.2,0.5,0.5,1,0.8,1.5
				c0.4,0.5,0.7,1,1,1.5l7.2,11.8c0.3,0.7,0.9,1.8,2,3.5c1,1.7,2.2,3.6,3.5,5.7c1.3,2.1,2.7,4.4,4.2,6.8c1.5,2.4,2.8,4.6,4,6.7
				c1.2,2.1,2.2,3.8,3,5.3c0.8,1.5,1.1,2.3,1.1,2.6c0.5,0.5,0.8,0.9,1.1,1.3c0.2,0.4,0.9,0.5,1.9,0.5h19.9c0.4,0,0.7-0.1,1.1-0.3
				c0.3-0.2,0.6-0.3,0.9-0.5l0.7-1.4c0.5-12.9,0.6-25.7,0.4-38.6C172.7,92.7,172.6,56,172.6,43.1z M118.2,82.6l0.6,0.1l-0.3,0.8
				h-0.3l-0.4-0.1v-0.4L118.2,82.6z M118.1,81.6h0.1v0.1C118.1,81.7,118.1,81.7,118.1,81.6z M118.3,88.7l0.6,0.5l-0.8,0.4l-0.3-0.5
				L118.3,88.7z M118.5,70.7l0.3,0.5l-0.7,0.2l-0.4-0.5C117.7,70.8,118,70.7,118.5,70.7z M115.4,73.9l0.3,0.3v0.2l-0.3,0.4l-0.6-0.2
				l-0.1-0.2L115.4,73.9z M114.4,70.8l0.1,0.2c0,0.1-0.1,0.1-0.3,0.1h-0.1C114.1,71.1,114.2,70.9,114.4,70.8z M114.3,94.6l0.4,0.2
				c-0.1,0.1-0.2,0.1-0.4,0.1h-0.1C114.1,94.8,114.2,94.7,114.3,94.6z M113.3,99.8h0.6l0.1,0.2c-0.1,0.3-0.2,0.6-0.2,0.9
				c0,0.3-0.2,0.5-0.4,0.8l-0.8,0.1l-0.6-0.2l0.1-0.5c0.4-0.1,0.8-0.5,1.1-1V99.8z M112,113.7c0.1,0,0.1,0,0.1,0.1
				c0,0,0,0.1,0.1,0.1L112,114c-0.1,0-0.2,0-0.2-0.1c0,0-0.1-0.1-0.2-0.1C111.8,113.8,111.9,113.7,112,113.7z M111.2,90.4l-0.4-0.1
				l-0.4-0.4v-0.1l1.4-0.5l0.6,0.3l-0.6,0.9H111.2z M112.7,93.2c-0.3-0.1-0.4-0.2-0.4-0.4c0-0.1,0-0.1,0.1-0.2c0,0,0.1-0.1,0.1-0.2
				h0.4l0.1,0.4L112.7,93.2z M112.8,81.6l-0.1,0.1l-0.8,0.2l-1.3-0.5l-0.3-0.4l0.6-0.3c0.7,0,1.3,0.2,2,0.5V81.6z M109.6,73.6
				l0.8-0.7c-0.2,0.5-0.2,1,0,1.4l0.4,0.4l-0.4,0.2l-0.3-0.1l-0.6-0.8V73.6z M110.4,91.1l0.6,0.8l-0.3,0.2l-0.6-0.1l-0.8-1
				L110.4,91.1z M111,110.2c0,0.1-0.1,0.2-0.4,0.2l-0.1-0.4C110.8,110,111,110.1,111,110.2z M110,104.6l-0.3-0.4l0.6-0.3
				c0.1,0.1,0.1,0.2,0.1,0.3C110.4,104.3,110.3,104.4,110,104.6z M107.9,78.4l0.4,0.3l-0.4,0.2l-0.4-0.2L107.9,78.4z M107.9,85.7
				l0.4,0.5c-0.2,0.1-0.4,0.1-0.7,0.1c-0.2,0-0.3,0-0.4-0.1L107.9,85.7z M107.3,125.6l0.3,0.3l-0.1,0.1c-0.2,0-0.4-0.1-0.6-0.2
				L107.3,125.6z M106.8,110.4c0.1-0.3,0.3-0.4,0.7-0.4C107.5,110.3,107.3,110.4,106.8,110.4z M107.4,95.6h-0.6l-1-1.5h1l0.7,0.7
				l0.1,0.7L107.4,95.6z M106.2,122.1h-0.3l0.1-0.1L106.2,122.1z M106.2,88.7l0.1-0.4h1v0.2l-0.4,0.3L106.2,88.7z M105.9,83.4v0.1
				c0,0.2-0.2,0.4-0.7,0.5C105.2,83.6,105.5,83.4,105.9,83.4z M104.8,86.7l0.4-0.7l1.3,0.7v0.7c-0.2,0.2-0.4,0.5-0.6,0.7
				c-0.2,0.3-0.5,0.5-0.8,0.6l-0.7-0.2l-0.1-0.8l0.6-0.7V86.7z M103,105c-0.1,0-0.3-0.1-0.6-0.3l0.6-0.3h0.6v0.5
				C103.4,104.9,103.3,105,103,105z M103.5,109.9v0.3l-0.3,0.2c-0.3-0.1-0.4-0.2-0.4-0.4l0.3-0.2L103.5,109.9z M102.1,103l0.3-0.4
				l0.4-0.1l0.6,0.2l-0.4,0.5h-0.4L102.1,103z M103.7,108.2l0.7,0.2l-0.1,0.3l-0.7-0.2L103.7,108.2z M104.3,94.4v-0.2
				c0-0.2,0.1-0.3,0.4-0.3l0.7,0.1C105.2,94.2,104.8,94.3,104.3,94.4z M105,92.2c0-0.1,0-0.3,0-0.5h0.7v0.2c0,0.2,0,0.4-0.1,0.4
				C105.2,92.4,105,92.3,105,92.2z M103,76.9l0.1-0.2l0.6-0.3c0.5,0,0.7,0.2,0.7,0.7c0,0.2-0.2,0.4-0.5,0.6
				c-0.3,0.2-0.6,0.3-0.9,0.3h-0.6l-0.6-0.4L103,76.9z M100.7,73c0-0.1,0.1-0.2,0.4-0.4l0.4,0.2c-0.3,0.2-0.5,0.3-0.7,0.3h-0.1V73z
				 M101.6,78.9c0,0.1,0,0.1-0.1,0.1h-0.1c0-0.1,0-0.1,0.1-0.1H101.6z M100.9,111.2c0.2,0,0.3,0,0.3,0.1c0,0.1,0,0.1,0.1,0.2
				l-0.3,0.1l-0.3-0.4H100.9z M100,129.5l0.3-0.3l0.7,0.4l-0.6,0.3L100,129.5z M101,138.9l-0.4-0.2l0.4-0.3l0.3,0.2L101,138.9z
				 M101.3,119.5l0.4-0.5l0.8,0.1v0.2l-0.3,0.4L101.3,119.5z M103.1,131.7l-0.6-0.5v-0.3l0.4-0.2l0.4,0.3L103.1,131.7z M103.5,116.9
				v-0.2c0.2,0,0.4,0.1,0.6,0.2H103.5z M104.2,113.4c0-0.1,0-0.3-0.1-0.3h0.4C104.5,113.1,104.4,113.2,104.2,113.4z M105,123.3
				l0.6,0.2l-0.3,0.5l-0.6-0.1L105,123.3z M105.2,130l-0.4-0.3v-0.2l0.8-0.3l0.3,0.1v0.4l-0.3,0.2L105.2,130z M105.9,131.1h0.3v0.1
				h-0.1C106,131.2,105.9,131.1,105.9,131.1z M108.2,137.1l-0.7,0.1l-1.4-0.3l0.1-0.3l1.1-0.5l1.4-0.1L108.2,137.1z M108.3,124.6
				l0.1-0.2c0.1,0.1,0.1,0.1,0.1,0.2c0,0.1,0,0.1-0.1,0.1L108.3,124.6z M108.3,114.1l-0.1-0.5l0.4,0.1l0.1,0.1
				C108.8,114,108.6,114.1,108.3,114.1z M108.9,71.6c-0.1,0.1-0.3,0.1-0.6,0.1h-0.3c0-0.4,0.3-0.5,0.8-0.5V71.6z M109,129
				c0-0.2,0.1-0.3,0.4-0.3C109.5,128.9,109.3,129,109,129z M110.4,140.1l-0.1,0.1L110,140c0.1-0.1,0.2-0.1,0.4-0.1V140.1z
				 M110.9,124.8l-0.3-0.1c0.1-0.1,0.2-0.1,0.3-0.1l0.1,0.1L110.9,124.8z M110.4,120c-0.4-0.3-0.7-0.5-1-0.6l0.8-0.7
				c0.2,0.2,0.5,0.4,0.8,0.5c0.4,0.1,0.6,0.4,0.6,0.7v0.4l-0.4,0.1C111.1,120.5,110.8,120.3,110.4,120z M112.5,131.6l0.6,0.2
				l-0.6,0.5h-0.8C111.7,132,112,131.8,112.5,131.6z M113,139.5l-0.7-0.3l0.3-0.3l0.6,0.1L113,139.5z M113,103.4l0.7-0.3
				c0.1,0.1,0.2,0.1,0.4,0.2c0.1,0.1,0.2,0.2,0.2,0.3L114,104l-0.8,0.1L113,103.4z M114.5,115.6l-0.6-0.2l-0.1-0.4l0.6-0.1
				c0.2,0,0.3,0.1,0.4,0.2c0,0.1,0.1,0.3,0.1,0.3L114.5,115.6z M115,96.8c-0.1-0.1-0.1-0.2-0.1-0.3l0.3,0.1L115,96.8z M115.5,93.4
				c0.1-0.2,0.3-0.3,0.6-0.3C116.1,93.3,115.9,93.4,115.5,93.4z M117.1,87.8l-0.6,0.1l-0.6-0.5c0.1-0.1,0.2-0.1,0.4-0.1
				c0.2,0,0.5,0.1,0.8,0.2L117.1,87.8z M115.8,85.2c0,0.1-0.1,0.2-0.3,0.2l-0.3-0.2l0.6-0.2c0.1-0.1,0.2-0.3,0.4-0.5
				c0.1-0.2,0.4-0.3,0.6-0.3s0.6,0.1,1,0.4V85l-0.3,0.2C116.4,85.1,115.8,85.1,115.8,85.2z M118.5,91h-0.3l-0.6-0.1l0.4-0.4l0.3-0.1
				c0.2,0.1,0.3,0.3,0.3,0.4L118.5,91z M120,94.7h-1l-0.4-0.2l0.1-0.5l1-0.1c0.2,0.1,0.3,0.4,0.3,0.7V94.7z M120.6,85.5
				c-0.4-0.3-0.6-0.5-0.6-0.7h0.1c0.1,0,0.3,0.1,0.6,0.3L120.6,85.5z M121.3,76.6h-0.6l-0.3-0.3l0.7-0.8l0.4-0.1l0.1,0.9L121.3,76.6
				z M132.8,90.7V91h-0.4C132.4,90.8,132.6,90.7,132.8,90.7z M123,75.2h0.8l0.6,0.5l0.8,0.1l0.3,0.7l-0.1,0.1l-0.7,0.1l-0.3-0.2
				l-0.1-0.5l-1.3-0.2V75.2z M122.6,93.7v0.1l-0.3-0.1l0.1-0.2C122.5,93.6,122.6,93.7,122.6,93.7z M122.1,72.2
				c0-0.1,0.1-0.1,0.3-0.1c0,0.1-0.1,0.2-0.3,0.3V72.2z M123.1,96.6l-1-0.1c0-0.4,0.1-0.9,0.4-1.3l1.1,0.4L123.1,96.6z M124.1,89.6
				c0.2,0,0.3,0.1,0.3,0.2l-0.1,0.1l-0.3-0.2L124.1,89.6z M124.7,91l0.7,0.1l0.3,0.4c0,0.2-0.2,0.4-0.6,0.5l-0.6-0.1l-0.4-0.5
				L124.7,91z M125.1,95.3l-0.7-0.7l-0.1-0.4l0.8-0.9c0.7,0.7,1,1.3,1,2H125.1z M126.4,90.2h-0.1c0-0.1,0-0.1,0.1-0.1h0.1
				C126.5,90.2,126.5,90.2,126.4,90.2z M126.2,85.5l0.1,0.8l-0.3,0.7h-0.3l-0.7-1c0.2-0.4,0.3-0.7,0.3-1c0-0.3,0.1-0.7,0.3-1
				l1.1,1.1L126.2,85.5z M127.5,85.1h-0.4l0.1-0.1l0.1-0.4l0.6-1.3l0.1-0.1l0.4,0.5l-0.6,1.1L127.5,85.1z M129.5,100.7
				c0-0.2,0.1-0.3,0.3-0.3l0.3,0.1C129.9,100.6,129.7,100.7,129.5,100.7z M130.5,97.7l-1,0.4l-1-0.4l1.7-1l0.4,0.4L130.5,97.7z
				 M131.2,87c-0.4,0.1-0.9,0.3-1.3,0.4l-0.4-0.5l0.3-0.7l0.8-0.3l1.7,0.4C132,86.6,131.6,86.8,131.2,87z M132.8,96.9l-0.7-0.1
				l0.3-0.4c0.3,0.2,0.4,0.4,0.4,0.4V96.9z M133.1,92.6l-1,0.1l-0.4-0.3l0.6-0.7l0.8,0.3V92.6z M133.3,88.4l-0.4-0.1l0.6-0.5
				c0.2,0.1,0.3,0.3,0.3,0.3C133.7,88.3,133.6,88.4,133.3,88.4z M133.8,103.9l0.1-0.1c0.2,0,0.3,0.1,0.3,0.2h-0.1L133.8,103.9z
				 M135.4,111.7h-0.3l-0.8-0.1l0.1-0.5l0.3-0.2l1-0.2l0.1,0.4L135.4,111.7z M136.3,108.7c0,0-0.1,0.1-0.2,0.1v-0.3l0.4,0.2
				C136.4,108.7,136.3,108.7,136.3,108.7z M137.6,106.4l-0.7-0.1c0.2-0.4,0.5-0.5,0.8-0.5h0.1L137.6,106.4z M137.9,103.3l-0.4-0.2
				c0.1-0.2,0.3-0.3,0.6-0.3l0.3,0.3L137.9,103.3z M166.7,55.8c0.1,0,0.1,0,0.1,0.1c0,0.1,0,0.1-0.1,0.1c-0.1,0-0.1,0-0.1-0.1
				C166.5,55.8,166.6,55.8,166.7,55.8z M165.7,69.3l-0.3,0.1c-0.1-0.1-0.1-0.1-0.1-0.2c0-0.2,0-0.4,0.1-0.4l0.4,0.1L165.7,69.3z
				 M165.8,79.1l-0.4,0.3l-0.4-0.1v-0.3l0.3-0.3L165.8,79.1z M164.7,64.4v-0.7l0.6-0.3l1,0.8L164.7,64.4z M165.4,59.6
				c-0.4,0-0.6-0.1-0.6-0.4v-0.3l0.6,0.3V59.6z M165.5,62.7c0,0.1-0.1,0.2-0.4,0.4v-0.2c0-0.2,0-0.4,0.1-0.4
				C165.4,62.5,165.5,62.5,165.5,62.7z M165.4,48.7l0.3,0.2v0.4l-1.3-0.3L165.4,48.7z M164.7,54.9h0.1V55c-0.1,0.1-0.2,0.1-0.3,0.1
				l-0.1-0.1L164.7,54.9z M164.4,109.5h0.6c0,0.3-0.1,0.5-0.4,0.5l-0.1-0.1V109.5z M165,124.1l0.1,0.3l-0.4,0.3l-0.7-0.1l0.1-0.7
				L165,124.1z M163.5,90.2l-0.3,0.2c-0.1-0.2-0.2-0.4-0.2-0.5l0-0.1C163.2,89.9,163.3,90,163.5,90.2z M163.2,82.9l-0.7-0.1
				c0-0.4,0-0.7,0.1-0.8h0.4L163.2,82.9z M161,97.3h-0.3L160,97l0.6-0.5l0.7-0.1l0.6,0.1V97L161,97.3z M161.7,101.9v0.1
				c0,0.2-0.1,0.3-0.3,0.5l-0.4-0.4L161.7,101.9z M160,90.4l0.1-0.4l0.7,0.1c0.2,0.1,0.4,0.3,0.6,0.6l-0.8,0.3L160,90.4z
				 M161.4,77.8l0.1-0.8l0.4,0.6L161.4,77.8z M161.4,72.6l-0.6-0.2l-0.1-0.3l0.3-0.3l0.6,0.1l0.4,0.4L161.4,72.6z M160.9,66.3
				l-0.3,1.2l-0.8,0.1l-0.3-0.2l-0.3-1.2l1-0.3L160.9,66.3z M157.4,112.9l-0.4-0.2v-0.6h0.7l0.6,0.5l-0.3,0.4H157.4z M157.8,117v0.1
				c0,0.1,0,0.1-0.1,0.1c-0.1-0.1-0.2-0.1-0.3,0C157.5,117,157.7,117,157.8,117z M154.8,101.3l-0.3-0.5l1-0.6l0.6,0.2l0.1,0.6
				l-0.7,0.6L154.8,101.3z M155.2,118.8v0.3H155C155,119.1,155.1,119,155.2,118.8z M157.3,88.9l-0.9-0.1l-0.4-1l0.5-0.3l0.7,0.2
				L157.3,88.9z M156.7,62l0.1-0.4h0.7l0.1,0.5l-0.3,0.3L156.7,62z M158.1,105.6l-0.3-0.6h0.7v0.5L158.1,105.6z M157.9,96.4
				l-0.4-0.2l0.1-0.4l0.6-0.2l0.6,0.5L157.9,96.4z M157.6,84.4l0.2-0.7l0.3-0.1l0.5,0.2l0,0.6l-0.7,0.3L157.6,84.4z M159.5,106.6
				l0.3,0.4v0.4l-0.1,0.4c-0.2,0-0.5-0.1-0.8-0.2L159.5,106.6z M159.9,54.7c0,0.1,0,0.1,0.1,0.2c0,0,0.1,0.1,0.1,0.2
				c-0.1,0.1-0.1,0.1-0.1,0.2l-0.4-0.2L159.9,54.7z M159.6,56.3l0.4,0.2v0.2c0,0.4-0.2,0.5-0.6,0.5h-0.4l-0.3-0.4
				C158.8,56.5,159.1,56.3,159.6,56.3z M159.3,68.1l0.1,0.4v0.1c-0.2-0.1-0.3-0.1-0.4-0.2c-0.1-0.1-0.2-0.1-0.4-0.1
				C159,68.2,159.2,68.1,159.3,68.1z M158.2,50.9v0.4l-0.1-0.2C158.1,51,158.1,51,158.2,50.9z M156.5,58.5l0.6-0.4h0.4l0.6,0.3
				l-0.4,0.4l-0.6,0.1l-0.6-0.2V58.5z M156.5,71c0.3,0.2,0.4,0.4,0.4,0.4c0,0.1-0.2,0.3-0.5,0.3c-0.3,0.1-0.5,0.1-0.6,0.2
				c0-0.1,0.1-0.3,0.2-0.5C156.2,71.3,156.3,71.1,156.5,71z M155.5,62.7l0.3,0.3l-0.3,0.3l-0.4-0.3L155.5,62.7z M154.5,78.4l1.1-0.1
				l0.4,0.3l-0.4,0.6h-0.4c-0.6,0-0.8-0.2-0.8-0.7H154.5z M154.9,80.5h-0.4v-0.4l0.3,0.1L154.9,80.5z M154.1,90.4
				c0.3-0.2,0.6-0.3,0.8-0.4l1.2,0.4l-0.2,1.7l-0.8-0.8l-1.3,0.8l-0.5-0.3l-0.1-0.8C153.5,90.7,153.8,90.6,154.1,90.4z M151,110.6
				v0.1v0.1c-0.1,0-0.1,0-0.1-0.1c0,0,0-0.1-0.1-0.1C150.8,110.8,150.9,110.7,151,110.6z M147.8,105.7l0.4-0.2
				c0.3,0,0.4,0.1,0.4,0.3l-0.1,0.3h-0.6l-0.3-0.2L147.8,105.7z M147.9,117.6l0.1,1.2l-0.4,0.1l-0.6-0.3
				C147.1,118.1,147.4,117.8,147.9,117.6z M146.2,105.8l0.7,0.5l-0.3,0.4c-0.5,0-0.8,0-1-0.1c-0.2,0-0.3-0.2-0.3-0.6L146.2,105.8z
				 M141,105.1c0.1,0,0.1,0,0.1,0.1c0,0.1,0,0.1-0.1,0.1c-0.1,0-0.1,0-0.1-0.1C140.9,105.1,140.9,105.1,141,105.1z M140.7,106.6
				c0.2,0,0.3,0,0.4,0.1l-0.3,0.3l-0.6-0.3C140.4,106.6,140.5,106.6,140.7,106.6z M140.9,115l-0.6,0.4h-0.4l-0.7-0.4v-0.8l0.6-0.2
				h0.8l0.4,0.4L140.9,115z M141.4,112.7l-0.7-0.1l0.1-0.7l0.4-0.1l0.4,0.5L141.4,112.7z M141.6,108.6h-0.3c0.3-0.2,0.5-0.3,0.6-0.3
				c0.1,0.1,0.2,0.1,0.3,0.1C142,108.5,141.8,108.6,141.6,108.6z M143.6,108.8l-0.8-0.3l-0.1-0.2l0.6-0.3l0.7,0.5L143.6,108.8z
				 M144.7,114.4c-0.2-0.7-0.2-1.3,0-2l-0.3-0.5l0.6,0.3c0.2,0.4,0.4,0.9,0.6,1.4c0.2,0.5,0.5,0.9,0.8,1.3h-1.1L144.7,114.4z
				 M147.1,132.9l-0.8-0.4l-0.4-0.9l0.3-0.5c0.2,0.2,0.5,0.5,0.8,0.8c0.4,0.3,0.6,0.6,0.6,1L147.1,132.9z M147.8,122.4
				c-0.5,0-0.8,0-0.8-0.1c-0.1-0.1-0.1-0.3-0.1-0.7v-0.1l0.4-0.2h0.7c0.2,0.1,0.3,0.3,0.3,0.5C148.2,122,148.1,122.2,147.8,122.4z
				 M147.8,108.2l0.7-0.4l1.1,1.1c0,0.1,0,0.3,0,0.6c0,0.3,0,0.5-0.1,0.6l-0.4-0.7v-0.5L147.8,108.2z M149.8,113.4l-0.6,0.2
				l-0.3-0.3l0.4-0.4c0.1,0,0.2,0.1,0.3,0.2C149.7,113.2,149.8,113.3,149.8,113.4z M148.6,128.5l-0.3-0.5l0.7-0.3l0.4,0.4
				L148.6,128.5z M149.9,115.7c-0.2,0.1-0.4,0.2-0.6,0.2c-0.2,0-0.4-0.1-0.7-0.3l1.3-0.4l0.3,0.2
				C150.2,115.5,150.1,115.6,149.9,115.7z M150.7,135.6l-0.4-0.2v-0.5l1-0.3l0.6,0.7L150.7,135.6z M153,97.3h2.4l0.1,0.2v0.6
				l-0.7,0.2h-1l-0.8-0.6V97.3z M153.6,117.5v-1l0.7,0.2l0.3,0.4l-0.6,0.5L153.6,117.5z M155.4,140.9l-0.6-0.2h0.7L155.4,140.9z
				 M155.7,138.6l-0.6,0.2l-0.3-0.1l-0.1-1l0.1-0.1l0.8,0.2V138.6z M155.8,129.3l-0.7,0.4l-0.7-0.1v-0.4l0.4-0.3h0.7l0.3,0.1V129.3z
				 M155.4,122.3c-0.1,0-0.2-0.2-0.4-0.5l0.7-0.4l0.4-0.1l0.4,0.3v0.5l-0.4,0.2H155.4z M157.1,139.4h-0.3c-0.2,0-0.4-0.1-0.6-0.4
				c0.1-0.1,0.3-0.1,0.6-0.1h0.3V139.4z M158.3,136.7c-0.3,0-0.5-0.1-0.7-0.2c0.1-0.1,0.3-0.2,0.7-0.2V136.7z M158.7,131.7
				c-0.2,0-0.4,0-0.6,0l-0.6,0.5l-0.6-0.1c0-0.1,0.1-0.3,0.4-0.4c0.3-0.1,0.5-0.2,0.7-0.1l0.4-0.8l0.7,0.7
				C159.1,131.6,158.9,131.7,158.7,131.7z M159.5,123.4l0.4-0.1l0.6,0.8l-0.4,0.3l-0.8-0.2L159.5,123.4z M160.9,128.5h0.4v0.7
				l-0.3,0.2c-0.2,0-0.3-0.1-0.4-0.2c-0.1-0.1-0.2-0.3-0.3-0.3L160.9,128.5z M161,141.1l-0.8,0.7l-0.4-0.2l-0.1-0.7v-0.3l0.6-0.7
				l0.3-0.1l0.4-0.8c0.1,0.1,0.2,0.3,0.2,0.5c0,0.2,0.1,0.4,0.2,0.5L161,141.1z M161.2,135.5h-0.7l-0.1-0.1l0.1-0.7l0.7-0.2l0.4,0.5
				L161.2,135.5z M160.3,120.6l-0.4-0.3l0.3-0.8l0.6-0.5l0.7,0.4l0.1,0.2C161.2,120,160.8,120.3,160.3,120.6z M162.2,116.1h-0.4
				c-0.4-0.3-0.6-0.5-0.6-0.7v-0.3h0.7c0.2,0.1,0.3,0.4,0.3,0.8V116.1z M161.4,67.9c0.1-0.1,0.2-0.2,0.3-0.3
				c0.1-0.1,0.2-0.2,0.4-0.2c0.2,0,0.3,0.1,0.4,0.2c0.1,0.1,0.2,0.2,0.3,0.3v0.5l-0.6,0.1L161.4,67.9z M162.7,132.7h-0.1l0.3-0.5
				l0.6,0.2C163.2,132.6,163,132.7,162.7,132.7z M163.1,123l-0.7-0.3l0.6-0.4l0.6,0.4L163.1,123z M163.6,100.1c-0.1,0-0.1,0-0.1-0.1
				h0.1V100.1z M163.8,53.3l0.3,0.2l-0.1,0.2c-0.1,0-0.2-0.1-0.4-0.2L163.8,53.3z M164,136.4l-0.3-0.2l0.4-0.5l0.4-0.2l0.3,0.2
				L164,136.4z M164.8,126.9l0.4-0.3h0.6l0.4,0.3l-0.3,0.4l-0.7,0.1C165,127.2,164.8,127.1,164.8,126.9z M166.9,137l-0.3,0.2
				l-0.7-0.1l-0.1-0.7l0.6-0.8c0.4,0.2,0.6,0.6,0.6,1.1V137z M165.7,115.7l-0.8-0.4l0.4-0.9l0.4-0.2l1.3,0.4l0.1,0.3L165.7,115.7z
				 M167.4,96.7l-0.8,0.7h-0.1l-0.3-0.8l0.1-0.4l0.7-0.4l0.6,0.4L167.4,96.7z"/>
			<path class="st0" d="M241.2,40c-0.1,0.1-1,0.1-2.6,0.1c-1.6,0-3.7,0-6.1,0c-2.4,0-5.1,0-8,0c-2.9,0-5.7,0-8.4-0.1
				c-2.7,0-5.1-0.1-7.3-0.1c-2.2,0-3.7,0-4.5,0c-0.5,0-1.2,0-2.2,0.1c-1,0.1-1.6,0-1.9-0.1c-1.9,0.2-3.9,0.2-5.9,0.1
				c-2.1-0.1-4-0.1-5.9-0.1c-1.2,0-2.2,0.2-2.8,0.6c-0.7,0.4-1.4,1-2.1,1.8c-0.2,0.5-0.4,1.1-0.5,1.8s-0.3,1.4-0.4,2.2
				c-0.1,0.8-0.1,1.5-0.1,2.2c0,0.7,0.2,1.2,0.4,1.6c-0.5,3.9-0.7,8.1-0.6,12.6c0,4.5,0.2,8.7,0.4,12.7l0.1,0.3c0,0.7,0,2.3,0,4.9
				c0,2.6,0,5.6,0.1,9.2c0,3.5,0.1,7.3,0.1,11.3c0,4,0,7.7-0.1,11.1c0,3.4-0.1,6.3-0.1,8.7c0,2.4,0,3.7-0.1,4
				c0.1,0.2,0.1,1.1,0.1,2.7c0,1.6,0,3.4,0,5.3c0,1.9,0,3.7-0.1,5.4c0,1.7-0.1,2.7-0.1,3c0,1.3,0.5,2.4,1.5,3.4
				c1,0.9,2.1,1.4,3.3,1.4h53.1c1.2,0,2.2-0.2,3-0.7c0.8-0.6,1.3-1.1,1.8-1.8c0.4-0.6,0.6-1.4,0.6-2.3v-13.1c0-0.6-0.1-1.1-0.4-1.7
				c-0.2-0.6-0.5-1.1-0.8-1.5c-0.8-0.8-1.8-1.4-2.8-1.7c-0.5,0.1-1,0.1-1.5,0c-0.6-0.1-1.1-0.1-1.6-0.1h-23.4c-1.5,0-3-0.3-4.4-0.9
				c-1.5-0.6-2.2-1.9-2.2-3.7v-11.6c0-1.9,0.7-3.1,2.1-3.8c1.4-0.7,3.2-1,5.3-1.1c2.1-0.1,4.4,0,6.8,0.2c2.4,0.2,4.7,0.3,6.8,0.2
				c2.1-0.1,3.9-0.4,5.3-1.1c1.4-0.6,2.1-1.9,2.1-3.7V83.8c0-0.4-0.1-0.8-0.2-1.1c-0.1-0.4-0.3-0.7-0.4-1c-0.5-0.5-0.9-0.9-1.3-1.2
				c-0.4-0.3-0.9-0.7-1.5-1.1c-0.4-0.1-0.7-0.2-1-0.2c-0.3,0-0.6-0.1-1-0.1c-0.8,0-1.8,0-3-0.1c-1.1-0.1-2.1,0-2.8,0.3
				c-1.6-0.2-3.2-0.3-4.8-0.2c-1.6,0-3.2,0.1-4.8,0.1c-2,0-3.5-0.2-4.5-0.5c-1-0.3-1.8-0.9-2.3-1.7c-0.5-0.8-0.8-1.9-0.8-3.2
				c0-1.4-0.1-3.1-0.1-5.3c0-2.3,0.9-3.8,2.7-4.6c1.8-0.8,4.1-1.2,6.8-1.3c2.7-0.1,5.7,0,8.9,0.4c3.2,0.4,6.2,0.6,8.9,0.6
				c2.7,0,5-0.3,6.8-1c1.8-0.7,2.7-2,2.7-4.1V44.9c0-1.3-0.4-2.4-1.3-3.3C243.6,40.7,242.5,40.2,241.2,40z M238.9,134.9
				c0,0,0-0.1,0.1-0.1c0.2,0,0.3,0,0.3,0.1c0,0.1,0,0.2,0.1,0.3h-0.1c-0.3,0-0.5-0.1-0.6-0.3C238.9,134.9,238.9,134.9,238.9,134.9z
				 M233.9,129.3l0.8-0.6l0.6,0.4v1.3l-0.6,0.3l-1-0.8L233.9,129.3z M234.7,132.7h0.3c0.8,0,1.3,0.4,1.7,1.3c-0.4,0-0.8,0-1.1,0
				c-0.4,0-0.8,0-1.1-0.1l-0.1,0.1l-0.7-0.1l-0.1-0.1L234.7,132.7z M231.3,136.1l0.3,0.3v0.6l-0.4,0.1c-0.2-0.2-0.3-0.3-0.3-0.4
				L231.3,136.1z M229.2,134.8l0.7,0.3v0.4l-0.4,0.4l-0.4-0.7L229.2,134.8z M229.6,137.7l1.1,0.4l1,1l-0.3,0.4
				c-0.3-0.1-0.8-0.3-1.5-0.6c-0.7-0.3-1.1-0.6-1.1-0.8L229.6,137.7z M225.3,127.7h0.4l0.3,0.4l-0.1,0.3h-0.1l-0.4-0.3V127.7z
				 M225.4,140.6c0.2,0,0.3,0.1,0.3,0.3c0,0.1-0.1,0.2-0.3,0.4l-0.3-0.3C225.1,140.9,225.2,140.8,225.4,140.6z M222.9,137.9h0.6v1
				l-0.7,0.1l-0.3-0.1L222.9,137.9z M221.6,134.9c0.2,0.1,0.4,0.2,0.5,0.2c0.1,0,0.2,0.2,0.2,0.4v0.3l-1-0.6L221.6,134.9z
				 M220.8,139.2c0-0.1,0-0.1,0.1-0.1h0.1c0,0.2-0.1,0.3-0.3,0.3c-0.1,0-0.2,0-0.3-0.1C220.7,139.2,220.8,139.2,220.8,139.2z
				 M219.2,134.1h0.7l0.1,0.7l-0.1,0.3l-0.7-0.3V134.1z M217.7,132.5l0.1-0.1c0.5,0.2,0.7,0.5,0.7,1l-0.4,0.4
				c-0.4,0-0.6-0.1-0.6-0.4L217.7,132.5z M215.4,135.6c0-0.2,0.1-0.3,0.3-0.3v0.1c0,0.3-0.1,0.4-0.3,0.4V135.6z M213.1,131.3
				l0.4,0.6l-0.3,0.3l-0.6-0.4L213.1,131.3z M230.8,88.9c0,0,0.1,0,0.1-0.1l0.3,0.1c0,0.1,0,0.2-0.1,0.2c0,0-0.1,0.1-0.1,0.2
				l-0.3-0.3C230.8,88.9,230.8,88.9,230.8,88.9z M230.6,93.4l0.4-0.1c0.1,0,0.3,0.1,0.6,0.4l-0.6,0.3l-0.4-0.1V93.4z M226.7,89.4
				l0.4-0.4h0.3l0.3,0.6l-0.1,0.4h-0.7l-0.1-0.1V89.4z M226.1,91l0.6-0.1l0.3,0.7l-0.1,0.1l0.3,1l-0.1,0.6c-0.4,0-0.7-0.1-1-0.4
				l-0.1-1.1L226.1,91z M221.9,90.6c0.6-0.4,1-0.9,1.3-1.5c0-0.1,0-0.3,0.1-0.5c0-0.2,0.1-0.4,0.2-0.4l0.6,0.1l0.1,0.8l-0.3,0.8
				c-0.4,0.5-0.8,0.9-1.3,1.3c-0.2,0.1-0.4,0-0.6-0.1C221.8,90.9,221.8,90.7,221.9,90.6z M221.2,86.5l0.3,0.1l0.3,0.4l-0.3,0.4
				l-0.4-0.1l-0.3-0.4L221.2,86.5z M220.8,93.1c0.1,0,0.1,0,0.1,0.1c0,0,0,0.1,0.1,0.1c0,0.3-0.1,0.4-0.2,0.4c-0.1,0-0.3,0-0.5,0
				c0.1-0.1,0.1-0.2,0.1-0.4C220.5,93.2,220.6,93.1,220.8,93.1z M219.9,87v0.1h-0.1C219.8,87.1,219.8,87,219.9,87z M218.8,91.1
				l0.4-0.4l1.1,0.1l0.1,0.8c-0.4,0.2-0.7,0.3-1,0.3h-0.7V91.1z M208.1,85.1v0.8h-0.1c-0.2,0-0.4-0.1-0.6-0.2
				c-0.2-0.1-0.4-0.3-0.6-0.5C207.1,85.1,207.5,85.1,208.1,85.1z M208.5,88.6v0.6h-0.7C207.9,88.8,208.1,88.6,208.5,88.6z
				 M206.9,101.5c0.1-0.1,0.2-0.3,0.2-0.4l0.3,0.6c0,0.1-0.1,0.2-0.3,0.4c-0.3,0-0.4-0.1-0.4-0.3
				C206.7,101.7,206.7,101.6,206.9,101.5z M204.7,96.3l-0.4-0.3l0.6-0.6l0.3,0.4L204.7,96.3z M205.1,120.6v0.4c-0.2,0-0.3,0-0.3,0.1
				l-0.4-0.6l0.4-0.3L205.1,120.6z M204.4,89.7c0.3-0.5,0.7-0.8,1.3-1l-0.4,1.1L204.4,89.7z M205,94.1l0.6-1l0.7,0.4l-0.1,0.7
				l-0.7,0.1L205,94.1z M206.1,84.9c-0.1,0.1-0.2,0.1-0.4,0.1h-0.1l0.4-0.6c0.1,0,0.3,0.1,0.6,0.4C206.3,84.8,206.2,84.8,206.1,84.9
				z M205,49.8l0.7,0.1c-0.1,0.2-0.3,0.3-0.6,0.3H205V49.8z M205.5,54.1c0.1-0.3,0.4-0.5,0.6-0.7l0.3,0.6l-0.8,1.1l-0.3,0.1
				l-0.3-0.3C205.2,54.6,205.3,54.3,205.5,54.1z M204.8,46.9c-0.1-0.1-0.1-0.2-0.1-0.3C204.8,46.6,204.8,46.7,204.8,46.9z
				 M205.3,82.4c0.2,0.2,0.4,0.4,0.6,0.6v0.3l-0.4,0.6h-1.1l-0.4-0.4l0.8-1.4C204.9,82.1,205.1,82.2,205.3,82.4z M195.1,102.4
				l-0.8,0.8l-0.3-0.4v-0.4l0.7-0.7l1.5-0.4l0.4,0.3l-0.1,0.6L195.1,102.4z M196.5,116.3v0.4l-0.4,0.6l-0.4-0.3h-0.1v-0.8
				c0.1-0.1,0.2-0.1,0.4-0.1C196.1,116,196.3,116.1,196.5,116.3z M191.6,124.8v-0.8l0.4-0.4l1.1-0.1l0.3,0.6l0.1,1.5l-0.3,0.4
				C192.9,125.5,192.3,125.2,191.6,124.8z M193.3,126.6v0.1h-0.1C193.1,126.7,193.2,126.6,193.3,126.6z M190.5,98.7v-0.4
				c0.4,0,0.6,0.1,0.6,0.3c0,0.1-0.1,0.1-0.3,0.1H190.5z M190.7,100.6l-0.4,0.1l-0.6-0.3l0.1-0.6l0.6,0.1L190.7,100.6z M190.7,92
				c-0.1-0.1-0.1-0.3-0.1-0.6c0.3,0,0.5,0.1,0.6,0.3L190.7,92z M190.7,76.7l-0.1-0.4l0.1-0.4h0.4l0.4,0.4
				C191.4,76.6,191.1,76.7,190.7,76.7z M194,94.9v0.6l-0.3,0.1l-0.6-0.3v-0.6l0.4-0.1L194,94.9z M193.8,72.7c0.4,0,0.6,0.2,0.6,0.7
				H194C193.9,73.2,193.8,72.9,193.8,72.7z M193.8,108.7l-0.3,0.3l-0.3-0.3l0.4-0.4c0,0.1,0,0.2,0.1,0.2
				C193.8,108.6,193.8,108.6,193.8,108.7z M193.4,87.7l-0.4-0.3l0.4-0.7c0.1,0.1,0.1,0.2,0.1,0.4C193.6,87.5,193.5,87.6,193.4,87.7z
				 M193,62.7c-0.2-0.1-0.4-0.2-0.6-0.2c-0.2,0-0.3-0.2-0.4-0.4l0.3-0.4h0.4l0.6,0.7L193,62.7z M192.2,68.7l-0.6,0.8l-0.6,0.1
				l-0.3-0.4l0.4-0.4L192.2,68.7z M191.7,70.8v0.7c-0.3,0-0.4-0.1-0.4-0.4C191.5,70.9,191.6,70.8,191.7,70.8z M193.4,119.9l-0.3-0.7
				l1.1-0.6l0.3,0.3l-0.4,1.1l-0.3,0.1L193.4,119.9z M194.1,116l-0.7,0.1l-0.7-0.7l0.3-0.7l0.8-0.6l0.8,0.3v1L194.1,116z
				 M194.6,67.4c0.2-0.2,0.4-0.3,0.7-0.3l0.4,1.1c-0.1,0.1-0.2,0.3-0.2,0.5c0,0.2,0,0.4,0.2,0.4l0.1,0.8l-1.3,0.1l-0.1-0.7l0.4-0.7
				L194.6,67.4z M196.9,90.8l0.3,1.3l-0.7,0.3l-0.3-0.6l0.1-0.7L196.9,90.8z M196.5,69.1l0.7-0.7l0.4,0.6l-0.1,0.7h-0.6L196.5,69.1z
				 M196.1,88.3l-0.6-0.4l0.4-0.4l0.4,0.4L196.1,88.3z M194.7,81.8c0.1-0.2,0.3-0.3,0.7-0.3h0.1l0.1,0.7h-0.6L194.7,81.8z M195.1,99
				c0,0.2-0.1,0.4-0.3,0.6l-0.3-0.3C194.7,99.1,194.9,99,195.1,99z M197.1,122.4l0.4,0.3l-0.4,0.4l-0.4-0.3L197.1,122.4z
				 M197.4,108.6l0.3-0.1l0.4,0.3l0.4,0.7h-0.3L197.4,108.6z M198.5,120.7h0.4l0.3,0.4v0.4h-0.1c-0.2,0-0.4-0.1-0.7-0.4L198.5,120.7
				z M199.5,122l0.4,1l-0.6-0.1l-0.1-0.4C199.2,122.3,199.3,122.2,199.5,122z M199.2,94.5l-0.8-1.3v-0.1c0.3,0.1,0.6,0.1,0.8-0.1
				c0.3-0.1,0.6-0.2,0.8-0.2h0.4l0.3,0.6l-0.3,1.3l-0.1,0.4H200L199.2,94.5z M200.3,96.7c0.3,0,0.6,0.2,1,0.6l0.3,0.6l-0.4,0.1h-0.4
				l-0.6-0.7L200.3,96.7z M201.3,82.7l-0.4-1.8c0.3-0.3,0.6-0.4,1-0.4h0.4l0.7,0.3l0.4,1.1l-1.5,1.1L201.3,82.7z M200.9,70.4
				l0.3-0.7l1,0.4l0.1,0.7l-0.7,0.3L200.9,70.4z M203.3,74.6l0.8-0.4l0.4,0.4l-0.7,0.8h-0.4l-0.4-0.4L203.3,74.6z M203,56.3
				c0-0.1,0-0.1,0.1-0.1c0.1,0,0.1,0,0.1,0.1c0,0.1,0,0.1-0.1,0.1C203.1,56.5,203,56.4,203,56.3z M203.6,69.6l0.7-0.6l0.3,0.1
				l-0.1,0.6h-0.3C203.8,69.7,203.7,69.7,203.6,69.6z M204.1,79.4c-0.1,0.1-0.4,0.3-0.8,0.6l-0.1-1l0.6-0.3L204.1,79.4z M203.1,85.1
				l-0.1,0.1l-0.3-0.1c0.1,0,0.2,0,0.3-0.1L203.1,85.1z M203.3,94.2l0.4,0.4l-0.7,0.4l-0.3-0.4L203.3,94.2z M203.8,102l-0.4,0.4
				c-0.3-0.3-0.4-0.7-0.4-1.1l0.3-0.3l0.4,0.1L203.8,102z M203.3,103.9c0.1,0,0.3,0.1,0.7,0.3l-0.6,0.8l-0.4-0.7L203.3,103.9z
				 M203.3,87.7l-0.1-1l0.7-0.1l0.3,0.3C204,87.5,203.8,87.7,203.3,87.7z M202.6,51.9l1.3,0.8c-0.3-0.4-0.4-0.8-0.4-1.4l0.8,0.1
				l0.3,1l-1.3,1.8l-0.6,0.1c-0.1,0-0.1-0.1-0.1-0.4c0-0.3,0-0.5,0-0.7c-0.4-0.4-0.6-0.7-0.7-1L202.6,51.9z M200.9,54.8v0.1h-0.1
				C200.8,54.8,200.8,54.8,200.9,54.8z M201.2,63.1c0.2,0.2,0.3,0.4,0.3,0.6c-0.1,0.1-0.2,0.1-0.3,0.1c-0.1,0-0.2-0.1-0.4-0.3
				L201.2,63.1z M200.5,89.4L201,90l-0.7,0.6l-0.3-0.1l-0.3-0.4l0.3-0.4L200.5,89.4z M199.6,57.2c0.1,0,0.1,0,0.1,0.1
				c0,0.1,0,0.1-0.1,0.1c-0.1,0-0.1,0-0.1-0.1C199.5,57.2,199.5,57.2,199.6,57.2z M199.2,68.3c0.2,0.1,0.3,0.4,0.3,0.8l-0.7-0.3
				L199.2,68.3z M198.8,74.1v0.3l-0.1,0.1c-0.1,0-0.2,0-0.2-0.1c0,0-0.1-0.1-0.2-0.1l0.3-0.3H198.8z M198.4,65.1v1l-0.8,0.1
				l-1.1-0.3l0.4-1h1L198.4,65.1z M196,51.5l0.8,0.1v0.3c0,0.4-0.2,0.6-0.6,0.6l-0.6-0.6L196,51.5z M196.2,63.2
				c0,0.4-0.2,0.6-0.6,0.7c-0.4,0.1-0.7,0.2-0.8,0.3c-0.1-0.1-0.2-0.2-0.4-0.4c-0.2-0.1-0.3-0.3-0.3-0.5c0-0.2,0.2-0.3,0.7-0.4
				c0.5,0,0.8-0.1,0.8-0.1L196.2,63.2z M195.3,58l-0.8-0.7c0.2-0.2,0.3-0.3,0.4-0.3c0.3,0,0.5,0.1,0.7,0.3L195.3,58z M193.8,51.1h1
				l0.3,0.3v0.4l-0.6,0.4c-0.5-0.2-0.7-0.5-0.7-1V51.1z M192.4,52.1l0.1,0.1c0,0.1,0,0.2-0.1,0.3l-0.1-0.1L192.4,52.1z M191,47.9
				l0.6,0.1v0.6h-0.4l-0.3-0.4L191,47.9z M190.3,59.4l1-0.6l0.6-1l1.3,0.4l0.4,0.4l0.4,1.1c-0.5,0-1.2-0.1-2.1-0.3l-1,1.1h-0.4
				l-0.6-0.7L190.3,59.4z M189.5,65.8l0.8,0.4l-0.3,0.7l-0.6,0.1l-0.4-0.6L189.5,65.8z M189.5,71.5l1.1,0.3l0.1,0.4
				c0,0.4-0.2,0.6-0.6,0.6l-1.1-0.4L189.5,71.5z M189.8,84.8v0.3c0,0.3-0.1,0.5-0.4,0.6l-0.3-0.6L189.8,84.8z M188.4,94.4
				c-0.1-0.1-0.1-0.2-0.1-0.4v-0.1h0.3c0.1,0.1,0.1,0.2,0.1,0.3L188.4,94.4z M188.9,92.2l0.1-0.1c0.3,0.2,0.4,0.4,0.4,0.7h-0.7
				L188.9,92.2z M189.3,109.9l0.8-0.7l0.8,0.4c-0.1,0.2-0.2,0.4-0.4,0.6c-0.1,0.2-0.3,0.4-0.5,0.6h-0.7l-0.3-0.3L189.3,109.9z
				 M189.6,120l-0.3-0.4h0.4l0.1,0.4H189.6z M190.9,112.1l0.3,0.4l-0.1,0.6l-0.8-0.4L190.9,112.1z M191.2,137.3l-0.7-0.3v-0.7
				l0.6-0.3l0.8,0.8L191.2,137.3z M192.7,135.6l0.3-1h1l-0.4,1H192.7z M194,138.6v-0.3h0.1v0.1c0.1,0,0.1,0,0.1,0.1H194z
				 M195.3,123.5l-0.3,1l-0.8-0.7l-0.3-0.6c0-0.1,0.1-0.3,0.4-0.6c0.2-0.3,0.4-0.5,0.5-0.6l0.7-0.4l-0.3,1.5L195.3,123.5z
				 M195.5,128.3l0.6-0.4l0.6,0.4l-0.1,0.4C196.1,128.7,195.8,128.6,195.5,128.3z M197.9,138.7l-0.7,0.1c-0.2-0.5-0.3-0.9-0.4-1.3
				c0-0.4-0.1-0.9-0.2-1.3l0.6-0.4c0.2,0,0.4,0.2,0.6,0.6c0.2,0.6,0.3,1,0.3,1.3L197.9,138.7z M201.3,135.4h-0.8
				c-0.2,0-0.5-0.1-0.8-0.3l-1.4-1.1l0.6-0.7h0.1l0.7,0.7c0.4,0,0.8,0,1.1,0.1c0.4,0,0.7,0.2,1,0.4l0.1,0.4L201.3,135.4z M201,105.1
				l-0.3-0.8h0.7l0.3,0.6l-0.1,0.4L201,105.1z M201.6,121v0.1c0,0.3-0.1,0.4-0.4,0.4l-0.4-0.3c0.1-0.2,0.3-0.3,0.6-0.3H201.6z
				 M201.2,106.2v0.6H201c-0.1,0-0.2-0.1-0.4-0.3C200.8,106.3,201,106.2,201.2,106.2z M201.7,102.7h-0.6l-0.6-0.8
				c-0.2-0.2-0.4-0.3-0.7-0.4c-0.3,0-0.4-0.2-0.4-0.4l0.6-0.8h0.3l0.4,0.1l0.8,0.8v0.1l0.4,0.7L201.7,102.7z M203.1,112.7l-0.8-0.7
				l0.1-0.4l1-0.1l0.3,0.4l-0.3,0.7L203.1,112.7z M204.8,141.4h-0.6l-0.7-1.1l0.4-0.7h0.6l0.6,0.8L204.8,141.4z M205.3,137.9h-0.4
				l-0.4-0.4l0.7-0.8l0.3,0.1l0.3,0.6L205.3,137.9z M205.7,136.1l-1.1-0.3l-0.1-0.6c0.1-0.2,0.2-0.4,0.2-0.7c0-0.3,0.2-0.5,0.4-0.7
				l0.8,1.1l0.1,0.8L205.7,136.1z M206.1,128.4h0.8l0.6,1.1l-0.1,0.1l-1.3-0.6V128.4z M207.8,135.6c-0.1-0.2-0.2-0.3-0.3-0.4
				c-0.1-0.1-0.1-0.2-0.1-0.4l0.6-0.1c0.3,0.2,0.4,0.5,0.4,0.8L207.8,135.6z M210.2,130.3l0.1,0.3l-0.1,0.1l-0.1-0.1L210.2,130.3z
				 M209.6,133.4l0.6,0.3l-0.1,0.3c-0.3,0-0.4-0.1-0.4-0.4V133.4z M208.9,130.1h-0.3l0.1-0.1L208.9,130.1z M208.8,93.4l-0.4-0.1
				v-0.8l0.6-1.1l0.8,0.6l-0.3,0.8L208.8,93.4z M209.6,87.5h0.4v0.3l-0.1,0.3C209.7,87.8,209.6,87.6,209.6,87.5z M214.4,95.9
				l0.7-0.4l0.6,0.6l0.1,0.6l-1,0.4l-0.4-0.7V95.9z M213.4,87.7c0.3,0,0.5,0.2,0.7,0.6c-0.2,0.3-0.4,0.4-0.7,0.4h-0.1
				C213.3,88.3,213.3,87.9,213.4,87.7z M212.7,94.4l0.4-0.1l0.1,0.4l-0.1,0.6h-0.3c0-0.1,0-0.2-0.1-0.2c0,0-0.1-0.1-0.1-0.2V94.4z
				 M212.4,95.9l-0.1,0.6l-0.7-0.3l-0.3-0.7l-1.5,0.3v-1.8l0.7-0.3c0.2,0.2,0.4,0.5,0.6,0.9c0.2,0.4,0.4,0.7,0.6,0.9L212.4,95.9z
				 M212,92.1v0.1l-0.8,0.6l-0.8-0.7l0.1-0.6l1.1,0.1L212,92.1z M209.6,83.2c0.4-0.1,0.7-0.3,0.8-0.4c-0.1,0.1-0.1,0.2,0.1,0.3
				c0.1,0.1,0.2,0.2,0.2,0.3c0,0.2-0.3,0.4-0.8,0.7c-0.6,0.3-0.9,0.5-1.1,0.6v-0.8C209,83.5,209.2,83.3,209.6,83.2z M209.5,48.4
				c-0.1,0-0.2,0-0.3-0.1l0.3-0.4l0.3,0.4C209.7,48.4,209.6,48.4,209.5,48.4z M214.8,48.1c0-0.2,0.1-0.3,0.3-0.3
				c0.1,0.1,0.2,0.1,0.3,0.1l-0.6,0.6C214.8,48.5,214.8,48.3,214.8,48.1z M211.3,58.6l-0.4-0.3c0.2-0.2,0.4-0.3,0.6-0.3h0.1
				C211.6,58.2,211.5,58.4,211.3,58.6z M210.9,56.7c0.2-0.2,0.3-0.3,0.4-0.3v0.1l-0.3,0.1H210.9z M211.5,50.7
				c-0.3-0.1-0.4-0.3-0.4-0.7c0.3,0,0.5,0.1,0.7,0.4L211.5,50.7z M212.3,49.6v-1l0.7-0.3l0.4-0.4v0.7c0.3,0.1,0.7,0.1,1.3,0.1
				l0.1,0.7c0,0.3-0.2,0.6-0.6,1h-0.7C213,50.2,212.6,49.9,212.3,49.6z M216,56.7l-0.4,0.4l-0.7-0.1l-0.4,0.4h-1
				c-0.3-0.1-0.4-0.3-0.4-0.7l0.6-0.7h0.8l0.7-1l0.7,0.1l0.3,0.8L216,56.7z M220.9,50.5l0.6-0.4l0.3,0.6L220.9,50.5z M223,56.9
				c0,0.6-0.2,0.8-0.7,0.8v-0.1l-0.1-1.1l0.3-0.4l0.6,0.4V56.9z M223.1,47.2h-0.3l-0.3-0.3l0.4-0.6l0.3,0.4L223.1,47.2z M224.4,57.6
				H224l0.1-0.3l0.3-0.1V57.6z M226.7,49.6c-0.4,0-0.7,0-0.8-0.1V49l1-0.1L226.7,49.6z M231.2,51.4c-0.2,0-0.4-0.1-0.6-0.3l0.3-0.3
				c0.2,0.2,0.3,0.3,0.3,0.4V51.4z M233.9,50.4l-0.7,0.1c-0.2,0-0.4-0.1-0.7-0.4l0.7-0.6l0.7,0.4V50.4z M237.8,55.8l-0.3,0.1H237
				l-0.1-0.6l0.6-0.4l0.4,0.1V55.8z M238.1,51.8h-0.7l-0.4-1.1l0.8-0.1l0.7,0.8L238.1,51.8z M239.6,48.4c-0.2,0.2-0.4,0.4-0.6,0.6
				h-1.3l-0.3-1.7l1,0.6l1-1.1l0.6,0.1l0.3,0.7C240,47.9,239.8,48.1,239.6,48.4z"/>
			<path class="st0" d="M305.3,72.7c0.1-0.3,0.2-1.6,0.2-4.1c0-2.4,0.1-5.2,0.1-8.4c0-3.1,0-6.3-0.1-9.6c0-3.2-0.1-5.8-0.1-7.5
				c-0.5-1-0.9-1.8-1.2-2.3c-0.3-0.5-1.1-0.8-2.2-0.8h-40.2c-0.8,0-1.5,0.4-2.1,1.1c-0.7,0.8-1,1.5-1,2.3v16.2
				c0.2,0.4,0.4,0.8,0.5,1.2c0.1,0.4,0.4,0.8,0.6,1.1l1.4,0.8c3.3,0.5,6,0.7,8.2,0.6c2.2,0,3.9-0.1,5.3-0.2c1.4-0.1,2.4,0,3.1,0.1
				c0.7,0.2,1.2,0.8,1.5,1.7c0.3,0.9,0.4,2.4,0.4,4.4c0,2,0,4.6,0,8c0,1.6,0,3.3,0.1,5.2c0.1,1.9,0.2,3.8,0.2,5.6
				c0,1.9,0.1,3.7,0.1,5.6c0,1.8-0.1,3.5-0.4,5c-0.4,2.3-0.5,4.8-0.3,7.7c0.2,2.9,0.1,5.7-0.2,8.2c-0.3,2.6-1.3,4.7-2.8,6.5
				c-1.5,1.7-4.3,2.6-8.1,2.6c-1.1,0-2.2-0.1-3.3-0.4c-1.1-0.2-2.1-0.4-3.2-0.6l-2,0.4l-1.1,1.1c-0.6,2.8-1.1,5.7-1.7,8.5
				c-0.6,2.9-0.9,5.8-1.1,8.7l0.3,1c0.7,0.8,1.7,1.4,3.2,1.8c1.5,0.5,3,0.8,4.6,1.1c1.6,0.3,3.3,0.5,4.9,0.6
				c1.6,0.1,2.9,0.1,3.9,0.1c4.2,0,8.3-0.6,12.3-1.9c3.9-1.3,7.4-3.1,10.4-5.6c3-2.4,5.4-5.4,7.2-9c1.8-3.6,2.7-7.7,2.7-12.3
				c0-1.4,0-3.4,0.1-5.8c0-2.5,0.1-5.2,0.2-8.2c0.1-3,0.2-6.1,0.2-9.3c0-3.2,0.1-6.2,0.1-9.1c0-2.9,0-5.4-0.1-7.5
				C305.7,75.3,305.6,73.7,305.3,72.7z M268.5,55.3h-0.4c-0.2,0-0.3-0.2-0.3-0.6v-0.3h0.1c0.3,0,0.5,0.1,0.7,0.4L268.5,55.3z
				 M269.9,49.3h-0.4l-0.6-0.6v-1.5l0.6-0.8c0.2,0.2,0.3,0.4,0.4,0.8c0.1,0.3,0.2,0.6,0.3,0.9L269.9,49.3z M275.8,48.1
				c-0.2,0.2-0.4,0.3-0.6,0.3c-0.3,0-0.5,0-0.6-0.1v-1.1l0.6-0.1l0.6,0.4V48.1z M278.1,51.2c-0.3-0.3-0.4-0.5-0.4-0.6
				c0-0.1,0-0.1,0.1-0.1c0,0,0.1,0,0.1-0.1c0.2,0,0.3,0.1,0.3,0.4V51.2z M265.1,135.4l-1,0.7l-0.7-0.1v-0.7l0.7-0.7h0.6l0.4,0.4
				V135.4z M265.3,130l-0.6-0.6l0.6-1l0.6,0.8L265.3,130z M266.5,132.8l-0.6-0.1V132h0.1c0.1,0,0.3,0.1,0.6,0.4L266.5,132.8z
				 M269.6,131.8l-0.7-0.8l0.1-0.8c0.8-0.2,1.3-0.5,1.7-0.8l0.6-0.1l-0.7,1.7v1l-0.1,0.1L269.6,131.8z M271,138l-0.4-0.6
				c0-0.5,0.2-0.8,0.7-1c0.3,0.2,0.4,0.4,0.4,0.7L271,138z M274.6,132.5c-0.2,0-0.3,0-0.4-0.1c0.2-0.2,0.4-0.3,0.6-0.3
				c0.1,0.1,0.2,0.1,0.3,0.1C274.8,132.4,274.7,132.5,274.6,132.5z M277.5,133.8c-0.2,0-0.3-0.1-0.3-0.3l0.1-0.3l0.3,0.3
				L277.5,133.8z M300.1,66.3c0,0.2-0.1,0.3-0.3,0.3c-0.1,0-0.3-0.1-0.6-0.4l0.6-0.3L300.1,66.3z M298.2,53.2l0.3-0.3l0.7,0.6
				l-0.4,0.7h-0.3l-0.6-0.1L298.2,53.2z M298.7,98l-0.1,0.7l-0.4,0.4h-0.7l-0.3-0.4l1.1-1.1L298.7,98z M297.8,90.4
				c0,0.1-0.1,0.2-0.3,0.4l-0.3-0.3h-0.1l0.4-0.6C297.7,90.2,297.8,90.3,297.8,90.4z M297.3,85.6l0.1,0.3c-0.2,0-0.3,0-0.4-0.1
				C297.1,85.8,297.2,85.7,297.3,85.6z M297.1,106.5l0.3,0.3l-0.4,0.1l-0.3-0.3c0.1,0,0.2,0,0.2-0.1
				C296.9,106.5,297,106.5,297.1,106.5z M296.8,71.1h-0.4l-1.1-0.8l-0.3-0.6l1.5,0.4L296.8,71.1z M295.3,85.9l-0.6-0.3
				c0.2-0.2,0.4-0.3,0.7-0.3c0.2,0,0.3,0,0.4,0.1L295.3,85.9z M295.7,109.3h-0.1c-0.3,0-0.4-0.1-0.4-0.4h0.4L295.7,109.3z
				 M295.1,54.3l-0.4,0.3l-0.3-0.6C294.8,54.1,295,54.2,295.1,54.3z M293.9,48.9l0.4-0.1v0.6c-0.2,0.2-0.3,0.3-0.4,0.3l-0.1-0.1
				L293.9,48.9z M294,60.8c0.7,0.2,1,0.5,1.1,0.8l-0.6,0.6l-0.8-0.4L294,60.8z M293.6,63.5v0.6l-1.1,0.1l-0.3-0.6l0.1-0.4l0.7-0.4
				L293.6,63.5z M289.9,112.7l0.1,0.3v0.7l-0.7,0.3l-0.4-0.4l-0.1-0.4l0.3-0.4H289.9z M289.2,66h-0.1c0-0.1,0-0.1,0.1-0.1h0.1
				C289.4,66,289.3,66,289.2,66z M289.4,107l0.1-0.6l0.4-0.3c0.4,0.2,0.6,0.5,0.6,0.8v0.1l-0.4,0.1
				C289.8,107.3,289.5,107.2,289.4,107z M290.3,98.2l-0.4-0.1l0.8-1.1c0,0.1,0,0.2,0.1,0.2c0,0,0.1,0.1,0.1,0.2
				C290.9,97.7,290.7,98,290.3,98.2z M289.9,80.5l0.1-0.1h0.4l-0.3,0.3h-0.1L289.9,80.5z M291.1,120l0.3-0.3h0.6v1.3l-0.3,0.3
				l-0.7-0.1l-0.1-0.4L291.1,120z M291.6,106.3c-0.1,0-0.1,0-0.1-0.1c0-0.2,0.1-0.3,0.3-0.3l0.1,0.3L291.6,106.3z M291.3,82.5v-0.1
				c0-0.3,0.1-0.5,0.3-0.7h0.6l-0.1,1.3L291.3,82.5z M292,76.2c0-0.2,0.1-0.3,0.4-0.3c0,0.1,0,0.1,0.1,0.1c0,0,0.1,0,0.1,0.1
				c0,0.1-0.1,0.2-0.3,0.4L292,76.2z M292.5,81.5c0-0.1,0.1-0.3,0.4-0.6l0.4,0.3l-0.1,0.4h-0.7V81.5z M292.2,52.4
				c0.2,0.1,0.3,0.3,0.3,0.6v0.1h-0.6C291.9,52.7,292,52.5,292.2,52.4z M291.1,49.4l0.6,0.7l-0.4,0.4l-0.6-0.7L291.1,49.4z
				 M290.6,63.5l-0.8,0.4l-0.6-0.3l0.6-0.7l0.4-0.1L290.6,63.5z M289.9,54.9v0.3c0,0.2-0.1,0.3-0.3,0.3l-0.3-0.3
				C289.5,55,289.7,54.9,289.9,54.9z M288.5,59h1.1l0.1,0.3v0.6l-1,0.3l-0.3-0.3V59z M287.8,76.2l-0.4,0.4l-0.6-0.4l0.4-0.8
				C287.6,75.4,287.8,75.7,287.8,76.2z M287,71.7V71c0.2,0,0.4,0.1,0.6,0.4C287.3,71.6,287.2,71.7,287,71.7z M287.4,66.5v0.4h-0.1
				c-0.4,0-0.6-0.2-0.6-0.6l0.6-0.3c0,0.1,0,0.2,0.1,0.2C287.4,66.3,287.4,66.4,287.4,66.5z M287,61.2l0.3,0.1c0,0.6-0.1,1-0.3,1.3
				c-0.2-0.1-0.3-0.2-0.4-0.4c0-0.2-0.1-0.4-0.1-0.6L287,61.2z M282.2,55.2c0.3,0.2,0.4,0.6,0.4,1.3v0.3l-0.8-0.1L282.2,55.2z
				 M283.2,127.3h-0.6l-0.1-1.3l1.1-0.3l0.3,0.8L283.2,127.3z M284.3,46c0.2,0,0.3,0.1,0.3,0.4l-0.4,0.4l-0.3-0.6
				C284.1,46.1,284.2,46,284.3,46z M284.9,50.8l-0.4,0.3c-0.1-0.1-0.1-0.2-0.1-0.3c0-0.1,0-0.2,0.1-0.3L284.9,50.8z M284.4,132.1
				l-0.3-0.1l0.3-0.6l0.1,0.4C284.6,131.9,284.5,132,284.4,132.1z M284.7,128.7l-0.3-0.6l0.4-0.4l0.4,0.4L284.7,128.7z M286,126.1
				c0,0.3-0.1,0.5-0.3,0.6l-0.3-0.4c0.2-0.2,0.4-0.3,0.6-0.3V126.1z M285.8,73.4l0.8-1.3l0.3,0.6l-0.7,0.8l-0.3,0.1L285.8,73.4z
				 M286.7,87.9l-0.4-0.3l0.3-0.6l0.4-0.1l0.1,0.8L286.7,87.9z M287.8,135.6c0,0.4-0.1,0.6-0.3,0.6c-0.1-0.1-0.1-0.3-0.1-0.6
				c0-0.2,0-0.3,0.1-0.4h0.3V135.6z M287.5,82l-0.4-0.7c0.2-0.2,0.5-0.3,1-0.3l0.1,0.8L287.5,82z M288.5,74.6c0-0.4,0.1-0.7,0.4-0.8
				c0.2,0.1,0.3,0.3,0.3,0.7v0.3l-0.3,0.3l-0.4-0.3V74.6z M288.8,122l0.1-0.4l1.4,0.1v0.8l-0.1,0.1l-1-0.3L288.8,122z M290.2,130.1
				v-1.7l0.7-0.7l1.1,0.3l0.3,0.4v0.6l-1.8,1.3L290.2,130.1z M292.3,131.5l-0.6-0.1l-0.1-0.1c0-0.3,0.1-0.4,0.4-0.4l0.4,0.4
				L292.3,131.5z M292.5,125.6c-0.3,0.3-0.6,0.4-0.8,0.4c-0.4,0-0.6-0.1-0.7-0.4l0.6-1h0.7l0.3,0.4V125.6z M292.3,97.9
				c-0.1-0.1-0.1-0.2-0.1-0.4c0-0.1,0-0.2,0.1-0.3h0.6C292.9,97.6,292.7,97.9,292.3,97.9z M292.6,93.4v-0.1l0.4-0.6h0.7l0.3,1.5
				c-0.1,0.4-0.1,0.8,0.1,1.3c0.1,0.5,0,0.8-0.4,0.8l-0.6-0.1c-0.1-0.5-0.2-0.9-0.2-1.4C292.9,94.3,292.8,93.8,292.6,93.4z
				 M295.2,112.9c-0.3,0.1-0.6,0.3-0.9,0.5l-1.1,0.1l0.6-1.7l1.4-0.4l0.6,0.1l0.4,0.6v0.3C295.8,112.6,295.5,112.7,295.2,112.9z
				 M297.4,118.9l-0.7,0.4l-0.6-0.4l0.4-0.7l0.8,0.3V118.9z M297.8,109l-0.4-0.1l0.3-0.7l0.4,0.1v0.1
				C298.1,108.7,298,108.9,297.8,109z M299.1,115.8l-1-1.1l0.1-0.7h0.7l0.4,0.6l0.1,0.7L299.1,115.8z M299.5,107.5l-0.4-0.7l0.4-0.3
				l0.4,0.4L299.5,107.5z M300.7,81.3c-0.1,0.2-0.3,0.4-0.5,0.6l-0.3,0.1l-0.3-0.3v-2.1l0.8,0.3l0.4,0.6
				C300.9,80.8,300.8,81.1,300.7,81.3z"/>
			<path class="st0" d="M394.6,74.1c-1.5-6.2-3.9-11.8-7-16.8c-3.2-5-7.3-9.1-12.4-12.3c-5.1-3.1-11.1-4.7-18.2-4.7
				c-3.2,0-6.4,0.3-9.5,1c-3.1,0.7-6.1,1.6-8.9,3c-2.8,1.3-5.4,3-7.8,5.1c-2.4,2.1-4.4,4.6-6,7.5c-0.8,1.3-1.5,2.8-2.2,4.5
				c-0.7,1.7-1.5,3.1-2.3,4.1v0.1c-1.7,5.4-2.9,10.6-3.7,15.5c-0.8,4.9-1.1,10.2-1.1,16.1c0,6,0.9,12,2.7,17.8
				c1.8,5.9,4.5,11.1,8,15.8c3.5,4.6,7.8,8.4,13,11.3c5.1,2.9,11,4.4,17.5,4.4c7.5,0,13.8-1.6,18.9-4.9c5.1-3.2,9.2-7.4,12.4-12.6
				c3.1-5.2,5.4-10.9,6.8-17.3c1.4-6.4,2-12.8,2-19.2C396.9,86.4,396.1,80.3,394.6,74.1z M321.9,101.5c-0.3,0-0.4-0.1-0.4-0.4h0.1
				c0.2,0,0.3,0.1,0.3,0.3V101.5z M388,83.1l0.6,0.3l-0.3,1l-0.8,1h-0.6v-1.1l0.4-0.8L388,83.1z M385.9,69.6c0-0.3,0-0.5,0.1-0.6
				c0.2,0,0.3,0.1,0.3,0.3c0,0.1-0.1,0.3-0.4,0.6V69.6z M385.4,70.7l0.6-0.4c0.5,0.3,0.8,0.7,1.1,1.1l-1.7,0.1V70.7z M386.6,77.7
				l-0.4,0.3l-0.1-0.6l0.4-0.3L386.6,77.7z M385.7,99.4c0,0.4-0.1,0.6-0.4,0.6c-0.1-0.1-0.1-0.3-0.1-0.6H385.7z M382.2,81.1l0.4,0.6
				l-0.3,0.4c-0.2-0.1-0.4-0.2-0.6-0.3c-0.2-0.1-0.3-0.2-0.3-0.4l0.3-0.4L382.2,81.1z M382.1,85.2h-1l-0.4-0.4l0.8-0.6h1.1v0.6
				L382.1,85.2z M382.5,90.6v0.1c0,0.1-0.1,0.3-0.4,0.6l-0.3-0.4L382.5,90.6z M381.5,73.9l0.3,1.1l-0.8,0.6h-0.4l-0.6-1.8l1.1-0.4
				L381.5,73.9z M380.5,59.3v0.3l-0.1-0.1L380.5,59.3z M379.7,61.4l0.7-0.3l0.3,1.1l-0.6,0.1h-0.3l-0.3-0.7L379.7,61.4z M379.9,76.5
				c0.2,0,0.3,0.1,0.3,0.3V77c-0.2,0-0.3-0.1-0.4-0.2c-0.1-0.1-0.2-0.2-0.4-0.2L379.9,76.5z M380.5,96.9l-0.1,0.4l-0.7-0.1l-0.1-0.1
				l0.7-1L380.5,96.9z M379.5,83.6l-0.3,0.4h-0.6l-0.4-0.3l0.3-0.6l0.6-0.1L379.5,83.6z M378.1,103.4c-0.1-0.1-0.1-0.2-0.1-0.4
				c0-0.2,0-0.3,0.1-0.4h0.3l0.6,0.6l-0.4,0.3H378.1z M378.5,108.6v0.1h-0.1C378.4,108.6,378.4,108.6,378.5,108.6z M378.7,94.4
				c0.2-0.2,0.3-0.3,0.4-0.3v0.4C378.9,94.5,378.8,94.4,378.7,94.4z M376.3,69.3l0.3,0.4l-0.3,0.4l-0.4-0.4L376.3,69.3z M372.3,58.6
				c-0.2,0-0.4-0.2-0.6-0.6C372.1,58,372.3,58.2,372.3,58.6z M370.8,57.2c0.1,0,0.1,0,0.1,0.1c0,0.1,0,0.1-0.1,0.1
				c-0.1,0-0.1,0-0.1-0.1C370.6,57.2,370.7,57.2,370.8,57.2z M368.3,52.2v0.1h-0.1c-0.1,0-0.1,0-0.1-0.1H368.3z M367.5,55v0.3
				c0,0.3-0.1,0.4-0.3,0.4v-0.3C367.3,55.3,367.4,55.1,367.5,55z M365.6,50.7l1.1-0.7l0.6,0.4v0.8l-1.1,0.4l-0.6-0.4V50.7z
				 M364.9,49.6l0.3-0.3v0.4h-0.3V49.6z M365,57.7l1.3,0.7c-0.2,0.1-0.3,0.2-0.4,0.3c-0.1,0.1-0.2,0.1-0.4,0.1l-0.6-0.1l-0.3-0.7
				L365,57.7z M362.3,52.9l0.7-0.1l0.1,1l-0.7,0.1l-0.4-0.7L362.3,52.9z M363.6,57.7c-0.2,0.4-0.5,0.6-0.8,0.6c-0.3,0-0.5,0-0.6-0.1
				V58c0-0.4,0.3-0.7,0.8-0.8L363.6,57.7z M359.8,49.7h0.7l0.4,0.4l-0.6,0.6c-0.4-0.2-0.7-0.3-0.8-0.3L359.8,49.7z M356,47.7
				l0.6-0.3h1l0.3,0.4l-0.4,0.4l-0.8,0.3l-0.6-0.1V47.7z M354,56.9l0.6,0.3v0.4l-0.1,0.7l-0.6,0.3l-0.3-0.1l-0.3-0.6L354,56.9z
				 M351.6,51.9l0.3,0.6l-0.3,0.4l-0.7-0.3C350.9,52.5,351.2,52.2,351.6,51.9z M350.8,54.3l0.6,1h-0.1c-0.4-0.4-0.7-0.6-0.8-0.7
				l-0.1-0.3H350.8z M349.1,47.4c0.1,0,0.3,0.1,0.6,0.4l-0.4,0.3l-0.3-0.7H349.1z M345,55c0.8,0.1,1.2,0.3,1.4,0.5v0.7l-0.3,0.4
				h-0.3c-0.2-0.2-0.4-0.4-0.8-0.6c-0.3-0.2-0.6-0.4-0.9-0.5l-0.6-0.8C343.8,54.7,344.3,54.8,345,55z M342.9,50.7l0.3-0.3v0.4
				l-0.3,0.3h-0.1L342.9,50.7z M342.2,54.9c0.2,0.2,0.3,0.4,0.3,0.7v0.3l-1,0.6l-0.3-0.4C341.6,55.5,341.9,55.1,342.2,54.9z
				 M338.9,62.9v0.1c-0.1,0-0.1,0-0.1-0.1H338.9z M333.2,76.9h0.4l0.1,0.6l-0.1,0.4l-0.6-0.1L333.2,76.9z M332.3,74.3h-0.8
				c-0.1-0.2-0.1-0.4,0-0.7c0.1-0.3,0.2-0.5,0.3-0.7l1.3,0.3L332.3,74.3z M331.6,61.7c0.7,0,1.3,0.2,2,0.7c0,0.2,0,0.3-0.1,0.4
				c0,0.1-0.1,0.2-0.1,0.3l-0.7,0.3l-1.4-0.7l-0.3-0.6L331.6,61.7z M330.9,75.1l0.8,1l-0.4,0.4l-0.6-0.1l-0.7-1.3H330.9z
				 M331.2,99.6c0.2,0,0.4,0.1,0.6,0.3l-0.4,0.3c-0.1,0-0.1-0.1-0.1-0.3V99.6z M330.8,92.7c-0.2-0.2-0.3-0.3-0.3-0.4
				c0-0.2,0.1-0.3,0.2-0.4c0.1,0,0.3-0.1,0.4-0.2c0.1,0.1,0.1,0.2,0.1,0.4C331.2,92.2,331.1,92.4,330.8,92.7z M327.4,71.3v0.1
				c0,0.3-0.2,0.5-0.7,0.7C326.7,71.5,326.9,71.3,327.4,71.3z M324.9,97.3l0.3,0.3L325,98l-0.4-0.1l-0.3-0.3l0.1-0.3H324.9z
				 M323.2,90l0.4-0.1l0.6,0.3l-0.4,0.7h-0.4l-0.4-0.1L323.2,90z M323.5,92.3c0.1-0.1,0.3-0.2,0.5-0.2l0.3,0.3v0.6l-0.4,0.1
				l-0.7-0.4C323.3,92.6,323.4,92.5,323.5,92.3z M323.6,99.6l0.3-0.3l0.4,0.1v0.4l-0.4,0.3L323.6,99.6z M324.2,108.4l0.1-0.3
				c0.1,0,0.2,0.1,0.4,0.3H324.2z M325,103.9c-0.1,0-0.1,0-0.1-0.1v-0.1h0.4L325,103.9z M325.8,117.6l-0.1-0.3
				c0-0.3,0.1-0.4,0.3-0.4l0.4,0.3L325.8,117.6z M325.6,85.5c0-0.5,0.2-0.7,0.6-0.7l0.6,0.1C326.6,85.3,326.2,85.5,325.6,85.5z
				 M326.8,115.2h-0.1c0-0.1,0-0.1,0.1-0.1h0.1C327,115.2,326.9,115.2,326.8,115.2z M327,82.7l-0.3,0.1l-0.3-0.3V82h0.7L327,82.7z
				 M326.4,78l-0.4-0.3l-0.3-1l0.6-0.8v-0.4l0.4-0.8l1.3,0.8v0.8c-0.2,0.3-0.4,0.6-0.6,0.9C327.1,77.6,326.8,77.8,326.4,78z
				 M328.1,77.2l0.7,0.3l-0.6,0.7l-0.6-0.1v-0.4L328.1,77.2z M327.5,100.1c0.1-0.4,0.3-0.6,0.7-0.6
				C328.2,99.9,328,100.1,327.5,100.1z M327.3,85.1h1l0.7,0.7l-0.1,1.1l-0.6,0.1L327.3,85.1z M329.2,118.6l-0.1-0.1l0.1-0.3l0.1,0.1
				L329.2,118.6z M329.1,104.9l-0.3-0.7l0.6,0.1l0.1,0.1C329.5,104.8,329.4,104.9,329.1,104.9z M329.4,75.1l-0.7-0.1
				c0.2-0.3,0.4-0.5,0.7-0.7l0.4,0.7L329.4,75.1z M330.2,123.8c0,0.2,0,0.3-0.1,0.3h-0.1v-0.3c0-0.1,0-0.1,0.1-0.1h0.1V123.8z
				 M330.2,111.7l0.8-0.8l1.1,1.3l0.3,0.7l-0.3,0.3c-0.4,0-0.7-0.2-0.9-0.6C331,112,330.7,111.8,330.2,111.7z M331.8,118.6v0.1
				c-0.1,0-0.2-0.1-0.4-0.3h0.1L331.8,118.6z M332,123l-0.8-0.1c0.2-0.2,0.3-0.4,0.4-0.6c0.1-0.2,0.2-0.3,0.4-0.3
				c0.2,0,0.4,0.1,0.6,0.3L332,123z M332.8,104.8c-0.1,0-0.2,0-0.2-0.1c0,0-0.1-0.1-0.2-0.1c0.2-0.2,0.3-0.3,0.4-0.3
				c0.1,0,0.1,0,0.1,0.1c0,0,0,0.1,0.1,0.1L332.8,104.8z M333.5,88.9l-0.6-0.1v-0.8l0.3-0.1h0.3L334,88l-0.3,0.7L333.5,88.9z
				 M333.9,91.1h0.6l0.3,0.3l-0.3,0.3h-0.6V91.1z M334.4,120.8c0,0.2,0,0.3-0.1,0.3c0-0.1,0-0.1-0.1-0.1c0,0-0.1,0-0.1-0.1
				c0-0.2,0.1-0.3,0.3-0.3V120.8z M335.3,106.8h-0.4c-0.3-0.3-0.4-0.5-0.4-0.6c0-0.2,0.1-0.4,0.3-0.6h0.7l0.3,0.6L335.3,106.8z
				 M335.6,53.9v-0.6l0.4-0.1c0.1,0.2,0.2,0.3,0.3,0.4c0.1,0.1,0.1,0.2,0.1,0.4l-0.6,0.1L335.6,53.9z M336.6,67.6
				c0,0.2-0.1,0.3-0.3,0.3l-0.3-0.3l0.6-0.3c0.1-0.2,0.2-0.4,0.4-0.7c0.1-0.3,0.4-0.4,0.6-0.4c0.3,0,0.6,0.2,1,0.6v0.6l-0.3,0.3
				C337.1,67.4,336.6,67.4,336.6,67.6z M337.5,70.3l-0.1,0.7l-0.7-0.1C336.8,70.5,337.1,70.3,337.5,70.3z M338.5,133.7h-0.7
				l-0.1-0.1l-0.1-0.8l0.6-0.6l0.7,1L338.5,133.7z M338.5,119l-1.1-0.6l0.4-1l0.8,0.1l0.4,0.6C338.8,118.6,338.6,118.9,338.5,119z
				 M338.5,65.2v-0.1c0-0.4,0.1-0.7,0.4-0.8l0.6,0.3l-0.1,0.7H338.5z M339.9,128.9l-0.6-0.3v-0.1l0.1-0.6l0.8-0.3l0.3,0.3
				L339.9,128.9z M340.8,122.4h-0.4l-0.3-0.1l0.6-1.3h0.6l0.1,0.3C341.3,121.6,341.2,122,340.8,122.4z M343.7,124.6
				c-0.1,0-0.2-0.1-0.4-0.3c0.3-0.3,0.5-0.4,0.6-0.4c0.1,0,0.2,0.1,0.4,0.3C344,124.5,343.8,124.6,343.7,124.6z M347.5,138.7
				l-0.3,0.3h-0.1l-1.1-0.7l-0.3-0.6l0.3-0.3h1.1l0.4,0.7V138.7z M345.1,123.5c0.1-0.2,0.3-0.3,0.6-0.3h0.3l-0.1,0.6
				C345.6,123.8,345.3,123.7,345.1,123.5z M349.2,129.9h-0.1v-0.1c0-0.1,0.1-0.2,0.3-0.4c0.1,0,0.2,0.1,0.4,0.3
				C349.7,129.8,349.5,129.9,349.2,129.9z M354,137.9l-0.4-0.3l0.1-1.1l0.7,0.1l0.3,0.4C354.7,137.6,354.5,137.9,354,137.9z
				 M355.9,141l-0.3-0.3c0.1,0,0.2,0,0.3-0.1V141z M357.4,139l-0.7-0.6l0.7-0.4l0.4,0.8L357.4,139z M359.2,136.6
				c-0.6-0.2-1-0.4-1.3-0.7l-0.4-1l0.1-0.7h1.3l0.7,2L359.2,136.6z M363.2,138.9l-0.6,0.1l-0.4-0.3l0.6-0.8l0.7,0.7L363.2,138.9z
				 M363.2,131h-0.4l-0.7-0.7l-0.1-0.6v-1.3l0.1-0.3c0.2,0,0.3,0.2,0.4,0.6c0,0.4,0.1,0.7,0.1,0.8l1,0.7l0.1,0.6L363.2,131z
				 M365.7,134.4l-0.7,0.6l-0.7,0.1c0.2-0.2,0.4-0.4,0.5-0.8c0.1-0.3,0.3-0.6,0.5-0.8l0.6,0.1L365.7,134.4z M366.5,128
				c-0.1-0.3-0.3-0.6-0.4-0.8l0.3-1h0.1c0.4,0.3,0.7,0.7,1.1,1.1c0.3,0.5,0.6,0.9,0.8,1.4l-0.6,0.6l-0.8-0.4
				C366.8,128.6,366.6,128.3,366.5,128z M368.1,138.7h-0.6l-0.3-0.4c0-0.4,0.2-0.7,0.6-0.8h0.8l0.6,0.8
				C369,138.6,368.7,138.7,368.1,138.7z M369.7,123.5l-0.6-0.4c0.3-0.3,0.5-0.4,0.6-0.4c0.2,0,0.4,0.1,0.6,0.3L369.7,123.5z
				 M371.5,132.7l-0.4-0.3v-0.7l1-0.4l0.6,0.8L371.5,132.7z M372.1,101.6c-0.4,3.4-1.1,6.7-2.3,9.7c-1.1,3.1-2.7,5.6-4.9,7.7
				c-2.1,2.1-5,3.2-8.5,3.2c-3.7,0-6.4-0.8-8.2-2.4c-1.8-1.6-3.1-3.5-4.1-5.6c-0.9-2.2-1.6-4.3-2-6.5c-0.4-2.2-1.1-3.8-1.9-4.9
				c0.1-1.4,0-2.9-0.4-4.6c-0.3-1.6-0.5-3.2-0.5-4.7c0-4.3,0.4-8.7,1.2-13c0.8-4.4,2.6-8.3,5.3-11.9c0.9-0.6,1.7-1.1,2.3-1.6
				c0.6-0.5,1.2-1,1.9-1.3c0.7-0.4,1.4-0.7,2.3-0.9c0.8-0.2,1.9-0.4,3.2-0.4c3.6,0,6.5,0.9,8.7,2.8c2.2,1.9,3.9,4.2,5.2,7
				c1.3,2.8,2.1,5.9,2.5,9.2c0.4,3.3,0.6,6.3,0.6,9.2C372.6,95.2,372.4,98.2,372.1,101.6z M372.6,67.3h-0.4l-0.3-0.3l0.4-0.3
				c0.1,0,0.2,0.1,0.4,0.3L372.6,67.3z M375.9,125.1l-0.7-0.1v-0.7l0.4-0.3h0.7l0.3,0.6L375.9,125.1z M377,115.5h-0.8l-0.3-0.8
				l0.4-0.4h0.6c0.2,0,0.3,0.1,0.4,0.4c0,0.3,0.1,0.5,0.1,0.6L377,115.5z M377.3,63.8c0.1,0,0.3-0.1,0.6-0.4h0.7l0.1,0.1l-0.3,0.8
				l-0.7,0.3l-0.4-0.3V63.8z M377.7,67.7l0.3-0.1l0.3,0.3v0.3c0,0.4-0.1,0.7-0.3,0.8l-0.6-0.7L377.7,67.7z M378.8,127.6l-0.4,0.6
				h-0.7l1.1-0.7l0.4-1l0.7,0.8L378.8,127.6z M379.9,117.9l0.1-1l0.6-0.1l0.6,0.8l-0.4,0.6L379.9,117.9z M381.8,124.6l-0.4-0.3
				l-0.3-0.4l0.6-0.4h0.4c0.1,0.1,0.1,0.3,0.1,0.6C382.2,124.2,382.1,124.4,381.8,124.6z M381.1,113.2l-0.4-0.3
				c0.1-0.3,0.2-0.6,0.2-0.9c0-0.3,0.2-0.6,0.4-0.9l1.1,0.8C382,112.4,381.5,112.9,381.1,113.2z M382.5,107.5
				c-0.4-0.4-0.6-0.7-0.6-0.8v-0.4h0.7l0.3,1.3H382.5z M382.2,76l1-0.6l0.4,0.6v0.7l-0.6,0.1C382.7,76.7,382.4,76.4,382.2,76z
				 M383.9,114.4h-0.3v-0.1L383.9,114.4z M383.9,116.3l-0.7-0.4l0.6-0.6l0.6,0.6L383.9,116.3z M384.3,88.4h-0.1c0-0.1,0-0.1,0.1-0.1
				V88.4z M385.6,118.6H385l-0.3-0.6l0.3-0.4l0.8,0.4L385.6,118.6z M386.4,106.9l-0.7-0.1v-0.8l0.3-0.7l0.4-0.3l1.1,0.3l0.6,0.4
				L386.4,106.9z M388.4,112.8l-0.3-0.1l0.3-0.4l0.3,0.1C388.7,112.5,388.6,112.6,388.4,112.8z M388.8,79.3c0.1-0.4,0.3-0.6,0.6-0.6
				C389.4,79.1,389.2,79.3,388.8,79.3z M390.7,102.1l-0.3,0.3h-0.3l-0.6-0.4l-0.3-1l0.3-0.6h0.4l0.7,0.7V102.1z"/>
			<path class="st0" d="M94.9,49.1c0.1,0.8,0.1,1.6,0,2.4c-0.1,0.8-0.1,1.6-0.1,2.4c0,0.8,0.3,1.5,0.9,2c0.6,0.6,1.4,0.9,2.5,0.9
				c0,0,26.1-0.1,26.1,0.1l12.2-0.1c0.9,0,1.6-0.2,2.2-0.6c0.6-0.4,0.9-0.9,0.9-1.6V42.1c0-0.1,0-0.3-0.1-0.6
				c-0.1-0.2-0.2-0.4-0.3-0.6l-0.6-0.5l-1.7-0.5c-1.7-0.1-4-0.1-6.8,0.1c-2.8,0.1-5.7,0.2-8.6,0.3c-2.9,0.1-1.4-0.9-6.6-0.7
				c-5.1,0.2-10.1,0.3-14.8,0.3c-0.5,0-0.8,0.1-1.1,0.2c-0.2,0.1-0.6,0.1-1.1-0.1c-1.4,0.1-2.3,0.6-2.9,1.3
				c-0.2,0.4-0.3,0.8-0.3,1.2c0,1,0,2.1-0.1,3.2c0,1.1,0,2.2,0.1,3.2L94.9,49.1z M135.2,48.5c0.2,0,0.3,0.1,0.3,0.2l-0.3,0.3
				l-0.2-0.2L135.2,48.5L135.2,48.5z M134.1,46.2l0.4-0.3c0.1,0,0.2,0,0.2,0.1c0.1,0,0.1,0.1,0.2,0.1v0.3l-0.6,0.5l-0.3-0.3V46.2z
				 M133,47.2l0.3,0.4l-0.1,0.3l-0.2,0.2l-0.2-0.5L133,47.2z M132,46.8l0.2,0.4l-0.3,0.6l-0.5-0.4L132,46.8z M129.8,46.1v0.1h-0.1
				l-0.1-0.1H129.8z M127.5,50.6h-0.2c0-0.1,0-0.3,0-0.5c0-0.2,0.1-0.4,0.2-0.5l0.7-0.2l0.2,0.6L127.5,50.6z M127.6,44.5l0.2,0.4
				l-0.2,0.5c-0.2-0.1-0.3-0.3-0.3-0.4C127.2,44.9,127.4,44.8,127.6,44.5z M127.3,47c0.1-0.1,0.3-0.2,0.5-0.3
				c0.2-0.1,0.4-0.2,0.5-0.2l-0.1,0.3c0,0.1-0.1,0.2-0.2,0.4l-0.2,0.7h-0.3l-0.2-0.2L127.3,47z M124.1,46.2l0.4,0.2V47l-0.1,0.1
				h-0.3l-0.3-0.4L124.1,46.2z M122.9,48.6c0,0.1-0.1,0.3-0.2,0.4l-0.2-0.1C122.6,48.7,122.7,48.6,122.9,48.6z M121.7,52.5l0.2-0.1
				l0.6,0.9l-0.1,0.5H122l-0.6-0.6l-0.1-0.3L121.7,52.5z M120.3,45.4l0.2,0.4l-0.2,0.4l-0.2,0.1c-0.1,0-0.2-0.1-0.2-0.4
				C120,45.8,120.1,45.6,120.3,45.4z M120,47.1l0.3,0.4v0.4l-0.2,0.2l-0.3-0.1l-0.2-0.5L120,47.1z M117.2,48.5
				c0.1,0.1,0.1,0.2,0.1,0.3c0,0.2,0,0.4-0.1,0.4c-0.1-0.1-0.1-0.2-0.1-0.3C117.1,48.7,117.1,48.6,117.2,48.5z M110.1,52.2V52
				l0.3-0.2c0.2,0,0.2,0.1,0.2,0.4H110.1z M110.9,54.2c0-0.2,0-0.3,0.1-0.4c0.1,0.1,0.1,0.1,0.1,0.2C111.1,54.1,111,54.2,110.9,54.2
				z M110.3,46.6c0.3-0.1,0.6-0.2,0.9-0.4h0.3c-0.1,0.3-0.1,0.6-0.1,0.8c0,0.3,0,0.6,0,0.8l-0.2,0.2l-0.7-0.1l-0.2-0.2l-1-0.4
				l-0.1-0.4C109.7,46.8,110,46.7,110.3,46.6z M108.8,51.8h0.4v1.2l-0.4,0.5l-0.2-0.4l0.2-1.2L108.8,51.8z M107.5,47.4l0.6-0.5
				l0.5,0.4v1.2l-0.3,0.3l-0.6,0.1l-0.3-0.1L107.5,47.4z M107.9,50.6l0.1,0.4c0,0.3-0.1,0.5-0.2,0.5c-0.2,0.1-0.3,0.1-0.5,0.2
				c-0.1,0.1-0.2,0.2-0.4,0.3c-0.2,0.1-0.3,0.1-0.4,0.2l-0.1-0.5c0.2-0.1,0.4-0.3,0.6-0.5c0.2-0.2,0.3-0.4,0.5-0.7H107.9z M106,46.6
				c0.1-0.2,0.2-0.4,0.4-0.6c0.2-0.2,0.3-0.5,0.4-0.7l0.5,0.1v0.5c-0.1,0.1-0.2,0.2-0.2,0.3c-0.1,0.1-0.1,0.3-0.2,0.4v0.5l-0.4,0.3
				l-0.5-0.3V46.6z M106,48.9l0.5,0.2l0.2,0.3l-0.3,0.7l-1-0.7C105.7,49.2,105.9,49,106,48.9z M102.9,50.3h-0.2l-0.3-0.3l0.4-0.4
				l0.3,0.3L102.9,50.3z M101.8,46.4h0.6l0.3,0.6l-0.3,0.8l-0.2-0.1c-0.2-0.3-0.3-0.7-0.4-1L101.8,46.4z M100.4,47.9l0.2-0.2
				l0.1,0.3h-0.2V47.9z M98.8,45.7h0.3l0.1,0.4l-0.1,0.2H99c-0.1,0-0.2-0.1-0.4-0.3L98.8,45.7z"/>
		</g>
	</g>
</g>
</svg>
