<?xml version="1.0" encoding="utf-8"?>
<!-- Generator: Adobe Illustrator 27.9.0, SVG Export Plug-In . SVG Version: 6.00 Build 0)  -->
<svg version="1.1" id="Layer_1" xmlns="http://www.w3.org/2000/svg" xmlns:xlink="http://www.w3.org/1999/xlink" x="0px" y="0px"
	 viewBox="0 0 425.2 425.2" style="enable-background:new 0 0 425.2 425.2;" xml:space="preserve">
<style type="text/css">
	.st0{fill:#2E4623;}
	.st1{fill:#FFFFFF;}
</style>
<ellipse class="st0" cx="212.6" cy="212.6" rx="209.3" ry="209.8"/>
<path class="st1" d="M364.7,257.5c0-13.4-12.7,4.3-15.2-3.2c-4.1-4-1.1-19.2-8-14.7c-2.2,1.2,1.9,5.8-2.2,6.3
	c-3.1-0.9,0.2-5.8-2.6-7c-5.3-0.3-10.8,3.8-16,5.1c10-6.7,20.6-5.9,8.9-17.4c-0.9-2.2-1.9-2.1-3.3-0.6c-2.8,4.3-21.6,20.5-8.7,19.5
	c-3.5,2.7-10.2,3.5-11.8,7.7c6.8,2.1,5.9,8.5,14.3,7.5c7.4-1.4,8.5,8.2,14.5,7.4c-7.4,6.8-18,3.3-25.4,10.4
	c-7,7.3-13.7-5.8-21.4-1.5c-5.2-0.8-6.8,4.3-9.6,6.5c-6.2,3.1-11.4-1.5-18.2-0.1c-9.7,5.6,5.3,6.5,4.4,12.2c0.5,6,2.1,7.3,8,7.6
	c4.7-0.3,26.5,3.7,13.1-2.7c2.8-11.3,7.3,0.5,9.6-8.3c6.9-3.7,1.1,17.4,12.4,12.6c4.7-1.9-0.8-9.8,4.3-11.5c10.1-2.1,6.1,17.4,18-4
	c2.9-0.3,1.3,4,3.6,4.6c2.1,0.4,1.7-4.7,3.9-2c2.7,2.4,5.4-3.3,7.5-4.7c3.2-2.9-3.8-8.3,0.5-10.3c6.4,1.4,1.8,13,8,16.7
	c3.5,3.8,0.7,7.9-0.3,11.7c-4.2,3.2-12-9.2-16.1-4.1c-8.5,21.3-23.3-2.9-20.9,21.8c-3.6,8.8-8.5-4.1-11.4-7.2
	c-3.2-11.4-18.6-5.3-27.4-7.3c-19-0.7-43.8-9.2-58.6-3.8c-4.1-8.1-7.7-0.4-8.6,4.3c-1.3,7.1-0.9,14.4-0.9,21.6
	c0,8.8-2.6,17.4-1.7,26.3c0.9,9.3,3.3,18.5,3.1,28c-0.1,7.4,0.3,14.5,1.5,21.8c0.8,4.7,2.7,11.2-2.6,13.9c-1.3,0.7-2.8,0.9-4.3,1.1
	c-3.3,0.3-6.7,0.2-9.8-0.9c-1.6-0.6-3.3-1.5-3.7-3.1c-0.2-0.7-0.2-1.6-0.1-2.3c1.1-15.1,1.4-30.1,2.1-45.3
	c0.3-7.3,0.6-14.6,1.2-21.8c0.4-5.3,0.2-10.7,0.3-16c0-2.8,0.1-5.5,0.4-8.3c0.2-2.2,1.1-4.5-0.7-6.2c-4-4.5-7.1,4.6-10.4,2
	c-10.3-7.9-23.1-1.9-34.4-2c0.2-1.4-1.1-2.7-2.5-2.9s-2.8,0.2-4.1,0.7c-1.2-1.3-0.2-3.5-0.9-5.1c-0.6-1.3-2.3-1.7-3.7-1.5
	c-1.4,0.2-2.7,0.9-4,1.4c-3,1.1-6.2,1-9.3,0.9c-1.5,0-3.2-0.2-4-1.4c-0.3-0.4-0.4-0.8-0.7-1.2c-0.9-1-2.5-0.7-3.8-0.2
	c-1.2,0.6-2.6,1.3-3.9,0.8c-0.7-0.3-2.6-0.6-3-1.1c-2-2.3,1.1-6.1,2.3-7.9c2-3,3-3.7,6.4-3.4c5.9,0.5,0.5,5.9,3.3,8
	c4.2,1.9,6.1-2.8,9.3-4.4c8.8-5.2,9.8,10.5,18.3,5.6c3-1.3,9.4,1.8,7.2,5.7c1.4,6,13,3.2,15.8-1c1.8-3.3-3.5-1.2-4.7-0.4
	c-13.2-9.7-4.3-6.8,0-16.3c0.9-6.6-5.1-0.5-7.6-3.6c-15.1-4.3-0.3-13-16.7-14.2c-3-1.2-5.3,0.9-8,1c-6.5-4.9-13.8-0.1-20.5-2.8
	c4.2-2.4,8.7,0.2,12.8-2c3.7-1.1,2.9-9,0.1-3.5c-2.8,3.4-4.2-1.2-2.3-3.3c16.5-19.1,6.6-14.1-10.6-22.1c-4.6-4.7-14.2,6.6-14-1.9
	c-0.2-1.8,0.6-5.5-2.5-4.1c-2.8,1.2-4.8,0.4-5.5-2.8c-0.2-3.9-9.5-5.9-3.1-9.1c1.9-1,3.1-2.2,3.1-4.7c6.8-7.7,7.2-1.3-4.2-10.1
	c-19.4-20.6-21.3-0.5-39.1-3.9c2.2-2.8,22.6-8,8.9-9.2c-2-0.2-3.2-0.6-2.6-3c-6.3-14.1,7.4-13.3-0.3-17.2c-1.5-0.7-2.8-1.2-0.8-2.8
	c3.1-1.7-0.9-8.8,3-9.2c3.8,0.9,8.3,0,11.3,3.3c2.2,2.7,6.1-1.5,2.5-2.3c-3.1-2.2-1-5.5-1.6-8.3c-0.6-2.3,5.9-1.4,4.7-4
	c-3.3-3.9,5.7-4.4,2-6.8c-12.5-10.1,5.1-11.6,2.5-19.2c-5-5.5,0.4-4.5,2-9.2c5.6-8-4.1-19.2,12.8-16.9c8.2,0.2-0.5,9.3,7.2,9.4
	c5.8,2.2,3.1-7.6,8.2-5.1c2.4,1.2,8.2,1.1,4.5,5c-6.1,7.5,3.1,14.5,4.6,2.5c6.3-5.5-3.5-12.8,2-17.3c7.1-4.6-6.4-6.4-4.9-12.3
	c0.3-3.4,8-0.8,5.7-6.3c-1.5-4.3,9.1-22.2,14.4-18.3c5,4.4,15.3,4.3,17.4,10c-0.1,0.7,0.3,1.5,1.2,1.5c5.2,0,1.5,5.4,4.5,7.1
	c6.6-1,7.8-10.6,8.6-15.6c2.5-0.1,1.8-1.6,1.5-3c-1.7-4.8,9.2-8.4,11.6-4.9c3,3.9,9-0.1,7.6-4.5c-1.2-6.5,6.2,1.7,6.9-4.3
	c1.8-5.3,12.4,0.9,8.3,5.4c-5.7,10.3,15,2.7,11.4,20.2c7.1,7.5,2.6-7.6,8.6-6.3c5.8-0.5,12.3,5.8,15.5-3.1c1.4-3.3,1.1-14,6.9-10.5
	c5.6-1.7,11.4-3.6,12.5,4.7c3.6,5.1,14-5.3,18.5,4.3c4.5,6.4,4.7,6.4,0.3,11.7c0.8,3.3,5.9,0.9,6.2,5c1.6,3.6,6.7,3.1,9.7,5.1
	c8.8,2.3,4.9,12.1,10.9,16.5c2,1,1.5,6.3-0.4,7.5c-3.3,0.3-2.5,4.7,0.7,2.7c4.5-0.4,7,3.5,9.4,6.6c2,2.2,7.1-0.4,4.5-2.9
	c-2.3-3.1-2.9-18.9,1.7-15.7c2.8,4.9,9.1,1.9,11.1,7.2c0.9,1.9,2-0.6,3.6-1c-1.3,7.4,11.5,10.8,4.2,17.7c-0.6,0.6-2.1,1.6-0.5,2
	c5.3,2.4,4.5,8.9-1,6.5c-1.5,5.8-5.6,0.8-8.3,1.9c-4.6-0.9-6.2,4.2-0.7,4.3c3.7,0.7-1.4,2.6,0.5,4.9c9.7,5.7-2.9,0.6-3.9,5.1
	c-0.9,4.3,8.5,5.7,10.9,4.2c8-7,15.6-1.6,12.5,7.8c1.9,1.6,8.8-3.3,7,1.9c-1.3,2.3-2.2,4.7-2.4,7.3c-0.2,2.3-2.3,0.2-3.3,1.6
	c1.6,2.3,5.8,2.4,6.6,5.1c-4.9,0.7-4.5,7.4-9.7,3.9c-0.9-0.7-1.7,0.5-2.3,1.2c-4.7,12.7-5.5,11.7-17.1,4.9
	c-12.6-3-2.8,14.6,5.5,13.5c7.8-1.1,5.4,11.5,10.7,8.8c6-2.1,5-18.2,11.8-13.1c2.9-3.6,3.5,0.6,5,1.5c3,1.3,7.9-0.5,4.8,4.9
	c-0.8,1.4,0.9,1.6,1.8,2c4.5,1.6-0.9,4.7,0.8,7.5c3.7,7.5-13.2-3-9,8.6c1.8,11.6,15,4.9,9.6,17.9c1.5,3.5,9.5-1,6.1,5.6
	c3.8,7.5,2.5,4.9-0.6,15.5C369.1,249.8,366.4,264.9,364.7,257.5z"/>
<path class="st0" d="M127.8,176.8c-0.3,1.3,1,1.7,2.1,2.1c6.3-4.6,7.3,1.4,13.5-0.6c1.3-5.3-5.4-1.9-5.6-4.4
	c-1.8-7.6,9.9-1.3,11.8-5.9c4.7-8.9-7.5-6.7-8.2-11.7c0.1-2.1-1.1-3.9-3.1-4.2c-5.7-3.3-11,2.1-16.8-2.1c-11-2.5,7.2,11.7-3.2,10.5
	C107.1,163.1,127.9,172.5,127.8,176.8z"/>
<path class="st0" d="M168,177.2c3.2,1.6-1.6,6.5,2.2,6.9c13.5,0.5-13.8-21.1-18-23.1c-1.9,5.2,5.7,9.6,6,15.1
	C160,179.3,165.1,174.7,168,177.2z"/>
<path class="st0" d="M193.3,146.7c4.1-0.5,3.5-3.1,0.6-5c-1.3-0.9-3.3-2.1-4.9-2.1c-1.1,0-2.2,0.7-3.4,0.8c-1.1,0.1-2.3-0.1-3.3-0.3
	c-2.4-0.6-4.6-1.9-6.6-3.4c-2.3-1.7-4.3-3.8-6.6-5.5c-1.8-1.3-3.8-2.5-4.9-4.6c-1-2-4.9-2.1-5.2,0.6
	C162.1,140,182.9,140.5,193.3,146.7z"/>
<path class="st0" d="M160.5,116.4c1,0.7,2,1.7,3.1,2.3c1.1,0.6,2.4,0.8,3.5,1.4c2.5,1.4,4.5,3.7,6.5,5.6c3.1,3,10.2,9.7,15,8.3
	c0.2,0,0.3-0.1,0.4-0.3c0.1-0.2,0-0.3-0.1-0.5c-0.8-1.3-2.8-1.8-3.1-3.3c-0.1-0.5,0-1,0.1-1.6c0.1-0.6,0.1-1.2,0.1-1.8
	c0-0.2,0-0.4-0.1-0.5c-0.2-0.2-0.5-0.2-0.7-0.2c-2.3,0.3-4.4,1.9-6.7,0.7c-2.8-1.4-2.8-5.7-5.2-7.9c-0.8-0.7-1.7-1.1-2.7-1.3
	c-0.4-0.1-0.9-0.2-1.3-0.3c-1.6-0.2-2.3-0.8-3.7-1.4c-1.1-0.5-2.9-1.3-4.1-1C161,114.9,159.5,115.8,160.5,116.4z"/>
<path class="st0" d="M159.2,241.6c4.8,6.1,14.7-3.4,21.4-2.4c9.6-0.5,1.9-9.4,12.9-8.2c1.2-0.2,2.4-0.8,2.4-2.2
	c-2-5.4-11.2-2.9-10.4,3.1C176.9,232.5,155.1,225.5,159.2,241.6z"/>
<path class="st0" d="M185,301.4c-2.1,3.4-4.5-2.3-2.2-3.8c3.5-3.6-8.7-16.7-8.2-5.5c1.8,5.8-7.8,6.5-4.7,11.6
	c5.7,7.2,22.7,14,26.6,3.1C197.6,301.8,187.3,295.8,185,301.4z"/>
<path class="st0" d="M193.6,252.9c-6.9-8,5.8-6.9,1.3-11.8c-13.6-4.3-27.7,7.6-39.1,8.8c-10.3-7.8,12.6-8.5-15.7-14.9
	c-6-1.4,3.9,7.9-2.5,6c-7.5-7.8-5.8-14.6-19-9.7c5.5-10.5-4.8-3.7-5-8.1c1.4-3-9.3-3.1-9-1.6c-1.6,4.3,6.2,4.8,4.6,10.1
	c0.6,11,14.4,16.9,20.9,9.4c0.9,8.3,10.7,8.1,12.1,15.2c1.6,4.8,8.4,6-1.3,6.8c2.7,3.8,19.8,8.1,14.9,1.1c-5.2-1.5-5.1-8.1-10-10.1
	c4.4,1.7,8.4,1,12.6,1.2C171.9,261.5,204.4,278.5,193.6,252.9z"/>
<path class="st0" d="M123.9,215.3c11.9,2.1,24.9,18,36.3,11.4c0.6-5-4-5.5-6.2-8.4c0.9-4.9,11.3-6,0.8-9.4
	c-8.8-1.4-25.3-9.5-31.2-0.9c-0.5,3.5-7.8,4.2-7.2,0.6c4.1-4.8-0.2-11.5,3.6-9.4c1.5,2.3,34.8,8.9,31.9,1.7c-0.9-8.2-10-2-13.3-7.1
	c-0.7-0.9-2.6-1-3.9-1.4c-4.8-1.9-10.4-5.7-2-5.7c-1.2-6.3-18.8-20.5-24.4-20.2c-11.9,13-6.2-0.2-17.2-1.6c-6.6,0.3-1.4-6.5-3.8-9
	c-8.8,5.3-9,18.5-9.6,27.9c-12.4,15.7,7.5,20.6,16.9,29.2C121.5,227,107.2,211.5,123.9,215.3z"/>
<path class="st0" d="M159.8,199.2c0.1,4.4,9.7,4.7,12.5,3.4C172,198.6,161.7,194.3,159.8,199.2z"/>
<path class="st0" d="M176.7,200.2c2.7,5.4,16.2,10.6,21.4,7.5C196.6,200.6,182.2,199.9,176.7,200.2z"/>
<path class="st0" d="M188.8,163c1.1-0.6,2.9-0.4,2.4-2.2c-0.3-1.3-2.4-2.4-3.4-2.9c-0.2-0.1-0.4-0.2-0.5-0.3
	c-0.1-0.2-0.1-0.4-0.1-0.6c0-1.3,0.9-2.9,0.5-4.1c-0.4-1.1-1.7-1.9-2.6-2.4c-2.1-1.3-5.2-2.8-7.7-3.2c-6.7-1.1-7.2,10.3-15.4,6.3
	c-7.1-0.7,10.3,17.8,8.9,10.5C169.4,156.9,184.3,165.6,188.8,163z"/>
<path class="st0" d="M196.1,215.2c-0.8,0.1-1.5,0.1-2.9,0.3C201.3,230.7,205.9,213.1,196.1,215.2z"/>
<path class="st0" d="M165.3,221.2c-8,6.5,14.2,4.2,17.9,2.5c9.2,0,2.7-18-1-8.6c-0.7-6.1-6.7-2.7-10.5-3.6
	C166.6,211.7,171.9,220.5,165.3,221.2z"/>
<path class="st0" d="M195,199c1.6-4.4-20.7-8.6-23-5.6C176.2,199.6,188.4,198.1,195,199z"/>
<path class="st0" d="M318.1,219.3c-3,0.4-6.8-4.2-7.7,1c-0.6,8.4,4,7.6,9.8,6.1C326.1,226.7,322.5,217.1,318.1,219.3z"/>
<path class="st0" d="M187.8,172.5c-2.2-3.6-10.4-3.5-12,1.5C176.8,180.6,188.1,182,187.8,172.5z"/>
<path class="st0" d="M215.6,148.8c0.1,0.3,0.2,0.6,0.5,0.8c0.7,0.6,1.5,0.1,2.2,0.3c0.7,0.1,1.4,0.6,2.2,0.8
	c1.1,0.3,3.1,0.7,4.2,0.2c0.4-0.2,0.6-0.4,0.7-0.6c0.6-1.2-0.6-3.2-0.5-4.5c0.1-2.1,1.1-4.2,2.4-5.8c0.5-0.6,1-1.1,1.7-1.4
	c0.6-0.2,1.3-0.2,2-0.3c2.4-0.1,4.8-0.6,7-1.4c1.7-0.6,3.5-2.1,3.1-3.8c-3.6-0.8-7.6-1.6-11-0.2c-2.8,1.1-4.8,3.4-6.3,6
	c-0.2,0.4-0.5,0.8-0.8,1.2c-0.7,0.7-1.9,0.7-2.8,0.2c-0.9-0.5-1.5-1.3-1.9-2.3c-0.2-0.5-0.4-1.1-0.7-1.6c-0.3-0.5-0.9-0.8-1.5-0.7
	c-2.1,0.5-0.8,8.6-0.8,10.2C215.2,146.9,215.3,147.9,215.6,148.8z"/>
<path class="st0" d="M216.2,167.3c1.7,1.1,4.8-1.2,6.5-2.1c-1.9,0.5,3.6-2.4,4.1-5.5c-1.9,1.3-4.6,3.4-7,2.5c-0.6-0.2-1.2-0.6-1.7-1
	c-0.5-0.4-1-0.9-1.5-1.3c-1.5-1.3-3.2-2.4-4.9-3.3C212.5,158.7,214.2,166,216.2,167.3z"/>
<path class="st0" d="M252.1,130.7c1.4-3.5,4.6-4.8,7.4-6.7c3.7-12.2-0.8-4.9-8.1-1.7C247,122.8,248.2,132.1,252.1,130.7z"/>
<path class="st0" d="M238.7,149.4c3,1.1,7.4,0.3,10.4-0.4c0.4-0.1,0.8-0.2,1.1-0.5c0.3-0.3,0.4-0.6,0.5-1c1.1-2.5,4.5-2.9,6.7-4.6
	c1.4-1.1,2.3-2.9,2.2-4.8c0-1.1-0.8-2.5-1.8-2.2c-0.3,0.1-0.5,0.3-0.8,0.5c-2.5,2.2-5,4.5-7.3,6.9c-0.2,0.2-0.4,0.5-0.7,0.6
	c-0.3,0.1-0.6,0.2-0.9,0.2c-0.8,0.1-1.4,0.2-1.9,0.4c-0.9,0.3-1.5,0.9-2.6,1.7C242.9,146.7,239.6,149.7,238.7,149.4z"/>
<path class="st0" d="M221.4,228.1c-1.5-3.9-5.1-2.4-8.7-2.7C193.2,229.9,217.1,236,221.4,228.1z"/>
<path class="st0" d="M252.1,285.9c1-3.6-1.5-4-3.8-4.4c-14.2-1.5-44.4-13.5-37.2,12.8c1.4,4.3,7.1,0.3,4.3-2.9
	c-2.2-3.1,1.9-4.2,4.3-3.2c3.2,1.8-2,6.9,1.2,8.5c11.9,6.5,25.4,8.5,33.8-3.6C258,290.5,251.1,288.9,252.1,285.9z"/>
<path class="st0" d="M260.1,162.7c1.5,7.1-4.7,7.6-6.6,1.2c-1.4-1.8-5.8,1.5-6.1,3.3c-0.1,4.1,6,1.8,7.7,4.8
	c3.6,5.9,3.6,5.9,9.5,2.5C276,173.4,258.4,152.4,260.1,162.7z"/>
<path class="st0" d="M309.5,231.5c-0.5,2.1-1.8,5.1-0.7,6.2C312.4,237.9,315.1,230.9,309.5,231.5z"/>
<path class="st0" d="M319.1,201.7c-5.7-1.7-1-11.5-7.1-10.8c-10.6,6.5-19.1,11.4-31.7,12.1c-0.7,0.2-2.2,0.7-1.5,1.4
	c4,4.9-7,2.1-5.4,6.8c0.8,6.4-6.1,14.1,0.4,18.6c4-0.6,1.5-7.3,6.7-6.8c4.5-0.2,1.2-3.3,1.4-5.9c9.4-2.6,13.8,12.5,21,2.9
	C306.8,213,314.9,207,319.1,201.7z"/>
<path class="st0" d="M284,261.2c-0.2,0-0.4,0.1-0.6,0.2c-1.1,0.6-2.2,1.4-3,2.4c-0.8,1-1.6,2.2-2.8,2.5c-0.4,0.1-1,0.2-1.7,0.2
	c-3.3,0.3-8.9,0.4-8,4.4c0.8,4,7.8-1.6,9.4-2c2.3-0.6,5.1-0.7,6.5-2.6c0.7-1,0.9-2.2,1-3.4C284.9,262.2,284.7,261.2,284,261.2z"/>
<path class="st0" d="M269.9,259.4c7.2-5.9-17.8-7.7-19.6-3.4c-0.5,0.8-1.7,0.7-2.9,0.5c-1.9-0.6-5.2,2.9-5.1,4.1
	c1.8,5.3,4.2,5.9,8.4,2.3C257.2,256.7,264.1,266.3,269.9,259.4z"/>
<path class="st0" d="M238.3,262.1c-1.1-2.6-0.4-8.8-4-8.9c-1.7,2.3,0.9,7.5-3.5,8.7C222,265,240.9,268.2,238.3,262.1z"/>
<path class="st0" d="M323.7,172.3c-8.2-6.6-7.5-9.4-7.4-15.2c-1.9,2.5-6.9,0.8-5.7,11C309.8,167.6,318.3,173.8,323.7,172.3z"/>
<path class="st0" d="M230.9,179c-0.3,0-0.6,0-0.9-0.1c-1.6-0.5-2.6-0.2-4.2,0.7c-1.1,0.6-2.5,1.5-3.2,2.6c-2.1,3.3,5,1.4,5.6,0.5
	c0.4-0.7,1-1.7,1.7-0.5c0.2,0.3,0.3,0.7,0.3,1.1c0.1,0.9-0.9,5.7,0.3,5.8c0.4,0,0.7-0.3,1-0.7c1.2-1.7,2-2.7,2.1-4.8
	c0.1-1,0-2-0.4-2.9C232.7,179.8,231.9,179,230.9,179z"/>
<path class="st0" d="M277.5,190.5c5.8-0.7,10.2-8.7,4.3-11.8c-15.1,0.6-25.8,12.1-3.1,6C281.3,186.9,277,188.3,277.5,190.5z"/>
<path class="st0" d="M256.3,215.5c1.6-2,2.3-5.3-1.5-4.9c-7.6-2.9-35.9,15.4-17.8,11.6C241.5,214.3,251.4,222.7,256.3,215.5z"/>
<path class="st0" d="M244.6,195.9c-1.8,1.3-4.8,0.9-7,1.5c-2.1,0.6-3.8,1.9-4,4.2c-0.1,1,0.3,2.2,1.2,2.6c1.2,0.5,2.6-0.4,3.6-1.2
	c3.3-2.7,7.5-4.9,9.6-8.7c0.5-0.9,0.8-2,0.6-3c0-0.2-0.1-0.4-0.2-0.5c-0.1-0.1-0.3-0.2-0.4-0.3c-0.2-0.1-0.5-0.2-0.7-0.3
	c-0.3-0.1-0.6-0.1-0.9-0.2c-0.1,0-0.2,0-0.2,0c-0.1,0.1-0.1,0.2-0.1,0.2c0,0.6,0,1.2,0,1.8c0,0.5,0,0.9-0.1,1.4
	C246,194.5,245.4,195.4,244.6,195.9z"/>
<path class="st0" d="M269,142.4c-0.1,0.2,0.6,1,1.1,1.2c18,3.3,1.8-29.6-3.6-8.5C265.9,137.8,270.6,139,269,142.4z"/>
<path class="st0" d="M275.7,238.1c1.6-4.2-17.9-3.6-16,1.4c1.4,3.2-1.4,2.1-3,3.5c-1.1,4.6-7,0.3-8.8,2.8
	C256.3,253.6,272.3,250.6,275.7,238.1z"/>
<path class="st0" d="M294.6,188.3c-3.2-0.1-10.8,7-10.2,10.7c4.1,2.1,7.6-4.6,12.3-3.7C300.1,194.1,296.6,189.9,294.6,188.3z"/>
<path class="st0" d="M274.8,155.2c-3.6,0.4,0.7,9.9,2.8,8.5c9.1-3.1,29.8-31.9,9.5-21.4C277.6,141.4,279.1,151.4,274.8,155.2z"/>
<path class="st0" d="M293.2,167.1c4.9-3-4.1-5.2-5.3-1.6c-3.9,3-10.8,2.7-14.7,7.8C275.7,178.4,288.8,169.7,293.2,167.1z"/>
</svg>
