<?xml version="1.0" encoding="utf-8"?>
<!-- Generator: Adobe Illustrator 27.9.0, SVG Export Plug-In . SVG Version: 6.00 Build 0)  -->
<svg version="1.1" id="Layer_1" xmlns="http://www.w3.org/2000/svg" xmlns:xlink="http://www.w3.org/1999/xlink" x="0px" y="0px"
	 viewBox="0 0 850.4 368.5" style="enable-background:new 0 0 850.4 368.5;" xml:space="preserve">
<style type="text/css">
	.st0{fill:#2E4623;}
	.st1{fill:#372919;}
</style>
<g>
	<g>
		<g>
			<g>
				<path class="st0" d="M184,364.7h-30l-26.5-63.6H34.3L9.9,364.7H2.8l26.8-70.1l0.1-0.3l45.4-118.7l1.1-3l9.2-24.3h5.5L184,364.7z
					 M124.6,294.3L78.4,186.1L36.9,294.3L124.6,294.3z"/>
			</g>
			<g>
				<path class="st0" d="M358.6,148.3v217.4h-6.9L206.8,185.4v180.4H200V148.3h7l144.8,180.8V148.3H358.6z M237.7,146.2l-6.5-6.2
					c12.1-16.2,28.2-16.8,53.8-4.6c19.7,9.4,30.3-0.6,36.2-11.1l6.3,4.2c-6.9,17.5-23.1,28.4-49.1,15.2
					C256.7,132.6,247.4,135.6,237.7,146.2z"/>
			</g>
			<g>
				<path class="st0" d="M527,359v6.9h-135V148.4h131.3v6.9H421.9v92.5H493v6.8h-71.1V359H527z"/>
			</g>
			<g>
				<path class="st0" d="M625,148.4v137.5c0,34.9-11.6,57.2-30,69.1c-12.2,7.5-26.2,11.2-40.5,10.8c-8.6,0-23.5-3.7-29.2-9.2l3.7-4
					c5.1,3.7,13,6.6,25.5,6.4c37.2-0.6,40.5-31.4,40.5-58.2V148.4H625z"/>
			</g>
			<g>
				<path class="st0" d="M847.6,260.9c-0.5,57.5-45.8,106.8-101.4,106.8c-57.1,0-100-48.9-99.5-106.4
					c0.5-57.5,44.5-111.1,101.5-111.1C802.7,150.3,848.1,203.4,847.6,260.9z M817.6,260.7c0.5-47.7-22.9-103.5-69.5-103.5
					c-42.6,0-71.5,44.7-71.5,103.4c0,47.7,23.6,100.2,69.6,100.2C797.5,360.9,817.1,308.4,817.6,260.7z"/>
			</g>
		</g>
		<g>
			<path class="st1" d="M127.7,85.5c-1.5,0-2.7,1-3,2.6l-0.1,0.3v1.3c0,3.4-1.1,7-3.3,10.7c-5.7,7.9-15.8,11.9-30,11.9h-1.1
				c-8.9,0-17.2-3.3-24.6-9.9C55,91.3,49.7,77.2,49.7,60.5c0-11.7,2.3-22.3,6.9-31.5c8.6-14.8,19.3-22,32.6-22h8
				c17.1,2.6,25.5,10.2,25.5,23.3V33h5.5V12.9l-1-0.7c-10.4-7.6-22-11.4-34.5-11.4h-3.7c-6.8,0-14.7,2-23.3,5.9l-0.3,0.2
				c-18.7,11.7-28.2,29.5-28.2,53c0,7,1.3,14.7,3.8,22.9l0.1,0.2c9.6,23.6,26.4,35.5,49.8,35.5h0.4c11.1,0,21.9-2.5,32-7.6
				c3.3-1.3,7.2-4.4,7.2-12V88.1l-1.2-2.6H127.7z"/>
			<path class="st1" d="M218.6,59.4c-8.6-17.8-21.7-26.9-38.8-26.9h-1.1c-5.9,0-12,1.6-18.2,4.7l-0.1,0.1c-15.2,9.1-23,22.1-23,38.7
				c0,5.4,1.2,11.1,3.5,17.1l0.1,0.2c8.9,17.1,21.7,25.7,38,25.7h1.5c6.1,0,12.4-1.7,18.8-5.1l0.2-0.1c14.7-9.4,22.2-22.1,22.2-37.9
				c0-5.1-1-10.5-3.1-16.3L218.6,59.4z M150.4,73.3c0-2.3,0.3-5.3,1-9.1c5.2-17.1,14.2-25.5,27.3-25.5h2.6c0.8,0,2.6,0.2,6.6,1
				c14.1,6.6,20.9,18,20.9,35v1.9c0,3.7-0.5,7.7-1.4,11.6c-5.3,16.7-14.3,24.8-27.6,24.8c-3.5,0-7.6-0.9-12.2-2.7
				c-11.6-7.9-17.2-18.4-17.2-32.3V73.3z"/>
			<path class="st1" d="M299.2,111.6C299.2,111.5,299.2,111.5,299.2,111.6l0-57.5c0-12.2-8.3-19.3-24.6-21.2l-0.3,0
				c-11.4,0-21.1,5-28.8,14.8v-11c0-1.7-1.1-3-2.8-3.2l-11.4,0l-2.5,1.4v4.2h2.4c1.5,0,1.7,0.3,1.7,0.7V111c0,0.4-0.2,0.7-1.7,0.7
				h-2.4v2.4c0,1.8,1.3,3.1,3.1,3.1h15.6l2.6-1.1v-4.3h-2.4c-2,0-2.1-0.6-2.1-1.7V66.5c0-2.6,1.1-6,3.1-10.2
				c5.7-10.2,12.3-15.2,20-15.2h1.6c2.7,0,5.3,0.4,7.8,1.3l0.1,0c5.7,1.8,8.4,7.4,8.4,17.2v51.4c0,0.2,0,0.3,0,0.3
				c-0.1,0.1-0.6,0.3-1.7,0.3h-2.4v5.5h20.5v-5.5h-2.4C299.7,111.7,299.4,111.6,299.2,111.6z"/>
			<path class="st1" d="M378.7,111.2V4.2c0-1.6-1.2-2.9-2.8-3.1l-11,0l-2.6,1.1v4.1l2.1,0.2c1.5,0.2,2,0.5,2.1,0.6c0,0,0,0,0,0.1
				v32.8c-4.9-2.3-10.1-3.5-15.5-3.5h-1.8c-5.8,0-11.8,1.6-17.9,4.9l-0.2,0.1c-14.1,8.9-21.2,21-21.2,36.1V78c0,4.7,1,9.9,3,15.5
				l0.1,0.3c8.4,16.7,20.7,25.2,36.6,25.2h1.4c5.3,0,10.7-1.2,16-3.7c0.4,1,1.2,1.9,2.6,1.9H380l2.6-1.1v-4.3h-2.4
				C378.9,111.7,378.8,111.5,378.7,111.2z M322.5,77.7c0-0.1,0-0.3,0-0.4v-1.8c0-3,0.4-6.2,1.3-9.5c4.9-15.8,13.6-23.5,26.6-23.5
				c6.2,0,11.5,2.1,16.2,6.3v58c-4.6,4.1-9.7,6-15.5,6h-1.8c-5.9,0-11.1-2.1-15.9-6.4c-7.3-7.5-10.9-16.1-10.9-26.4L322.5,77.7
				L322.5,77.7z"/>
			<path class="st1" d="M470.8,59.4c-8.6-17.8-21.7-26.9-38.8-26.9h-1.1c-5.9,0-12,1.6-18.2,4.7l-0.1,0.1c-15.2,9.1-23,22.1-23,38.7
				c0,5.4,1.2,11.1,3.5,17.1l0.1,0.2c8.9,17.1,21.7,25.7,38,25.7h1.5c6.1,0,12.4-1.7,18.8-5.1l0.2-0.1c14.7-9.4,22.2-22.1,22.2-37.9
				c0-5.1-1-10.5-3.1-16.3L470.8,59.4z M402.6,73.3c0-2.3,0.3-5.3,1-9.1c5.2-17.1,14.2-25.5,27.3-25.5h2.6c0.8,0,2.6,0.2,6.6,1
				c14.1,6.6,20.9,18,20.9,35v1.9c0,3.7-0.5,7.7-1.4,11.6c-5.3,16.7-14.3,24.8-27.6,24.8c-3.5,0-7.6-0.9-12.2-2.7
				c-11.6-7.9-17.2-18.4-17.2-32.3V73.3z"/>
			<path class="st1" d="M601,111.5c0,0,0-0.1,0-0.3V52.9c0-1.5-0.3-3.2-0.9-5.2l-0.1-0.3c-4.5-9.6-12.6-14.5-24-14.5
				c-9.9,0-18.8,4.1-26.7,12.3c0,0,0-0.1-0.1-0.1l-0.2-0.3c-5.5-7.9-12.9-11.9-21.8-11.9c-12.4,0-22.3,5-29.5,14.8v-11
				c0-1.7-1.2-3-2.9-3.2l-11.3,0l-2.6,1.3v3.8l1.9,0.4c1.2,0.3,1.9,0.5,2.2,0.7v71.3c-0.4,0.2-1.1,0.4-2.3,0.7l-1.8,0.4v1.9
				c0,1.8,1.3,3.1,3.2,3.1h15.4l2.7-1.1v-4.4h-2.4c-2.1,0-2.1-0.5-2.1-1V66.1c0-0.9,0.3-2.9,1.7-7c5.7-12.1,12.8-18,21.7-18h1.9
				c3.4,0,6.7,1,10,3l0.1,0.1c4.5,2.3,5.5,10.3,5.5,16.6c0,7.4-0.1,12.2-0.4,14.4l0,0.2l0,0.2c0.3,4.4,0.4,9.9,0.4,16.3v19.2
				c0,0.2,0,0.3,0,0.3c-0.1,0.1-0.6,0.3-1.7,0.3h-2.4v5.5h20.5V112l-2.1-0.3c-0.8-0.1-1.3-0.2-1.7-0.3V54.8
				c5.7-9.2,12.1-13.6,19.8-13.6h0.6c3.1,0.2,4.7,0.4,5.6,0.5V42l1.7,0.5c6.2,1.8,9.1,6.2,9.1,13.8v55.2c0,0,0,0,0,0.1
				c-0.2,0.1-0.5,0.2-1.3,0.2h-2.4v5.5h20.5v-5.5h-2.4C601.5,111.7,601.1,111.5,601,111.5z"/>
			<path class="st1" d="M621.7,24.1l0.5,0.1l0.5-0.1c7.3-1,8.4-5.2,8.4-7.6l0-0.4c-1.2-7-5.2-8.1-7.6-8.1h-1.2c-2.5,0-5.9,1.2-7.5,7
				l-0.1,0.3v1.1C614.7,19.2,615.9,22.5,621.7,24.1z"/>
			<path class="st1" d="M629.2,111V36.8c0-1.5-1-2.8-2.6-3.1l-0.3-0.1h-11.8l-2.5,1.4v4.2h2.4c2,0,2.1,0.6,2.1,1.7V110
				c0,1.1-0.1,1.7-2.1,1.7h-2.4v2.4c0,1.8,1.3,3.1,3.1,3.1h15.5l2.7-1.1v-4.4H631C629.5,111.7,629.3,111.4,629.2,111z"/>
			<path class="st1" d="M710.9,111.6C710.9,111.5,710.9,111.5,710.9,111.6l0-57.5c0-12.2-8.3-19.3-24.6-21.2l-0.3,0
				c-11.4,0-21.1,5-28.8,14.8v-11c0-1.7-1.1-3-2.8-3.2l-11.4,0l-2.5,1.4v4.2h2.4c1.5,0,1.7,0.3,1.7,0.7V111c0,0.4-0.2,0.7-1.7,0.7
				h-2.4v2.4c0,1.8,1.3,3.1,3.1,3.1h15.6l2.6-1.1v-4.3h-2.4c-2,0-2.1-0.6-2.1-1.7V66.5c0-2.6,1.1-6,3.1-10.2
				c5.7-10.2,12.3-15.2,20-15.2h1.6c2.7,0,5.3,0.4,7.8,1.3l0.1,0c5.7,1.8,8.4,7.4,8.4,17.2v51.4c0,0.2,0,0.3,0,0.3
				c-0.1,0.1-0.6,0.3-1.7,0.3H694v5.5h20.5v-5.5h-2.4C711.4,111.7,711,111.6,710.9,111.6z"/>
			<path class="st1" d="M731.2,24.1l0.5,0.1l0.5-0.1c7.3-1,8.4-5.2,8.4-7.6l0-0.4c-1.2-7-5.2-8.1-7.6-8.1h-1.2c-2.5,0-5.9,1.2-7.5,7
				l-0.1,0.3v1.1C724.3,19.2,725.5,22.5,731.2,24.1z"/>
			<path class="st1" d="M738.7,111V36.8c0-1.5-1-2.8-2.6-3.1l-0.3-0.1h-11.8l-2.5,1.4v4.2h2.4c2,0,2.1,0.6,2.1,1.7V110
				c0,1.1-0.1,1.7-2.1,1.7h-2.4v2.4c0,1.8,1.3,3.1,3.1,3.1h15.5l2.7-1.1v-4.4h-2.4C739,111.7,738.8,111.4,738.7,111z"/>
			<path class="st1" d="M831.2,59.7l-0.1-0.2c-8.6-17.8-21.7-26.9-38.8-26.9h-1.1c-5.9,0-12,1.6-18.2,4.7l-0.1,0.1
				c-15.2,9.1-23,22.1-23,38.7c0,5.4,1.2,11.1,3.5,17.1l0.1,0.2c8.9,17.1,21.7,25.7,38,25.7h1.5c6.1,0,12.4-1.7,18.8-5.1l0.2-0.1
				c14.7-9.4,22.2-22.1,22.2-37.9C834.3,70.9,833.2,65.4,831.2,59.7z M762.9,73.3c0-2.3,0.3-5.3,1-9.1c5.2-17.1,14.2-25.5,27.3-25.5
				h2.6c0.8,0,2.6,0.2,6.6,1c14.1,6.6,20.9,18,20.9,35v1.9c0,3.7-0.5,7.7-1.4,11.6c-5.3,16.7-14.3,24.8-27.6,24.8
				c-3.5,0-7.6-0.9-12.2-2.7c-11.6-7.9-17.2-18.4-17.2-32.3V73.3z"/>
		</g>
	</g>
</g>
</svg>
