<?xml version="1.0" encoding="utf-8"?>
<!-- Generator: Adobe Illustrator 27.9.0, SVG Export Plug-In . SVG Version: 6.00 Build 0)  -->
<svg version="1.1" id="Layer_1" xmlns="http://www.w3.org/2000/svg" xmlns:xlink="http://www.w3.org/1999/xlink" x="0px" y="0px"
	 viewBox="0 0 1065.8 425.2" style="enable-background:new 0 0 1065.8 425.2;" xml:space="preserve">
<style type="text/css">
	.st0{fill:#2E4623;}
	.st1{fill:#372919;}
	.st2{fill:#FFFFFF;}
</style>
<g>
	<g>
		<g>
			<g>
				<path class="st0" d="M557.7,358.5h-22.9L514.6,310h-71.2l-18.6,48.6h-5.4l20.5-53.6l0.1-0.3l34.7-90.7l0.9-2.3l7-18.6h4.2
					L557.7,358.5z M512.4,304.7L477.1,222l-31.7,82.7L512.4,304.7z"/>
			</g>
			<g>
				<path class="st0" d="M691.1,193.1v166.1h-5.2L575.2,221.5v137.8H570V193.1h5.3l110.6,138.2V193.1H691.1z M598.8,191.6l-5-4.8
					c9.2-12.4,21.5-12.8,41.1-3.5c15,7.2,23.2-0.5,27.7-8.5l4.8,3.2c-5.2,13.4-17.7,21.7-37.5,11.6
					C613.3,181.2,606.2,183.4,598.8,191.6z"/>
			</g>
			<g>
				<path class="st0" d="M819.8,354.1v5.2H716.6V193.3h100.3v5.2h-77.4v70.7h54.3v5.2h-54.3v79.7H819.8z"/>
			</g>
			<g>
				<path class="st0" d="M894.7,193.2v105.1c0,26.7-8.9,43.7-22.9,52.8c-9.3,5.7-20,8.6-30.9,8.2c-6.6,0-17.9-2.8-22.3-7l2.8-3.1
					c3.9,2.9,10,5,19.5,4.9c28.4-0.5,30.9-24,30.9-44.5V193.2H894.7z"/>
			</g>
			<g>
				<path class="st0" d="M1064.7,279.2c-0.4,43.9-35,81.6-77.5,81.6c-43.7,0-76.4-37.3-76-81.3c0.4-43.9,34-84.9,77.5-84.9
					C1030.5,194.7,1065.1,235.3,1064.7,279.2z M1041.8,279.1c0.3-36.4-17.5-79.1-53.1-79.1c-32.5,0-54.6,34.1-54.6,79
					c0,36.4,18,76.6,53.2,76.6C1026.5,355.6,1041.5,315.5,1041.8,279.1z"/>
			</g>
		</g>
		<g>
			<path class="st1" d="M514.8,145.2c-1.1,0-2.1,0.8-2.3,2l0,0.2v1c0,2.6-0.9,5.4-2.5,8.2c-4.4,6-12.1,9.1-22.9,9.1h-0.8
				c-6.8,0-13.2-2.5-18.8-7.5c-8-8.4-12.1-19.2-12.1-32c0-8.9,1.8-17,5.2-24.1c6.6-11.3,14.7-16.8,24.9-16.8h6.1
				c13.1,2,19.5,7.8,19.5,17.8v2.1h4.2V89.7l-0.8-0.5c-7.9-5.8-16.8-8.7-26.4-8.7h-2.8c-5.2,0-11.2,1.5-17.8,4.5l-0.2,0.1
				c-14.3,8.9-21.5,22.6-21.5,40.5c0,5.4,1,11.3,2.9,17.5l0.1,0.1c7.3,18,20.2,27.2,38.1,27.2h0.3c8.5,0,16.7-1.9,24.4-5.8
				c2.5-1,5.5-3.4,5.5-9.2v-8.2l-0.9-2H514.8z"/>
			<path class="st1" d="M584.2,125.3c-6.6-13.6-16.5-20.5-29.6-20.5h-0.8c-4.5,0-9.2,1.2-13.9,3.6l-0.1,0.1
				c-11.6,7-17.5,16.9-17.5,29.5c0,4.1,0.9,8.5,2.7,13.1l0.1,0.2c6.8,13,16.6,19.7,29.1,19.7h1.1c4.6,0,9.5-1.3,14.4-3.9l0.1-0.1
				c11.3-7.2,17-16.9,17-28.9c0-3.9-0.8-8.1-2.4-12.5L584.2,125.3z M532.1,135.9c0-1.8,0.3-4.1,0.8-6.9c4-13.1,10.8-19.5,20.9-19.5
				h2c0.6,0,2,0.1,5.1,0.8c10.8,5,16,13.8,16,26.8v1.4c0,2.9-0.4,5.8-1.1,8.9c-4,12.8-10.9,19-21.1,19c-2.7,0-5.8-0.7-9.3-2.1
				c-8.8-6-13.1-14.1-13.1-24.7V135.9z"/>
			<path class="st1" d="M645.8,165.1C645.8,165.1,645.8,165.1,645.8,165.1l0-43.9c0-9.3-6.3-14.7-18.8-16.2l-0.2,0
				c-8.7,0-16.1,3.8-22,11.3V108c0-1.3-0.9-2.3-2.2-2.4l-8.7,0l-1.9,1v3.2h1.8c1.2,0,1.3,0.2,1.3,0.5v54.4c0,0.3-0.1,0.6-1.3,0.6
				H592v1.8c0,1.4,1,2.4,2.4,2.4h11.9l2-0.9v-3.3h-1.8c-1.5,0-1.6-0.5-1.6-1.3v-33.2c0-2,0.8-4.6,2.4-7.8
				c4.4-7.8,9.4-11.6,15.3-11.6h1.2c2.1,0,4.1,0.3,6,1l0.1,0c4.3,1.4,6.4,5.7,6.4,13.1v39.3c0,0.2,0,0.2,0,0.2
				c-0.1,0.1-0.4,0.2-1.3,0.2h-1.8v4.2h15.7v-4.2h-1.8C646.2,165.2,645.9,165.1,645.8,165.1z"/>
			<path class="st1" d="M706.5,164.8V83.1c0-1.2-0.9-2.2-2.2-2.4l-8.4,0l-2,0.9v3.1l1.6,0.2c1.1,0.1,1.6,0.4,1.6,0.5c0,0,0,0,0,0.1
				v25c-3.7-1.8-7.7-2.7-11.9-2.7H684c-4.4,0-9,1.2-13.7,3.7l-0.1,0.1c-10.8,6.8-16.2,16-16.2,27.6v0.3c0,3.6,0.8,7.6,2.3,11.9
				l0.1,0.2c6.4,12.8,15.8,19.3,27.9,19.3h1.1c4.1,0,8.2-0.9,12.2-2.8c0.3,0.8,0.9,1.4,2,1.4h7.9l2-0.9v-3.3h-1.8
				C706.7,165.2,706.6,165,706.5,164.8z M663.5,139.2c0-0.1,0-0.2,0-0.3v-1.4c0-2.3,0.3-4.7,1-7.3c3.8-12.1,10.4-18,20.3-18
				c4.8,0,8.8,1.6,12.4,4.8v44.3c-3.5,3.1-7.4,4.6-11.9,4.6H684c-4.5,0-8.5-1.6-12.1-4.9c-5.6-5.7-8.3-12.3-8.3-20.1L663.5,139.2
				L663.5,139.2z"/>
			<path class="st1" d="M776.8,125.3c-6.6-13.6-16.5-20.5-29.6-20.5h-0.8c-4.5,0-9.2,1.2-13.9,3.6l-0.1,0.1
				c-11.6,7-17.5,16.9-17.5,29.5c0,4.1,0.9,8.5,2.7,13.1l0.1,0.2c6.8,13,16.6,19.7,29.1,19.7h1.1c4.6,0,9.5-1.3,14.4-3.9l0.1-0.1
				c11.3-7.2,17-16.9,17-28.9c0-3.9-0.8-8.1-2.4-12.5L776.8,125.3z M724.8,135.9c0-1.8,0.3-4.1,0.8-6.9c4-13.1,10.8-19.5,20.9-19.5
				h2c0.6,0,2,0.1,5.1,0.8c10.8,5,16,13.8,16,26.8v1.4c0,2.9-0.4,5.8-1.1,8.9c-4,12.8-10.9,19-21.1,19c-2.7,0-5.8-0.7-9.3-2.1
				c-8.8-6-13.1-14.1-13.1-24.7V135.9z"/>
			<path class="st1" d="M876.4,165c0,0,0-0.1,0-0.3v-44.4c0-1.1-0.2-2.4-0.7-4l-0.1-0.3c-3.4-7.3-9.6-11.1-18.3-11.1
				c-7.5,0-14.4,3.2-20.4,9.4c0,0,0-0.1,0-0.1l-0.1-0.2c-4.2-6-9.8-9.1-16.7-9.1c-9.4,0-17,3.8-22.5,11.3V108c0-1.3-0.9-2.3-2.2-2.4
				l-8.6,0l-2,1v2.9l1.4,0.3c0.9,0.2,1.4,0.4,1.7,0.5v54.4c-0.3,0.1-0.8,0.3-1.7,0.6l-1.4,0.3v1.4c0,1.4,1,2.4,2.4,2.4h11.8l2.1-0.8
				v-3.4h-1.8c-1.6,0-1.6-0.4-1.6-0.8v-34.1c0-0.7,0.2-2.2,1.3-5.4c4.3-9.2,9.8-13.7,16.6-13.7h1.5c2.6,0,5.1,0.8,7.6,2.3l0.1,0.1
				c3.4,1.8,4.2,7.9,4.2,12.7c0,5.6-0.1,9.3-0.3,11l0,0.2l0,0.2c0.2,3.4,0.3,7.6,0.3,12.5v14.6c0,0.2,0,0.2,0,0.2
				c-0.1,0.1-0.4,0.2-1.3,0.2h-1.8v4.2h15.7v-4l-1.6-0.2c-0.6-0.1-1-0.2-1.3-0.2v-43.3c4.3-7,9.3-10.4,15.1-10.4h0.5
				c2.3,0.1,3.6,0.3,4.3,0.4v0.3l1.3,0.4c4.8,1.4,7,4.8,7,10.6V165c0,0,0,0,0,0c-0.1,0-0.4,0.1-1,0.1h-1.8v4.2h15.7v-4.2h-1.8
				C876.8,165.2,876.4,165.1,876.4,165z"/>
			<path class="st1" d="M892.1,98.3l0.4,0.1l0.4-0.1c5.6-0.8,6.4-3.9,6.4-5.8l0-0.3c-0.9-5.4-4-6.2-5.8-6.2h-0.9
				c-1.9,0-4.5,0.9-5.7,5.4l-0.1,0.2v0.8C886.8,94.5,887.8,97.1,892.1,98.3z"/>
			<path class="st1" d="M897.9,164.7V108c0-1.2-0.8-2.1-2-2.4l-0.2,0h-9l-1.9,1v3.2h1.8c1.5,0,1.6,0.5,1.6,1.3v52.8
				c0,0.8-0.1,1.3-1.6,1.3h-1.8v1.8c0,1.4,1,2.4,2.4,2.4H899l2.1-0.8v-3.4h-1.8C898.1,165.2,898,165,897.9,164.7z"/>
			<path class="st1" d="M960.3,165.1C960.3,165.1,960.3,165.1,960.3,165.1l0-43.9c0-9.3-6.3-14.7-18.8-16.2l-0.2,0
				c-8.7,0-16.1,3.8-22,11.3V108c0-1.3-0.9-2.3-2.2-2.4l-8.7,0l-1.9,1v3.2h1.8c1.2,0,1.3,0.2,1.3,0.5v54.4c0,0.3-0.1,0.6-1.3,0.6
				h-1.8v1.8c0,1.4,1,2.4,2.4,2.4h11.9l2-0.9v-3.3h-1.8c-1.5,0-1.6-0.5-1.6-1.3v-33.2c0-2,0.8-4.6,2.4-7.8
				c4.4-7.8,9.4-11.6,15.3-11.6h1.2c2.1,0,4.1,0.3,6,1l0.1,0c4.3,1.4,6.4,5.7,6.4,13.1v39.3c0,0.2,0,0.2,0,0.2
				c-0.1,0.1-0.4,0.2-1.3,0.2h-1.8v4.2h15.7v-4.2h-1.8C960.7,165.2,960.4,165.1,960.3,165.1z"/>
			<path class="st1" d="M975.8,98.3l0.4,0.1l0.4-0.1c5.6-0.8,6.4-3.9,6.4-5.8l0-0.3c-0.9-5.4-4-6.2-5.8-6.2h-0.9
				c-1.9,0-4.5,0.9-5.7,5.4l-0.1,0.2v0.8C970.5,94.5,971.4,97.1,975.8,98.3z"/>
			<path class="st1" d="M981.6,164.7V108c0-1.2-0.8-2.1-2-2.4l-0.2,0h-9l-1.9,1v3.2h1.8c1.5,0,1.6,0.5,1.6,1.3v52.8
				c0,0.8-0.1,1.3-1.6,1.3h-1.8v1.8c0,1.4,1,2.4,2.4,2.4h11.8l2.1-0.8v-3.4H983C981.8,165.2,981.6,165,981.6,164.7z"/>
			<path class="st1" d="M1052.2,125.4l-0.1-0.2c-6.6-13.6-16.5-20.5-29.6-20.5h-0.8c-4.5,0-9.2,1.2-13.9,3.6l-0.1,0.1
				c-11.6,7-17.5,16.9-17.5,29.5c0,4.1,0.9,8.5,2.7,13.1l0.1,0.2c6.8,13,16.6,19.7,29.1,19.7h1.1c4.6,0,9.5-1.3,14.4-3.9l0.1-0.1
				c11.3-7.2,17-16.9,17-28.9C1054.6,134,1053.8,129.8,1052.2,125.4z M1000,135.9c0-1.8,0.3-4.1,0.8-6.9c4-13.1,10.8-19.5,20.9-19.5
				h2c0.6,0,2,0.1,5.1,0.8c10.8,5,16,13.8,16,26.8v1.4c0,2.9-0.4,5.8-1.1,8.9c-4,12.8-10.9,19-21.1,19c-2.7,0-5.8-0.7-9.3-2.1
				c-8.8-6-13.1-14.1-13.1-24.7V135.9z"/>
		</g>
	</g>
	<g>
		<g>
			<ellipse class="st0" cx="210.4" cy="212.6" rx="209.3" ry="209.8"/>
		</g>
		<g>
			<g>
				<g>
					<path class="st2" d="M371.6,241.4c3.4-6.6-4.5-2.1-6.1-5.6c5.4-13-7.9-6.2-9.6-17.9c-4.2-11.6,12.7-1.2,9-8.6
						c-1.7-2.9,3.6-5.9-0.8-7.5c-0.9-0.4-2.6-0.7-1.8-2c3.1-5.4-1.8-3.6-4.8-4.9c-1.6-0.9-2.1-5.1-5-1.5c-6.8-5.1-5.8,11-11.8,13.1
						c-5.3,2.6-2.8-9.9-10.7-8.8c-8.3,1.1-18.1-16.4-5.5-13.5c11.7,6.9,12.4,7.8,17.1-4.9c0.6-0.7,1.4-1.9,2.3-1.2
						c5.1,3.5,4.8-3.2,9.7-3.9c-0.7-2.7-5-2.8-6.6-5.1c1-1.4,3.1,0.7,3.3-1.6c0.2-2.6,1.1-5,2.4-7.3c1.9-5.2-5-0.3-7-1.9
						c3.1-9.4-4.5-14.8-12.5-7.8c-2.3,1.5-11.8,0.1-10.9-4.2c0.9-4.5,13.6,0.5,3.9-5.1c-1.9-2.3,3.2-4.2-0.5-4.9
						c-5.5-0.2-4-5.3,0.7-4.3c2.7-1.2,6.7,3.8,8.3-1.9c5.4,2.4,6.3-4.2,1-6.5c-1.5-0.4-0.1-1.4,0.5-2c7.3-6.8-5.5-10.2-4.2-17.7
						c-1.6,0.4-2.8,2.9-3.6,1c-2-5.3-8.3-2.3-11.1-7.2c-4.6-3.2-4.1,12.6-1.7,15.7c2.5,2.5-2.6,5-4.5,2.9c-2.3-3.1-4.9-7-9.4-6.6
						c-3.3,2-4.1-2.4-0.7-2.7c2-1.2,2.5-6.4,0.4-7.5c-6-4.4-2.1-14.2-10.9-16.5c-3-1.9-8.2-1.4-9.7-5.1c-0.3-4.1-5.5-1.7-6.2-5
						c4.4-5.3,4.2-5.3-0.3-11.7c-4.5-9.7-14.9,0.7-18.5-4.3c-1.1-8.3-6.9-6.5-12.5-4.7c-5.8-3.5-5.5,7.2-6.9,10.5
						c-3.2,8.9-9.7,2.6-15.5,3.1c-6-1.3-1.5,13.8-8.6,6.3c3.6-17.5-17.2-9.9-11.4-20.2c4-4.5-6.6-10.7-8.3-5.4
						c-0.7,6-8.1-2.2-6.9,4.3c1.4,4.4-4.6,8.4-7.6,4.5c-2.5-3.5-13.3,0.1-11.6,4.9c0.3,1.4,1,2.8-1.5,3c-0.7,5-2,14.6-8.6,15.6
						c-3-1.7,0.7-7.1-4.5-7.1c-0.9,0-1.2-0.8-1.2-1.5c-2.1-5.8-12.3-5.6-17.4-10c-5.4-4-15.9,14-14.4,18.3c2.3,5.5-5.4,2.9-5.7,6.3
						c-1.4,5.9,12,7.6,4.9,12.3c-5.5,4.5,4.4,11.9-2,17.3c-1.5,12-10.6,5-4.6-2.5c3.7-3.9-2.1-3.8-4.5-5c-5.1-2.5-2.5,7.3-8.2,5.1
						c-7.7,0,0.9-9.2-7.2-9.4c-16.9-2.3-7.2,9-12.8,16.9c-1.6,4.7-7,3.7-2,9.2c2.6,7.6-15,9.1-2.5,19.2c3.7,2.4-5.3,2.9-2,6.8
						c1.2,2.6-5.3,1.6-4.7,4c0.7,2.7-1.5,6,1.6,8.3c3.6,0.9-0.3,5-2.5,2.3c-3-3.2-7.5-2.4-11.3-3.3c-3.9,0.4,0.1,7.5-3,9.2
						c-2,1.6-0.8,2.1,0.8,2.8c7.7,4-6,3.2,0.3,17.2c-0.6,2.4,0.6,2.8,2.6,3c13.7,1.2-6.7,6.4-8.9,9.2c17.8,3.3,19.7-16.7,39.1,3.9
						c11.3,8.8,11,2.4,4.2,10.1c0.1,2.5-1.2,3.7-3.1,4.7c-6.4,3.1,2.8,5.1,3.1,9.1c0.7,3.3,2.7,4,5.5,2.8c3.1-1.4,2.3,2.4,2.5,4.1
						c-0.2,8.5,9.4-2.7,14,1.9c17.2,8,27.1,3,10.6,22.1c-1.9,2.1-0.5,6.7,2.3,3.3c2.8-5.5,3.6,2.4-0.1,3.5c-4.1,2.2-8.7-0.4-12.8,2
						c6.7,2.7,14.1-2.1,20.5,2.8c2.7-0.1,5-2.2,8-1c16.4,1.2,1.6,9.9,16.7,14.2c2.5,3.1,8.5-2.9,7.6,3.6c-4.3,9.5-13.2,6.6,0,16.3
						c1.2-0.7,6.5-2.9,4.7,0.4c-2.8,4.3-14.4,7-15.8,1c2.3-3.9-4.1-7.1-7.2-5.7c-8.5,4.9-9.5-10.8-18.3-5.6
						c-3.2,1.6-5.1,6.3-9.3,4.4c-2.8-2.1,2.6-7.4-3.3-8c-3.4-0.3-4.4,0.4-6.4,3.4c-1.2,1.8-4.3,5.5-2.3,7.9c0.4,0.5,2.3,0.8,3,1.1
						c1.3,0.5,2.6-0.3,3.9-0.8c1.2-0.6,2.9-0.9,3.8,0.2c0.3,0.3,0.4,0.8,0.7,1.2c0.8,1.2,2.5,1.4,4,1.4c3.1,0.1,6.4,0.2,9.3-0.9
						c1.3-0.5,2.6-1.2,4-1.4c1.4-0.2,3.1,0.2,3.7,1.5c0.8,1.6-0.3,3.8,0.9,5.1c1.3-0.5,2.8-1,4.1-0.7c1.4,0.2,2.7,1.5,2.5,2.9
						c11.3,0.1,24.1-5.9,34.4,2c3.3,2.5,6.4-6.5,10.4-2c1.8,1.7,0.9,4,0.7,6.2c-0.2,2.8-0.3,5.5-0.4,8.3c-0.1,5.3,0.1,10.7-0.3,16
						c-0.5,7.3-0.9,14.5-1.2,21.8c-0.6,15.1-0.9,30.2-2.1,45.3c-0.1,0.8-0.1,1.6,0.1,2.3c0.5,1.6,2.1,2.6,3.7,3.1
						c3.1,1.1,6.5,1.2,9.8,0.9c1.5-0.2,3-0.4,4.3-1.1c5.3-2.7,3.4-9.3,2.6-13.9c-1.3-7.3-1.6-14.4-1.5-21.8c0.1-9.6-2.2-18.7-3.1-28
						c-0.9-8.9,1.7-17.5,1.7-26.3c0-7.1-0.4-14.5,0.9-21.6c0.9-4.8,4.5-12.5,8.6-4.3c14.8-5.4,39.6,3.2,58.6,3.8
						c8.8,2,24.3-4,27.4,7.3c2.9,3.1,7.9,15.9,11.4,7.2c-2.4-24.6,12.4-0.4,20.9-21.8c4.1-5.1,11.9,7.3,16.1,4.1
						c1.1-3.9,3.9-7.9,0.3-11.7c-6.2-3.7-1.6-15.4-8-16.7c-4.3,2,2.6,7.3-0.5,10.3c-2,1.5-4.8,7.2-7.5,4.7c-2.2-2.8-1.8,2.3-3.9,2
						c-2.3-0.6-0.7-4.9-3.6-4.6c-12,21.4-8,1.9-18,4c-5.2,1.8,0.4,9.7-4.3,11.5c-11.3,4.9-5.5-16.2-12.4-12.6
						c-2.3,8.8-6.8-3.1-9.6,8.3c13.4,6.4-8.4,2.4-13.1,2.7c-5.9-0.3-7.6-1.7-8-7.6c0.9-5.6-14.1-6.6-4.4-12.2
						c6.8-1.4,12,3.2,18.2,0.1c2.8-2.1,4.4-7.3,9.6-6.5c7.7-4.3,14.4,8.8,21.4,1.5c7.4-7.1,18-3.6,25.4-10.4
						c-6,0.8-7.1-8.8-14.5-7.4c-8.4,0.9-7.5-5.4-14.3-7.5c1.6-4.2,8.3-5,11.8-7.7c-12.9,1.1,5.8-15.2,8.7-19.5
						c1.4-1.6,2.4-1.7,3.3,0.6c11.6,11.5,1.1,10.7-8.9,17.4c5.3-1.4,10.7-5.5,16-5.1c2.9,1.1-0.4,6,2.6,7c4-0.4-0.1-5,2.2-6.3
						c6.9-4.5,3.9,10.7,8,14.7c2.6,7.4,15.2-10.2,15.2,3.2c1.6,7.4,4.4-7.7,8.4-0.6C374.1,246.3,375.4,249,371.6,241.4z
						 M168.5,117.5c1,0.2,1.9,0.6,2.7,1.3c2.4,2.2,2.3,6.4,5.2,7.9c2.4,1.2,4.4-0.5,6.7-0.7c0.3,0,0.5,0,0.7,0.2
						c0.1,0.1,0.1,0.3,0.1,0.5c0,0.6,0,1.2-0.1,1.8c-0.1,0.5-0.2,1-0.1,1.6c0.3,1.5,2.3,2,3.1,3.3c0.1,0.1,0.1,0.3,0.1,0.5
						c-0.1,0.2-0.2,0.2-0.4,0.3c-4.8,1.3-11.9-5.3-15-8.3c-2.1-2-4-4.2-6.5-5.6c-1.1-0.6-2.4-0.8-3.5-1.4c-1.1-0.6-2.1-1.6-3.1-2.3
						c-1-0.7,0.5-1.5,1-1.6c1.2-0.3,3,0.5,4.1,1c1.4,0.7,2.1,1.2,3.7,1.4C167.6,117.3,168.1,117.4,168.5,117.5z M156.9,127.2
						c0.3-2.7,4.2-2.5,5.2-0.6c1,2.1,3.1,3.3,4.9,4.6c2.3,1.7,4.3,3.8,6.6,5.5c2,1.4,4.2,2.7,6.6,3.4c1.1,0.3,2.2,0.4,3.3,0.3
						c1.1-0.1,2.3-0.8,3.4-0.8c1.6,0,3.6,1.2,4.9,2.1c2.9,1.9,3.5,4.5-0.6,5C180.7,140.5,160,140,156.9,127.2z M178.4,239.2
						c-6.8-1-16.7,8.5-21.4,2.4c-4.1-16.1,17.7-9.1,26.4-9.8c-0.8-6,8.3-8.5,10.4-3.1c0,1.5-1.2,2-2.4,2.2
						C180.3,229.8,188,238.7,178.4,239.2z M181.1,223.6c-3.7,1.7-25.9,4-17.9-2.5c6.6-0.7,1.3-9.4,6.4-9.7c3.9,0.9,9.8-2.5,10.5,3.6
						C183.7,205.7,190.2,223.6,181.1,223.6z M191.1,215.5c1.4-0.1,2.1-0.2,2.9-0.3C203.7,213.1,199.2,230.7,191.1,215.5z
						 M170.2,202.5c-2.7,1.4-12.4,1.1-12.5-3.4C159.5,194.3,169.8,198.6,170.2,202.5z M169.9,193.4c2.3-3,24.5,1.2,23,5.6
						C186.2,198.1,174,199.6,169.9,193.4z M168.8,164.1c1.4,7.3-16-11.3-8.9-10.5c8.2,4,8.7-7.4,15.4-6.3c2.5,0.4,5.5,1.9,7.7,3.2
						c0.9,0.5,2.2,1.3,2.6,2.4c0.4,1.2-0.5,2.8-0.5,4.1c0,0.2,0,0.4,0.1,0.6c0.1,0.2,0.3,0.3,0.5,0.3c1,0.5,3.1,1.6,3.4,2.9
						c0.4,1.8-1.4,1.6-2.4,2.2C182.1,165.6,167.2,156.9,168.8,164.1z M185.6,172.5c0.3,9.6-10.9,8.1-12,1.5
						C175.2,169,183.4,168.9,185.6,172.5z M150,161c4.3,1.9,31.5,23.5,18,23.1c-3.8-0.4,1-5.3-2.2-6.9c-2.9-2.5-8,2.1-9.8-1.1
						C155.7,170.6,148.1,166.2,150,161z M116,160.5c10.4,1.2-7.8-13.1,3.2-10.5c5.8,4.2,11-1.2,16.8,2.1c2,0.3,3.2,2.1,3.1,4.2
						c0.7,5,12.9,2.9,8.2,11.7c-1.8,4.6-13.6-1.7-11.8,5.9c0.2,2.6,6.9-0.9,5.6,4.4c-6.3,2-7.2-4.1-13.5,0.6c-1-0.4-2.3-0.8-2.1-2.1
						C125.7,172.5,104.9,163.1,116,160.5z M92.5,213c-9.4-8.6-29.3-13.5-16.9-29.2c0.6-9.4,0.9-22.6,9.6-27.9c2.4,2.5-2.7,9.3,3.8,9
						c11,1.4,5.3,14.6,17.2,1.6c5.6-0.3,23.2,13.8,24.4,20.2c-8.3,0-2.8,3.9,2,5.7c1.4,0.4,3.3,0.4,3.9,1.4
						c3.3,5.1,12.4-1.1,13.3,7.1c2.9,7.2-30.4,0.6-31.9-1.7c-3.8-2.2,0.5,4.6-3.6,9.4c-0.6,3.6,6.7,3,7.2-0.6
						c5.9-8.6,22.4-0.6,31.2,0.9c10.4,3.4,0.1,4.5-0.8,9.4c2.2,2.9,6.8,3.4,6.2,8.4c-11.5,6.6-24.5-9.3-36.3-11.4
						C105,211.5,119.3,227,92.5,213z M156.3,255.1c-4.2-0.1-8.2,0.5-12.6-1.2c4.9,2,4.7,8.6,10,10.1c5,7-12.1,2.7-14.9-1.1
						c9.7-0.8,2.9-1.9,1.3-6.8c-1.4-7.2-11.2-7-12.1-15.2c-6.5,7.5-20.3,1.7-20.9-9.4c1.6-5.2-6.3-5.7-4.6-10.1
						c-0.2-1.5,10.4-1.4,9,1.6c0.2,4.4,10.5-2.4,5,8.1c13.2-4.9,11.5,1.9,19,9.7c6.4,1.9-3.5-7.4,2.5-6c28.3,6.5,5.5,7.1,15.7,14.9
						c11.4-1.3,25.5-13.1,39.1-8.8c4.5,4.8-8.2,3.8-1.3,11.8C202.3,278.5,169.8,261.5,156.3,255.1z M194.3,306.8
						c-3.9,10.9-20.9,4.1-26.6-3.1c-3.1-5.1,6.5-5.7,4.7-11.6c-0.5-11.2,11.7,1.9,8.2,5.5c-2.2,1.6,0.2,7.2,2.2,3.8
						C185.1,295.8,195.4,301.8,194.3,306.8z M196,207.6c-5.2,3.1-18.7-2-21.4-7.5C180.1,199.9,194.5,200.6,196,207.6z M308.5,168.1
						c-1.2-10.1,3.7-8.5,5.7-11c-0.1,5.7-0.8,8.6,7.4,15.2C316.1,173.8,307.7,167.6,308.5,168.1z M292.5,188.3
						c1.9,1.6,5.5,5.8,2.1,6.9c-4.7-0.9-8.2,5.8-12.3,3.7C281.6,195.3,289.3,188.2,292.5,188.3z M276.5,184.7
						c-22.6,6.2-12-5.4,3.1-6c5.9,3.1,1.5,11.1-4.3,11.8C274.8,188.3,279.2,186.9,276.5,184.7z M271.1,173.3
						c3.8-5.1,10.8-4.8,14.7-7.8c1.1-3.6,10.2-1.4,5.3,1.6C286.6,169.7,273.5,178.4,271.1,173.3z M284.9,142.3
						c20.3-10.5-0.3,18.2-9.5,21.4c-2,1.4-6.4-8.1-2.8-8.5C276.9,151.4,275.5,141.4,284.9,142.3z M264.3,135.1
						c5.4-21.1,21.7,11.7,3.6,8.5c-0.5-0.3-1.2-1-1.1-1.2C268.4,139,263.7,137.8,264.3,135.1z M249.2,122.3
						c7.3-3.1,11.9-10.5,8.1,1.7c-2.8,1.8-6,3.1-7.4,6.7C246,132.1,244.9,122.8,249.2,122.3z M245.1,167.3c0.3-1.8,4.7-5.1,6.1-3.3
						c1.9,6.4,8.1,5.9,6.6-1.2c-1.7-10.3,15.9,10.6,4.3,11.8c-5.9,3.4-5.9,3.4-9.5-2.5C251.1,169,245,171.4,245.1,167.3z M244,144.4
						c0.5-0.2,1.1-0.3,1.9-0.4c0.3,0,0.6-0.1,0.9-0.2c0.3-0.1,0.5-0.4,0.7-0.6c2.3-2.4,4.8-4.7,7.3-6.9c0.2-0.2,0.5-0.4,0.8-0.5
						c1.1-0.3,1.8,1.1,1.8,2.2c0,1.8-0.8,3.6-2.2,4.8c-2.1,1.7-5.6,2.1-6.7,4.6c-0.2,0.3-0.3,0.7-0.5,1c-0.3,0.3-0.7,0.4-1.1,0.5
						c-3,0.7-7.4,1.5-10.4,0.4c0.9,0.3,4.1-2.7,4.8-3.2C242.5,145.3,243.1,144.8,244,144.4z M226.1,182.7c-0.6,1-7.7,2.8-5.6-0.5
						c0.7-1.1,2.1-2,3.2-2.6c1.6-0.9,2.6-1.2,4.2-0.7c0.3,0.1,0.6,0,0.9,0.1c1,0.1,1.8,0.8,2.3,1.7c0.4,0.9,0.5,1.9,0.4,2.9
						c-0.1,2.1-0.8,3.2-2.1,4.8c-0.3,0.3-0.6,0.7-1,0.7c-1.2-0.1-0.2-4.9-0.3-5.8c0-0.4-0.1-0.8-0.3-1.1
						C227.1,181,226.5,182,226.1,182.7z M228.7,261.9c4.3-1.1,1.8-6.4,3.5-8.7c3.6,0,2.9,6.3,4,8.9
						C238.8,268.2,219.8,265,228.7,261.9z M234.9,222.2c-18.1,3.8,10.2-14.5,17.8-11.6c3.8-0.4,3,2.8,1.5,4.9
						C249.3,222.7,239.3,214.3,234.9,222.2z M210.5,225.3c3.6,0.3,7.2-1.1,8.7,2.7C215,236,191,229.9,210.5,225.3z M245.2,190.3
						c0.2,0.1,0.5,0.2,0.7,0.3c0.2,0.1,0.3,0.2,0.4,0.3c0.1,0.1,0.2,0.3,0.2,0.5c0.2,1-0.1,2.1-0.6,3c-2.1,3.8-6.4,6-9.6,8.7
						c-1,0.8-2.4,1.7-3.6,1.2c-0.9-0.4-1.4-1.6-1.2-2.6c0.3-2.3,2-3.6,4-4.2c2.1-0.6,5.2-0.2,7-1.5c0.8-0.6,1.4-1.4,1.5-2.4
						c0.1-0.5,0.1-0.9,0.1-1.4c0-0.6,0-1.2,0-1.8c0-0.1,0-0.2,0.1-0.2c0.1,0,0.1,0,0.2,0C244.6,190.1,244.9,190.2,245.2,190.3z
						 M223.2,150.3c-0.1,0.3-0.4,0.5-0.7,0.6c-1.1,0.5-3.1,0.1-4.2-0.2c-0.7-0.2-1.4-0.7-2.2-0.8c-0.8-0.1-1.5,0.4-2.2-0.3
						c-0.2-0.2-0.4-0.5-0.5-0.8c-0.3-0.9-0.4-1.9-0.4-2.8c0-1.6-1.3-9.6,0.8-10.2c0.6-0.1,1.1,0.2,1.5,0.7c0.3,0.5,0.5,1,0.7,1.6
						c0.4,0.9,1,1.8,1.9,2.3c0.9,0.5,2.1,0.5,2.8-0.2c0.4-0.3,0.6-0.8,0.8-1.2c1.5-2.6,3.6-4.9,6.3-6c3.5-1.4,7.4-0.6,11,0.2
						c0.5,1.7-1.4,3.1-3.1,3.8c-2.2,0.9-4.6,1.4-7,1.4c-0.7,0-1.4,0-2,0.3c-0.7,0.3-1.3,0.8-1.7,1.4c-1.3,1.6-2.3,3.7-2.4,5.8
						C222.6,147.1,223.8,149.1,223.2,150.3z M215.8,161.1c0.5,0.4,1.1,0.8,1.7,1c2.4,0.9,5.1-1.3,7-2.5c-0.5,3.1-6,6-4.1,5.5
						c-1.7,0.9-4.7,3.2-6.5,2.1c-2-1.2-3.7-8.6-4.6-10.8c1.7,0.9,3.4,2,4.9,3.3C214.8,160.2,215.3,160.7,215.8,161.1z M252.6,293.3
						c-8.5,12.1-21.9,10.1-33.8,3.6c-3.2-1.6,2-6.7-1.2-8.5c-2.4-1-6.5,0.1-4.3,3.2c2.8,3.2-2.9,7.2-4.3,2.9
						c-7.2-26.3,23-14.4,37.2-12.8c2.3,0.4,4.8,0.7,3.8,4.4C249,288.9,255.9,290.5,252.6,293.3z M267.7,259.4
						c-5.7,6.9-12.7-2.7-19.2,3.5c-4.2,3.6-6.6,3-8.4-2.3c-0.1-1.2,3.2-4.7,5.1-4.1c1.2,0.2,2.4,0.3,2.9-0.5
						C250,251.7,275,253.5,267.7,259.4z M273.8,266.5c0.7-0.1,1.3-0.1,1.7-0.2c1.2-0.3,2-1.5,2.8-2.5c0.8-1,1.9-1.8,3-2.4
						c0.2-0.1,0.4-0.2,0.6-0.2c0.7,0,0.9,1,0.8,1.7c-0.1,1.2-0.3,2.4-1,3.4c-1.4,1.9-4.2,2-6.5,2.6c-1.6,0.4-8.6,6-9.4,2
						C264.9,266.8,270.5,266.7,273.8,266.5z M273.6,238.1c-3.5,12.5-19.4,15.5-27.8,7.7c1.8-2.5,7.7,1.8,8.8-2.8
						c1.7-1.4,4.4-0.3,3-3.5C255.7,234.5,275.2,233.9,273.6,238.1z M300.7,220.1c-7.2,9.6-11.6-5.5-21-2.9c-0.2,2.6,3.2,5.7-1.4,5.9
						c-5.2-0.5-2.7,6.2-6.7,6.8c-6.5-4.5,0.4-12.2-0.4-18.6c-1.5-4.7,9.4-2,5.4-6.8c-0.7-0.7,0.8-1.3,1.5-1.4
						c12.5-0.7,21.1-5.6,31.7-12.1c6.1-0.7,1.5,9.2,7.1,10.8C312.8,207,304.6,213,300.7,220.1z M318,226.3
						c-5.7,1.5-10.4,2.3-9.8-6.1c0.8-5.2,4.7-0.6,7.7-1C320.3,217.1,323.9,226.7,318,226.3z M306.6,237.7c-1.1-1.1,0.2-4.1,0.7-6.2
						C313,230.9,310.2,237.9,306.6,237.7z"/>
				</g>
			</g>
		</g>
	</g>
</g>
</svg>
