<?xml version="1.0" encoding="utf-8"?>
<!-- Generator: Adobe Illustrator 27.9.0, SVG Export Plug-In . SVG Version: 6.00 Build 0)  -->
<svg version="1.1" id="Layer_1" xmlns="http://www.w3.org/2000/svg" xmlns:xlink="http://www.w3.org/1999/xlink" x="0px" y="0px"
	 viewBox="0 0 1065.8 425.2" style="enable-background:new 0 0 1065.8 425.2;" xml:space="preserve">
<style type="text/css">
	.st0{fill:#2E4623;}
</style>
<g>
	<path class="st0" d="M482.4,193.2l-7,18.6l-0.9,2.3l-34.7,90.7l-0.1,0.3l-20.5,53.6h5.4l18.6-48.6h71.2l20.3,48.6h22.9l-71.1-165.3
		H482.4z M445.4,304.7l31.7-82.7l35.3,82.7L445.4,304.7z"/>
	<path class="st0" d="M634.8,183.3c-19.5-9.3-31.8-8.9-41.1,3.5l5,4.8c7.5-8.1,14.6-10.4,31-2c19.8,10.1,32.3,1.8,37.5-11.6
		l-4.8-3.2C658,182.8,649.9,190.5,634.8,183.3z"/>
	<polygon class="st0" points="685.9,331.3 575.3,193.1 570,193.1 570,359.3 575.2,359.3 575.2,221.5 685.9,359.3 691.1,359.3 
		691.1,193.1 685.9,193.1 	"/>
	<polygon class="st0" points="739.5,274.4 793.8,274.4 793.8,269.2 739.5,269.2 739.5,198.5 816.9,198.5 816.9,193.3 716.6,193.3 
		716.6,359.4 819.8,359.4 819.8,354.1 739.5,354.1 	"/>
	<path class="st0" d="M871.8,309.7c0,20.4-2.5,44-30.9,44.5c-9.5,0.2-15.6-2-19.5-4.9l-2.8,3.1c4.4,4.2,15.7,7,22.3,7
		c10.9,0.3,21.6-2.5,30.9-8.2c14-9.1,22.9-26.1,22.9-52.8V193.2h-22.9V309.7z"/>
	<path class="st0" d="M988.8,194.7c-43.5,0-77.1,40.9-77.5,84.9c-0.4,43.9,32.3,81.3,76,81.3c42.5,0,77-37.7,77.5-81.6
		C1065.1,235.3,1030.5,194.7,988.8,194.7z M987.3,355.6c-35.2,0-53.2-40.2-53.2-76.6c0-44.9,22.1-79,54.6-79
		c35.6,0,53.4,42.7,53.1,79.1C1041.5,315.5,1026.5,355.6,987.3,355.6z"/>
	<path class="st0" d="M448.5,143.2c7.3,18,20.2,27.2,38.1,27.2h0.3c8.5,0,16.7-1.9,24.4-5.8c2.5-1,5.5-3.4,5.5-9.2v-8.2l-0.9-2h-1.2
		c-1.1,0-2.1,0.8-2.3,2l0,0.2v1c0,2.6-0.9,5.4-2.5,8.2c-4.4,6-12.1,9.1-22.9,9.1h-0.8c-6.8,0-13.2-2.5-18.8-7.5
		c-8-8.4-12.1-19.2-12.1-32c0-8.9,1.8-17,5.2-24.1c6.6-11.3,14.7-16.8,24.9-16.8h6.1c13.1,2,19.5,7.8,19.5,17.8v2.1h4.2V89.7
		l-0.8-0.5c-7.9-5.8-16.8-8.7-26.4-8.7h-2.8c-5.2,0-11.2,1.5-17.8,4.5l-0.2,0.1c-14.3,8.9-21.5,22.6-21.5,40.5
		c0,5.4,1,11.3,2.9,17.5L448.5,143.2z"/>
	<path class="st0" d="M586.6,137.9c0-3.9-0.8-8.1-2.4-12.5l-0.1-0.2c-6.6-13.6-16.5-20.5-29.6-20.5h-0.8c-4.5,0-9.2,1.2-13.9,3.6
		l-0.1,0.1c-11.6,7-17.5,16.9-17.5,29.5c0,4.1,0.9,8.5,2.7,13.1l0.1,0.2c6.8,13,16.6,19.7,29.1,19.7h1.1c4.6,0,9.5-1.3,14.4-3.9
		l0.1-0.1C580.9,159.7,586.6,149.9,586.6,137.9z M576.7,138.4c0,2.9-0.4,5.8-1.1,8.9c-4,12.8-10.9,19-21.1,19
		c-2.7,0-5.8-0.7-9.3-2.1c-8.8-6-13.1-14.1-13.1-24.7v-3.7c0-1.8,0.3-4.1,0.8-6.9c4-13.1,10.8-19.5,20.9-19.5h2c0.6,0,2,0.1,5.1,0.8
		c10.8,5,16,13.8,16,26.8V138.4z"/>
	<path class="st0" d="M594.3,169.4h11.9l2-0.9v-3.3h-1.8c-1.5,0-1.6-0.5-1.6-1.3v-33.2c0-2,0.8-4.6,2.4-7.8
		c4.4-7.8,9.4-11.6,15.3-11.6h1.2c2.1,0,4.1,0.3,6,1l0.1,0c4.3,1.4,6.4,5.7,6.4,13.1v39.3c0,0.2,0,0.2,0,0.2
		c-0.1,0.1-0.4,0.2-1.3,0.2h-1.8v4.2h15.7v-4.2h-1.8c-0.6,0-0.9-0.1-1-0.1c0,0,0,0,0,0v-43.9c0-9.3-6.3-14.7-18.8-16.2l-0.2,0
		c-8.7,0-16.1,3.8-22,11.3V108c0-1.3-0.9-2.3-2.2-2.4l-8.7,0l-1.9,1v3.2h1.8c1.2,0,1.3,0.2,1.3,0.5v54.4c0,0.3-0.1,0.6-1.3,0.6H592
		v1.8C592,168.4,593,169.4,594.3,169.4z"/>
	<path class="st0" d="M706.5,164.8V83.1c0-1.2-0.9-2.2-2.2-2.4l-8.4,0l-2,0.9v3.1l1.6,0.2c1.1,0.1,1.6,0.4,1.6,0.5c0,0,0,0,0,0.1v25
		c-3.7-1.8-7.7-2.7-11.9-2.7H684c-4.4,0-9,1.2-13.7,3.7l-0.1,0.1c-10.8,6.8-16.2,16-16.2,27.6v0.3c0,3.6,0.8,7.6,2.3,11.9l0.1,0.2
		c6.4,12.8,15.8,19.3,27.9,19.3h1.1c4.1,0,8.2-0.9,12.2-2.8c0.3,0.8,0.9,1.4,2,1.4h7.9l2-0.9v-3.3h-1.8
		C706.7,165.2,706.6,165,706.5,164.8z M697.2,161.5c-3.5,3.1-7.4,4.6-11.9,4.6H684c-4.5,0-8.5-1.6-12.1-4.9
		c-5.6-5.7-8.3-12.3-8.3-20.1v-1.8l0-0.1c0-0.1,0-0.2,0-0.3v-1.4c0-2.3,0.3-4.7,1-7.3c3.8-12.1,10.4-18,20.3-18
		c4.8,0,8.8,1.6,12.4,4.8V161.5z"/>
	<path class="st0" d="M717.6,151.1c6.8,13,16.6,19.7,29.1,19.7h1.1c4.6,0,9.5-1.3,14.4-3.9l0.1-0.1c11.3-7.2,17-16.9,17-28.9
		c0-3.9-0.8-8.1-2.4-12.5l-0.1-0.2c-6.6-13.6-16.5-20.5-29.6-20.5h-0.8c-4.5,0-9.2,1.2-13.9,3.6l-0.1,0.1
		c-11.6,7-17.5,16.9-17.5,29.5c0,4.1,0.9,8.5,2.7,13.1L717.6,151.1z M724.8,135.9c0-1.8,0.3-4.1,0.8-6.9c4-13.1,10.8-19.5,20.9-19.5
		h2c0.6,0,2,0.1,5.1,0.8c10.8,5,16,13.8,16,26.8v1.4c0,2.9-0.4,5.8-1.1,8.9c-4,12.8-10.9,19-21.1,19c-2.7,0-5.8-0.7-9.3-2.1
		c-8.8-6-13.1-14.1-13.1-24.7V135.9z"/>
	<path class="st0" d="M787.1,169.4h11.8l2.1-0.8v-3.4h-1.8c-1.6,0-1.6-0.4-1.6-0.8v-34.1c0-0.7,0.2-2.2,1.3-5.4
		c4.3-9.2,9.8-13.7,16.6-13.7h1.5c2.6,0,5.1,0.8,7.6,2.3l0.1,0.1c3.4,1.8,4.2,7.9,4.2,12.7c0,5.6-0.1,9.3-0.3,11l0,0.2l0,0.2
		c0.2,3.4,0.3,7.6,0.3,12.5v14.6c0,0.2,0,0.2,0,0.2c-0.1,0.1-0.4,0.2-1.3,0.2h-1.8v4.2h15.7v-4l-1.6-0.2c-0.6-0.1-1-0.2-1.3-0.2
		v-43.3c4.3-7,9.3-10.4,15.1-10.4h0.5c2.3,0.1,3.6,0.3,4.3,0.4v0.3l1.3,0.4c4.8,1.4,7,4.8,7,10.6V165c0,0,0,0,0,0
		c-0.1,0-0.4,0.1-1,0.1h-1.8v4.2h15.7v-4.2h-1.8c-0.9,0-1.2-0.2-1.3-0.2c0,0,0-0.1,0-0.3v-44.4c0-1.1-0.2-2.4-0.7-4l-0.1-0.3
		c-3.4-7.3-9.6-11.1-18.3-11.1c-7.5,0-14.4,3.2-20.4,9.4c0,0,0-0.1,0-0.1l-0.1-0.2c-4.2-6-9.8-9.1-16.7-9.1c-9.4,0-17,3.8-22.5,11.3
		V108c0-1.3-0.9-2.3-2.2-2.4l-8.6,0l-2,1v2.9l1.4,0.3c0.9,0.2,1.4,0.4,1.7,0.5v54.4c-0.3,0.1-0.8,0.3-1.7,0.6l-1.4,0.3v1.4
		C784.7,168.4,785.7,169.4,787.1,169.4z"/>
	<path class="st0" d="M892.1,98.3l0.4,0.1l0.4-0.1c5.6-0.8,6.4-3.9,6.4-5.8l0-0.3c-0.9-5.4-4-6.2-5.8-6.2h-0.9
		c-1.9,0-4.5,0.9-5.7,5.4l-0.1,0.2v0.8C886.8,94.5,887.8,97.1,892.1,98.3z"/>
	<path class="st0" d="M897.9,164.7V108c0-1.2-0.8-2.1-2-2.4l-0.2,0h-9l-1.9,1v3.2h1.8c1.5,0,1.6,0.5,1.6,1.3v52.8
		c0,0.8-0.1,1.3-1.6,1.3h-1.8v1.8c0,1.4,1,2.4,2.4,2.4H899l2.1-0.8v-3.4h-1.8C898.1,165.2,898,165,897.9,164.7z"/>
	<path class="st0" d="M922.7,168.6v-3.3h-1.8c-1.5,0-1.6-0.5-1.6-1.3v-33.2c0-2,0.8-4.6,2.4-7.8c4.4-7.8,9.4-11.6,15.3-11.6h1.2
		c2.1,0,4.1,0.3,6,1l0.1,0c4.3,1.4,6.4,5.7,6.4,13.1v39.3c0,0.2,0,0.2,0,0.2c-0.1,0.1-0.4,0.2-1.3,0.2h-1.8v4.2h15.7v-4.2h-1.8
		c-0.6,0-0.9-0.1-1-0.1c0,0,0,0,0,0v-43.9c0-9.3-6.3-14.7-18.8-16.2l-0.2,0c-8.7,0-16.1,3.8-22,11.3V108c0-1.3-0.9-2.3-2.2-2.4
		l-8.7,0l-1.9,1v3.2h1.8c1.2,0,1.3,0.2,1.3,0.5v54.4c0,0.3-0.1,0.6-1.3,0.6h-1.8v1.8c0,1.4,1,2.4,2.4,2.4h11.9L922.7,168.6z"/>
	<path class="st0" d="M975.8,98.3l0.4,0.1l0.4-0.1c5.6-0.8,6.4-3.9,6.4-5.8l0-0.3c-0.9-5.4-4-6.2-5.8-6.2h-0.9
		c-1.9,0-4.5,0.9-5.7,5.4l-0.1,0.2v0.8C970.5,94.5,971.4,97.1,975.8,98.3z"/>
	<path class="st0" d="M970.9,169.4h11.8l2.1-0.8v-3.4H983c-1.2,0-1.3-0.3-1.4-0.6V108c0-1.2-0.8-2.1-2-2.4l-0.2,0h-9l-1.9,1v3.2h1.8
		c1.5,0,1.6,0.5,1.6,1.3v52.8c0,0.8-0.1,1.3-1.6,1.3h-1.8v1.8C968.5,168.4,969.5,169.4,970.9,169.4z"/>
	<path class="st0" d="M992.9,151.1c6.8,13,16.6,19.7,29.1,19.7h1.1c4.6,0,9.5-1.3,14.4-3.9l0.1-0.1c11.3-7.2,17-16.9,17-28.9
		c0-3.9-0.8-8.1-2.4-12.5l-0.1-0.2c-6.6-13.6-16.5-20.5-29.6-20.5h-0.8c-4.5,0-9.2,1.2-13.9,3.6l-0.1,0.1
		c-11.6,7-17.5,16.9-17.5,29.5c0,4.1,0.9,8.5,2.7,13.1L992.9,151.1z M1000,135.9c0-1.8,0.3-4.1,0.8-6.9c4-13.1,10.8-19.5,20.9-19.5
		h2c0.6,0,2,0.1,5.1,0.8c10.8,5,16,13.8,16,26.8v1.4c0,2.9-0.4,5.8-1.1,8.9c-4,12.8-10.9,19-21.1,19c-2.7,0-5.8-0.7-9.3-2.1
		c-8.8-6-13.1-14.1-13.1-24.7V135.9z"/>
	<path class="st0" d="M125.6,176.8c-0.3,1.3,1,1.7,2.1,2.1c6.3-4.6,7.3,1.4,13.5-0.6c1.3-5.3-5.4-1.9-5.6-4.4
		c-1.8-7.6,9.9-1.3,11.8-5.9c4.7-8.9-7.5-6.7-8.2-11.7c0.1-2.1-1.1-3.9-3.1-4.2c-5.7-3.3-11,2.1-16.8-2.1c-11-2.5,7.2,11.7-3.2,10.5
		C104.9,163.1,125.7,172.5,125.6,176.8z"/>
	<path class="st0" d="M165.8,177.2c3.2,1.6-1.6,6.5,2.2,6.9c13.5,0.5-13.8-21.1-18-23.1c-1.9,5.2,5.7,9.6,6,15.1
		C157.8,179.3,162.9,174.7,165.8,177.2z"/>
	<path class="st0" d="M191.1,146.7c4.1-0.5,3.5-3.1,0.6-5c-1.3-0.9-3.3-2.1-4.9-2.1c-1.1,0-2.2,0.7-3.4,0.8
		c-1.1,0.1-2.3-0.1-3.3-0.3c-2.4-0.6-4.6-1.9-6.6-3.4c-2.3-1.7-4.3-3.8-6.6-5.5c-1.8-1.3-3.8-2.5-4.9-4.6c-1-2-4.9-2.1-5.2,0.6
		C160,140,180.7,140.5,191.1,146.7z"/>
	<path class="st0" d="M158.3,116.4c1,0.7,2,1.7,3.1,2.3c1.1,0.6,2.4,0.8,3.5,1.4c2.5,1.4,4.5,3.7,6.5,5.6c3.1,3,10.2,9.7,15,8.3
		c0.2,0,0.3-0.1,0.4-0.3c0.1-0.2,0-0.3-0.1-0.5c-0.8-1.3-2.8-1.8-3.1-3.3c-0.1-0.5,0-1,0.1-1.6c0.1-0.6,0.1-1.2,0.1-1.8
		c0-0.2,0-0.4-0.1-0.5c-0.2-0.2-0.5-0.2-0.7-0.2c-2.3,0.3-4.4,1.9-6.7,0.7c-2.8-1.4-2.8-5.7-5.2-7.9c-0.8-0.7-1.7-1.1-2.7-1.3
		c-0.4-0.1-0.9-0.2-1.3-0.3c-1.6-0.2-2.3-0.8-3.7-1.4c-1.1-0.5-2.9-1.3-4.1-1C158.8,114.9,157.3,115.8,158.3,116.4z"/>
	<path class="st0" d="M157,241.6c4.8,6.1,14.7-3.4,21.4-2.4c9.6-0.5,1.9-9.4,12.9-8.2c1.2-0.2,2.4-0.8,2.4-2.2
		c-2-5.4-11.2-2.9-10.4,3.1C174.7,232.5,153,225.5,157,241.6z"/>
	<path class="st0" d="M182.9,301.4c-2.1,3.4-4.5-2.3-2.2-3.8c3.5-3.6-8.7-16.7-8.2-5.5c1.8,5.8-7.8,6.5-4.7,11.6
		c5.7,7.2,22.7,14,26.6,3.1C195.4,301.8,185.1,295.8,182.9,301.4z"/>
	<path class="st0" d="M191.5,252.9c-6.9-8,5.8-6.9,1.3-11.8c-13.6-4.3-27.7,7.6-39.1,8.8c-10.3-7.8,12.6-8.5-15.7-14.9
		c-6-1.4,3.9,7.9-2.5,6c-7.5-7.8-5.8-14.6-19-9.7c5.5-10.5-4.8-3.7-5-8.1c1.4-3-9.3-3.1-9-1.6c-1.6,4.3,6.2,4.8,4.6,10.1
		c0.6,11,14.4,16.9,20.9,9.4c0.9,8.3,10.7,8.1,12.1,15.2c1.6,4.8,8.4,6-1.3,6.8c2.7,3.8,19.8,8.1,14.9,1.1c-5.2-1.5-5.1-8.1-10-10.1
		c4.4,1.7,8.4,1,12.6,1.2C169.8,261.5,202.3,278.5,191.5,252.9z"/>
	<path class="st0" d="M121.8,215.3c11.9,2.1,24.9,18,36.3,11.4c0.6-5-4-5.5-6.2-8.4c0.9-4.9,11.3-6,0.8-9.4
		c-8.8-1.4-25.3-9.5-31.2-0.9c-0.5,3.5-7.8,4.2-7.2,0.6c4.1-4.8-0.2-11.5,3.6-9.4c1.5,2.3,34.8,8.9,31.9,1.7c-0.9-8.2-10-2-13.3-7.1
		c-0.7-0.9-2.6-1-3.9-1.4c-4.8-1.9-10.4-5.7-2-5.7c-1.2-6.3-18.8-20.5-24.4-20.2c-11.9,13-6.2-0.2-17.2-1.6c-6.6,0.3-1.4-6.5-3.8-9
		c-8.8,5.3-9,18.5-9.6,27.9c-12.4,15.7,7.5,20.6,16.9,29.2C119.3,227,105,211.5,121.8,215.3z"/>
	<path class="st0" d="M157.7,199.2c0.1,4.4,9.7,4.7,12.5,3.4C169.8,198.6,159.5,194.3,157.7,199.2z"/>
	<path class="st0" d="M174.6,200.2c2.7,5.4,16.2,10.6,21.4,7.5C194.5,200.6,180.1,199.9,174.6,200.2z"/>
	<path class="st0" d="M186.7,163c1.1-0.6,2.9-0.4,2.4-2.2c-0.3-1.3-2.4-2.4-3.4-2.9c-0.2-0.1-0.4-0.2-0.5-0.3
		c-0.1-0.2-0.1-0.4-0.1-0.6c0-1.3,0.9-2.9,0.5-4.1c-0.4-1.1-1.7-1.9-2.6-2.4c-2.1-1.3-5.2-2.8-7.7-3.2c-6.7-1.1-7.2,10.3-15.4,6.3
		c-7.1-0.7,10.3,17.8,8.9,10.5C167.2,156.9,182.1,165.6,186.7,163z"/>
	<path class="st0" d="M194,215.2c-0.8,0.1-1.5,0.1-2.9,0.3C199.2,230.7,203.7,213.1,194,215.2z"/>
	<path class="st0" d="M210.4,2.8C94.8,2.8,1.1,96.7,1.1,212.6s93.7,209.8,209.3,209.8s209.3-93.9,209.3-209.8S326.1,2.8,210.4,2.8z
		 M362.6,257.5c0-13.4-12.7,4.3-15.2-3.2c-4.1-4-1.1-19.2-8-14.7c-2.2,1.2,1.9,5.8-2.2,6.3c-3.1-0.9,0.2-5.8-2.6-7
		c-5.3-0.3-10.8,3.8-16,5.1c10-6.7,20.6-5.9,8.9-17.4c-0.9-2.2-1.9-2.1-3.3-0.6c-2.8,4.3-21.6,20.5-8.7,19.5
		c-3.5,2.7-10.2,3.5-11.8,7.7c6.8,2.1,5.9,8.5,14.3,7.5c7.4-1.4,8.5,8.2,14.5,7.4c-7.4,6.8-18,3.3-25.4,10.4
		c-7,7.3-13.7-5.8-21.4-1.5c-5.2-0.8-6.8,4.3-9.6,6.5c-6.2,3.1-11.4-1.5-18.2-0.1c-9.7,5.6,5.3,6.5,4.4,12.2c0.5,6,2.1,7.3,8,7.6
		c4.7-0.3,26.5,3.7,13.1-2.7c2.8-11.3,7.3,0.5,9.6-8.3c6.9-3.7,1.1,17.4,12.4,12.6c4.7-1.9-0.8-9.8,4.3-11.5c10.1-2.1,6.1,17.4,18-4
		c2.9-0.3,1.3,4,3.6,4.6c2.1,0.4,1.7-4.7,3.9-2c2.7,2.4,5.4-3.3,7.5-4.7c3.2-2.9-3.8-8.3,0.5-10.3c6.4,1.4,1.8,13,8,16.7
		c3.5,3.8,0.7,7.9-0.3,11.7c-4.2,3.2-12-9.2-16.1-4.1c-8.5,21.3-23.3-2.9-20.9,21.8c-3.6,8.8-8.5-4.1-11.4-7.2
		c-3.2-11.4-18.6-5.3-27.4-7.3c-19-0.7-43.8-9.2-58.6-3.8c-4.1-8.1-7.7-0.4-8.6,4.3c-1.3,7.1-0.9,14.4-0.9,21.6
		c0,8.8-2.6,17.4-1.7,26.3c0.9,9.3,3.3,18.5,3.1,28c-0.1,7.4,0.3,14.5,1.5,21.8c0.8,4.7,2.7,11.2-2.6,13.9c-1.3,0.7-2.8,0.9-4.3,1.1
		c-3.3,0.3-6.7,0.2-9.8-0.9c-1.6-0.6-3.3-1.5-3.7-3.1c-0.2-0.7-0.2-1.6-0.1-2.3c1.1-15.1,1.4-30.1,2.1-45.3
		c0.3-7.3,0.6-14.6,1.2-21.8c0.4-5.3,0.2-10.7,0.3-16c0-2.8,0.1-5.5,0.4-8.3c0.2-2.2,1.1-4.5-0.7-6.2c-4-4.5-7.1,4.6-10.4,2
		c-10.3-7.9-23.1-1.9-34.4-2c0.2-1.4-1.1-2.7-2.5-2.9s-2.8,0.2-4.1,0.7c-1.2-1.3-0.2-3.5-0.9-5.1c-0.6-1.3-2.3-1.7-3.7-1.5
		c-1.4,0.2-2.7,0.9-4,1.4c-3,1.1-6.2,1-9.3,0.9c-1.5,0-3.2-0.2-4-1.4c-0.3-0.4-0.4-0.8-0.7-1.2c-0.9-1-2.5-0.7-3.8-0.2
		c-1.2,0.6-2.6,1.3-3.9,0.8c-0.7-0.3-2.6-0.6-3-1.1c-2-2.3,1.1-6.1,2.3-7.9c2-3,3-3.7,6.4-3.4c5.9,0.5,0.5,5.9,3.3,8
		c4.2,1.9,6.1-2.8,9.3-4.4c8.8-5.2,9.8,10.5,18.3,5.6c3-1.3,9.4,1.8,7.2,5.7c1.4,6,13,3.2,15.8-1c1.8-3.3-3.5-1.2-4.7-0.4
		c-13.2-9.7-4.3-6.8,0-16.3c0.9-6.6-5.1-0.5-7.6-3.6c-15.1-4.3-0.3-13-16.7-14.2c-3-1.2-5.3,0.9-8,1c-6.5-4.9-13.8-0.1-20.5-2.8
		c4.2-2.4,8.7,0.2,12.8-2c3.7-1.1,2.9-9,0.1-3.5c-2.8,3.4-4.2-1.2-2.3-3.3c16.5-19.1,6.6-14.1-10.6-22.1c-4.6-4.7-14.2,6.6-14-1.9
		c-0.2-1.8,0.6-5.5-2.5-4.1c-2.8,1.2-4.8,0.4-5.5-2.8c-0.2-3.9-9.5-5.9-3.1-9.1c1.9-1,3.1-2.2,3.1-4.7c6.8-7.7,7.2-1.3-4.2-10.1
		c-19.4-20.6-21.3-0.5-39.1-3.9c2.2-2.8,22.6-8,8.9-9.2c-2-0.2-3.2-0.6-2.6-3c-6.3-14.1,7.4-13.3-0.3-17.2c-1.5-0.7-2.8-1.2-0.8-2.8
		c3.1-1.7-0.9-8.8,3-9.2c3.8,0.9,8.3,0,11.3,3.3c2.2,2.7,6.1-1.5,2.5-2.3c-3.1-2.2-1-5.5-1.6-8.3c-0.6-2.3,5.9-1.4,4.7-4
		c-3.3-3.9,5.7-4.4,2-6.8c-12.5-10.1,5.1-11.6,2.5-19.2c-5-5.5,0.4-4.5,2-9.2c5.6-8-4.1-19.2,12.8-16.9c8.2,0.2-0.5,9.3,7.2,9.4
		c5.8,2.2,3.1-7.6,8.2-5.1c2.4,1.2,8.2,1.1,4.5,5c-6.1,7.5,3.1,14.5,4.6,2.5c6.3-5.5-3.5-12.8,2-17.3c7.1-4.6-6.4-6.4-4.9-12.3
		c0.3-3.4,8-0.8,5.7-6.3c-1.5-4.3,9.1-22.2,14.4-18.3c5,4.4,15.3,4.3,17.4,10c-0.1,0.7,0.3,1.5,1.2,1.5c5.2,0,1.5,5.4,4.5,7.1
		c6.6-1,7.8-10.6,8.6-15.6c2.5-0.1,1.8-1.6,1.5-3c-1.7-4.8,9.2-8.4,11.6-4.9c3,3.9,9-0.1,7.6-4.5c-1.2-6.5,6.2,1.7,6.9-4.3
		c1.8-5.3,12.4,0.9,8.3,5.4c-5.7,10.3,15,2.7,11.4,20.2c7.1,7.5,2.6-7.6,8.6-6.3c5.8-0.5,12.3,5.8,15.5-3.1c1.4-3.3,1.1-14,6.9-10.5
		c5.6-1.7,11.4-3.6,12.5,4.7c3.6,5.1,14-5.3,18.5,4.3c4.5,6.4,4.7,6.4,0.3,11.7c0.8,3.3,5.9,0.9,6.2,5c1.6,3.6,6.7,3.1,9.7,5.1
		c8.8,2.3,4.9,12.1,10.9,16.5c2,1,1.5,6.3-0.4,7.5c-3.3,0.3-2.5,4.7,0.7,2.7c4.5-0.4,7,3.5,9.4,6.6c2,2.2,7.1-0.4,4.5-2.9
		c-2.3-3.1-2.9-18.9,1.7-15.7c2.8,4.9,9.1,1.9,11.1,7.2c0.9,1.9,2-0.6,3.6-1c-1.3,7.4,11.5,10.8,4.2,17.7c-0.6,0.6-2.1,1.6-0.5,2
		c5.3,2.4,4.5,8.9-1,6.5c-1.5,5.8-5.6,0.8-8.3,1.9c-4.6-0.9-6.2,4.2-0.7,4.3c3.7,0.7-1.4,2.6,0.5,4.9c9.7,5.7-2.9,0.6-3.9,5.1
		c-0.9,4.3,8.5,5.7,10.9,4.2c8-7,15.6-1.6,12.5,7.8c1.9,1.6,8.8-3.3,7,1.9c-1.3,2.3-2.2,4.7-2.4,7.3c-0.2,2.3-2.3,0.2-3.3,1.6
		c1.6,2.3,5.8,2.4,6.6,5.1c-4.9,0.7-4.5,7.4-9.7,3.9c-0.9-0.7-1.7,0.5-2.3,1.2c-4.7,12.7-5.5,11.7-17.1,4.9
		c-12.6-3-2.8,14.6,5.5,13.5c7.8-1.1,5.4,11.5,10.7,8.8c6-2.1,5-18.2,11.8-13.1c2.9-3.6,3.5,0.6,5,1.5c3,1.3,7.9-0.5,4.8,4.9
		c-0.8,1.4,0.9,1.6,1.8,2c4.5,1.6-0.9,4.7,0.8,7.5c3.7,7.5-13.2-3-9,8.6c1.8,11.6,15,4.9,9.6,17.9c1.5,3.5,9.5-1,6.1,5.6
		c3.8,7.5,2.5,4.9-0.6,15.5C367,249.8,364.2,264.9,362.6,257.5z"/>
	<path class="st0" d="M163.1,221.2c-8,6.5,14.2,4.2,17.9,2.5c9.2,0,2.7-18-1-8.6c-0.7-6.1-6.7-2.7-10.5-3.6
		C164.4,211.7,169.7,220.5,163.1,221.2z"/>
	<path class="st0" d="M192.9,199c1.6-4.4-20.7-8.6-23-5.6C174,199.6,186.2,198.1,192.9,199z"/>
	<path class="st0" d="M315.9,219.3c-3,0.4-6.8-4.2-7.7,1c-0.6,8.4,4,7.6,9.8,6.1C323.9,226.7,320.3,217.1,315.9,219.3z"/>
	<path class="st0" d="M185.6,172.5c-2.2-3.6-10.4-3.5-12,1.5C174.7,180.6,185.9,182,185.6,172.5z"/>
	<path class="st0" d="M213.4,148.8c0.1,0.3,0.2,0.6,0.5,0.8c0.7,0.6,1.5,0.1,2.2,0.3c0.7,0.1,1.4,0.6,2.2,0.8
		c1.1,0.3,3.1,0.7,4.2,0.2c0.4-0.2,0.6-0.4,0.7-0.6c0.6-1.2-0.6-3.2-0.5-4.5c0.1-2.1,1.1-4.2,2.4-5.8c0.5-0.6,1-1.1,1.7-1.4
		c0.6-0.2,1.3-0.2,2-0.3c2.4-0.1,4.8-0.6,7-1.4c1.7-0.6,3.5-2.1,3.1-3.8c-3.6-0.8-7.6-1.6-11-0.2c-2.8,1.1-4.8,3.4-6.3,6
		c-0.2,0.4-0.5,0.8-0.8,1.2c-0.7,0.7-1.9,0.7-2.8,0.2c-0.9-0.5-1.5-1.3-1.9-2.3c-0.2-0.5-0.4-1.1-0.7-1.6c-0.3-0.5-0.9-0.8-1.5-0.7
		c-2.1,0.5-0.8,8.6-0.8,10.2C213,146.9,213.1,147.9,213.4,148.8z"/>
	<path class="st0" d="M214,167.3c1.7,1.1,4.8-1.2,6.5-2.1c-1.9,0.5,3.6-2.4,4.1-5.5c-1.9,1.3-4.6,3.4-7,2.5c-0.6-0.2-1.2-0.6-1.7-1
		c-0.5-0.4-1-0.9-1.5-1.3c-1.5-1.3-3.2-2.4-4.9-3.3C210.3,158.7,212,166,214,167.3z"/>
	<path class="st0" d="M249.9,130.7c1.4-3.5,4.6-4.8,7.4-6.7c3.7-12.2-0.8-4.9-8.1-1.7C244.9,122.8,246,132.1,249.9,130.7z"/>
	<path class="st0" d="M236.6,149.4c3,1.1,7.4,0.3,10.4-0.4c0.4-0.1,0.8-0.2,1.1-0.5c0.3-0.3,0.4-0.6,0.5-1c1.1-2.5,4.5-2.9,6.7-4.6
		c1.4-1.1,2.3-2.9,2.2-4.8c0-1.1-0.8-2.5-1.8-2.2c-0.3,0.1-0.5,0.3-0.8,0.5c-2.5,2.2-5,4.5-7.3,6.9c-0.2,0.2-0.4,0.5-0.7,0.6
		c-0.3,0.1-0.6,0.2-0.9,0.2c-0.8,0.1-1.4,0.2-1.9,0.4c-0.9,0.3-1.5,0.9-2.6,1.7C240.7,146.7,237.4,149.7,236.6,149.4z"/>
	<path class="st0" d="M219.3,228.1c-1.5-3.9-5.1-2.4-8.7-2.7C191,229.9,215,236,219.3,228.1z"/>
	<path class="st0" d="M250,285.9c1-3.6-1.5-4-3.8-4.4c-14.2-1.5-44.4-13.5-37.2,12.8c1.4,4.3,7.1,0.3,4.3-2.9
		c-2.2-3.1,1.9-4.2,4.3-3.2c3.2,1.8-2,6.9,1.2,8.5c11.9,6.5,25.4,8.5,33.8-3.6C255.9,290.5,249,288.9,250,285.9z"/>
	<path class="st0" d="M257.9,162.7c1.5,7.1-4.7,7.6-6.6,1.2c-1.4-1.8-5.8,1.5-6.1,3.3c-0.1,4.1,6,1.8,7.7,4.8
		c3.6,5.9,3.6,5.9,9.5,2.5C273.9,173.4,256.2,152.4,257.9,162.7z"/>
	<path class="st0" d="M307.3,231.5c-0.5,2.1-1.8,5.1-0.7,6.2C310.2,237.9,313,230.9,307.3,231.5z"/>
	<path class="st0" d="M316.9,201.7c-5.7-1.7-1-11.5-7.1-10.8c-10.6,6.5-19.1,11.4-31.7,12.1c-0.7,0.2-2.2,0.7-1.5,1.4
		c4,4.9-7,2.1-5.4,6.8c0.8,6.4-6.1,14.1,0.4,18.6c4-0.6,1.5-7.3,6.7-6.8c4.5-0.2,1.2-3.3,1.4-5.9c9.4-2.6,13.8,12.5,21,2.9
		C304.6,213,312.8,207,316.9,201.7z"/>
	<path class="st0" d="M281.9,261.2c-0.2,0-0.4,0.1-0.6,0.2c-1.1,0.6-2.2,1.4-3,2.4c-0.8,1-1.6,2.2-2.8,2.5c-0.4,0.1-1,0.2-1.7,0.2
		c-3.3,0.3-8.9,0.4-8,4.4c0.8,4,7.8-1.6,9.4-2c2.3-0.6,5.1-0.7,6.5-2.6c0.7-1,0.9-2.2,1-3.4C282.8,262.2,282.6,261.2,281.9,261.2z"
		/>
	<path class="st0" d="M267.7,259.4c7.2-5.9-17.8-7.7-19.6-3.4c-0.5,0.8-1.7,0.7-2.9,0.5c-1.9-0.6-5.2,2.9-5.1,4.1
		c1.8,5.3,4.2,5.9,8.4,2.3C255,256.7,262,266.3,267.7,259.4z"/>
	<path class="st0" d="M236.2,262.1c-1.1-2.6-0.4-8.8-4-8.9c-1.7,2.3,0.9,7.5-3.5,8.7C219.8,265,238.8,268.2,236.2,262.1z"/>
	<path class="st0" d="M321.6,172.3c-8.2-6.6-7.5-9.4-7.4-15.2c-1.9,2.5-6.9,0.8-5.7,11C307.7,167.6,316.1,173.8,321.6,172.3z"/>
	<path class="st0" d="M228.7,179c-0.3,0-0.6,0-0.9-0.1c-1.6-0.5-2.6-0.2-4.2,0.7c-1.1,0.6-2.5,1.5-3.2,2.6c-2.1,3.3,5,1.4,5.6,0.5
		c0.4-0.7,1-1.7,1.7-0.5c0.2,0.3,0.3,0.7,0.3,1.1c0.1,0.9-0.9,5.7,0.3,5.8c0.4,0,0.7-0.3,1-0.7c1.2-1.7,2-2.7,2.1-4.8
		c0.1-1,0-2-0.4-2.9C230.6,179.8,229.7,179,228.7,179z"/>
	<path class="st0" d="M275.4,190.5c5.8-0.7,10.2-8.7,4.3-11.8c-15.1,0.6-25.8,12.1-3.1,6C279.2,186.9,274.8,188.3,275.4,190.5z"/>
	<path class="st0" d="M254.1,215.5c1.6-2,2.3-5.3-1.5-4.9c-7.6-2.9-35.9,15.4-17.8,11.6C239.3,214.3,249.3,222.7,254.1,215.5z"/>
	<path class="st0" d="M242.5,195.9c-1.8,1.3-4.8,0.9-7,1.5c-2.1,0.6-3.8,1.9-4,4.2c-0.1,1,0.3,2.2,1.2,2.6c1.2,0.5,2.6-0.4,3.6-1.2
		c3.3-2.7,7.5-4.9,9.6-8.7c0.5-0.9,0.8-2,0.6-3c0-0.2-0.1-0.4-0.2-0.5c-0.1-0.1-0.3-0.2-0.4-0.3c-0.2-0.1-0.5-0.2-0.7-0.3
		c-0.3-0.1-0.6-0.1-0.9-0.2c-0.1,0-0.2,0-0.2,0c-0.1,0.1-0.1,0.2-0.1,0.2c0,0.6,0,1.2,0,1.8c0,0.5,0,0.9-0.1,1.4
		C243.8,194.5,243.3,195.4,242.5,195.9z"/>
	<path class="st0" d="M266.8,142.4c-0.1,0.2,0.6,1,1.1,1.2c18,3.3,1.8-29.6-3.6-8.5C263.7,137.8,268.4,139,266.8,142.4z"/>
	<path class="st0" d="M273.6,238.1c1.6-4.2-17.9-3.6-16,1.4c1.4,3.2-1.4,2.1-3,3.5c-1.1,4.6-7,0.3-8.8,2.8
		C254.2,253.6,270.1,250.6,273.6,238.1z"/>
	<path class="st0" d="M292.5,188.3c-3.2-0.1-10.8,7-10.2,10.7c4.1,2.1,7.6-4.6,12.3-3.7C298,194.1,294.4,189.9,292.5,188.3z"/>
	<path class="st0" d="M272.7,155.2c-3.6,0.4,0.7,9.9,2.8,8.5c9.1-3.1,29.8-31.9,9.5-21.4C275.5,141.4,276.9,151.4,272.7,155.2z"/>
	<path class="st0" d="M291.1,167.1c4.9-3-4.1-5.2-5.3-1.6c-3.9,3-10.8,2.7-14.7,7.8C273.5,178.4,286.6,169.7,291.1,167.1z"/>
</g>
</svg>
