<?xml version="1.0" encoding="utf-8"?>
<!-- Generator: Adobe Illustrator 27.9.0, SVG Export Plug-In . SVG Version: 6.00 Build 0)  -->
<svg version="1.1" id="Layer_2" xmlns="http://www.w3.org/2000/svg" xmlns:xlink="http://www.w3.org/1999/xlink" x="0px" y="0px"
	 viewBox="0 0 1600 900" style="enable-background:new 0 0 1600 900;" xml:space="preserve">
<style type="text/css">
	.st0{fill:none;}
</style>
<polygon class="st0" points="100.8,597.1 100.8,463 40,463 40.1,588.4 47.9,597 "/>
<polygon class="st0" points="160.9,463.2 160.9,597.1 100.8,597.1 100.8,463 "/>
<polygon class="st0" points="282,463.4 282,597.3 221.6,597.2 221.6,463.3 "/>
<polygon class="st0" points="342.6,597.4 342.6,463.5 282,463.4 282,597.3 "/>
<polygon class="st0" points="403.2,463.5 403.2,597.5 342.6,597.4 342.6,463.5 "/>
<polygon class="st0" points="463.7,597.6 463.7,463.6 403.2,463.5 403.2,597.5 "/>
<polygon class="st0" points="584.9,597.8 584.9,463.8 524.1,463.7 524.1,597.7 "/>
<polygon class="st0" points="645.2,463.9 645.2,597.9 584.9,597.8 584.9,463.8 "/>
<polygon class="st0" points="160.9,597.1 160.9,463.2 221.6,463.3 221.6,597.2 "/>
<polygon class="st0" points="524.1,597.7 463.7,597.6 463.7,463.6 524.1,463.7 "/>
<path class="st0" d="M645.2,597.9v-134c2.2-0.5,60.8,0.1,60.8,0.1v134L645.2,597.9z"/>
<polygon class="st0" points="644.4,781.7 645.1,647.8 704.9,647.9 704.8,781.9 "/>
<polygon class="st0" points="584,647.7 584,781.5 644.4,781.7 645.1,647.8 "/>
<polygon class="st0" points="523.6,781.3 523.6,647.6 584,647.7 584,781.5 "/>
<polygon class="st0" points="462.9,781.2 463.5,647.5 523.6,647.6 523.6,781.3 "/>
<polygon class="st0" points="403,647.5 402.5,781 462.9,781.2 463.5,647.5 "/>
<polygon class="st0" points="342.2,780.8 342.2,647.4 403,647.5 402.5,781 "/>
<polygon class="st0" points="281.3,780.6 281.8,647.3 342.2,647.4 342.2,780.8 "/>
<polygon class="st0" points="161,647.1 160.4,780.3 221,780.4 221,647.2 "/>
<polygon class="st0" points="221,647.2 281.8,647.3 281.3,780.6 221,780.4 "/>
<polygon class="st0" points="160.4,780.3 161,647.1 100,647 100,780.1 "/>
<polygon class="st0" points="100,647 100,780.1 39.1,779.9 40.2,655.1 48.4,646.9 "/>
<polyline class="st0" points="1456.9,649.7 1456.6,767 1390,766.8 1389.9,649.5 1456.9,649.7 1456.6,767 "/>
<polygon class="st0" points="1323.3,649.4 1323,766.6 1390,766.8 1389.9,649.5 "/>
<polygon class="st0" points="1256,766.5 1256.4,649.2 1323.3,649.4 1323,766.6 "/>
<polygon class="st0" points="1190,649 1189.5,766.3 1256,766.5 1256.4,649.2 "/>
<polygon class="st0" points="1056.1,648.6 1055.9,765.9 1122.3,766.1 1122.9,648.8 "/>
<polygon class="st0" points="988.9,765.7 989,648.5 1056.1,648.6 1055.9,765.9 "/>
<polygon class="st0" points="922.4,648.3 922,765.5 988.9,765.7 989,648.5 "/>
<rect x="830.1" y="673.3" transform="matrix(3.717498e-03 -1 1 3.717498e-03 178.5794 1592.8713)" class="st0" width="117.3" height="67"/>
<polygon class="st0" points="789,647.9 788.5,765.2 855,765.4 855.4,648.1 "/>
<polygon class="st0" points="1189.5,766.3 1190,649 1122.9,648.8 1122.3,766.1 "/>
<polygon class="st0" points="788.5,765.2 789,647.9 722,647.7 722.1,765 "/>
<polygon class="st0" points="1526.5,649.9 1456.9,649.7 1456.6,767 1526.5,767.2 "/>
<polyline class="st0" points="928.1,473.2 928.1,598.5 859.4,598.3 859.4,473 928.1,473.2 928.1,598.5 "/>
<polyline class="st0" points="1133.6,599.1 1133.8,473.6 1065.1,473.4 1064.9,598.9 1133.6,599.1 1133.8,473.6 "/>
<polygon class="st0" points="859.4,598.3 859.4,473 791,472.9 791,598.2 "/>
<polygon class="st0" points="1064.9,598.9 1065.1,473.4 996.5,473.3 996.4,598.7 "/>
<polygon class="st0" points="928.1,473.2 928.1,598.5 996.4,598.7 996.5,473.3 "/>
<polygon class="st0" points="1133.8,473.6 1133.6,599.1 1202.5,599.3 1202.6,473.7 "/>
<polyline class="st0" points="1271,473.8 1270.9,599.4 1202.5,599.3 1202.6,473.7 1271,473.8 1270.9,599.4 "/>
<polygon class="st0" points="1271,473.8 1270.9,599.4 1339.4,599.6 1339.6,474 "/>
<path class="st0" d="M1408.1,599.8c22.6,0.1,36.5,0.1,38.4,0.1c14,0,25.7-3.5,30.2-7.6l0-118l-68.4-0.1L1408.1,599.8z"/>
<polygon class="st0" points="791,598.2 791,472.9 722.3,472.8 722.3,598 "/>
<polyline class="st0" points="1408.1,599.8 1408.4,474.1 1408.1,599.8 1339.4,599.6 1339.6,474 1408.4,474.1 1408.1,599.8 "/>
<path class="st0" d="M823.2,330.8c-21.6,0-27.1,10.6-40.4,15.7v126.4l60.1,0.1l0.2-142.1C834.7,330.8,827.8,330.8,823.2,330.8z"/>
<path class="st0" d="M767.6,349.1c-17.6,0-27.6-11.2-27.6-11.2c-12.6-12.1-17.6-1.1-17.6,4.3l0,130.6l60.5,0.1V346.5
	C778.7,348,773.9,349.1,767.6,349.1z"/>
<path class="st0" d="M843.1,330.8L842.9,473l60.2,0.1l-0.2-142.3C880.4,330.8,858.9,330.8,843.1,330.8z"/>
<path class="st0" d="M902.9,330.8l0.2,142.3l59.9,0.1l0.2-142.4C944.5,330.8,923.3,330.8,902.9,330.8z"/>
<path class="st0" d="M1000.1,330.8c-9.7,0-22.6,0-37,0l-0.2,142.4l60.4,0.1l0,0l0.5-144.6C1016.8,330.1,1009,330.8,1000.1,330.8z"/>
<path class="st0" d="M1096.4,307.3c-27.7,3.5-44.7,16.4-72.6,21.4l-0.5,144.6l72.5,0.1L1096.4,307.3z"/>
<path class="st0" d="M1178.8,306.4c-39,0-34.9,0-68.1,0c-5.1,0-9.9,0.3-14.3,0.9l-0.6,166.2l100.9,0.2l0.2-166.1
	C1191.4,306.9,1185.4,306.4,1178.8,306.4z"/>
<path class="st0" d="M1339.7,331.7c-14.6,0-29.5,0-44,0c-15.6,0-27.7-2.2-38.3-5.3l-0.3,147.3l82.4,0.2L1339.7,331.7z"/>
<path class="st0" d="M1196.9,307.6l-0.2,166.1l60.5,0.1l0.3-147.3C1236.6,320.4,1221.5,310.9,1196.9,307.6z"/>
<path class="st0" d="M1476.8,341.9c0,0-3-10.1-42.8-10.1c-6.7,0-15.3,0-25.2,0l-0.4,142.4l68.4,0.1L1476.8,341.9z"/>
<path class="st0" d="M1339.7,331.7l-0.2,142.2l68.9,0.1l0.4-142.4C1389.5,331.7,1365.2,331.7,1339.7,331.7z"/>
<polygon class="st0" points="1391,282.4 1391.4,148.7 1324.7,148.5 1324.1,282.1 "/>
<polygon class="st0" points="1458,148.8 1457.8,282.8 1391,282.4 1391.4,148.7 "/>
<polygon class="st0" points="1457.8,282.8 1458,148.8 1543,149 1543,283.3 "/>
<path class="st0" d="M1199,148.2l-0.5,110c22.3,3,37.3,12.4,58.7,18.4l0.5-128.3L1199,148.2z"/>
<path class="st0" d="M955.2,147.6L954.9,281c25.1,0,43.8,0,43.9,0c6.7,0,12.6-0.4,18.1-1l0.2-132.3L955.2,147.6z"/>
<path class="st0" d="M893,147.5l-0.4,133.4c21,0,43.4,0,62.2,0.1l0.4-133.3L893,147.5z"/>
<path class="st0" d="M706.3,147v133.8c12,0,23.7,0.7,37.7-10.6c7.6-6.1,14.8-7.4,23.6-7.4c0.4,0,0.7,0,1,0V147.2L706.3,147z"/>
<path class="st0" d="M768.6,147.2v115.6c27.5,0.4,25.7,18.1,60.2,18.1c0.5,0,1,0,1.6,0l0.4-133.6L768.6,147.2z"/>
<path class="st0" d="M830.8,147.3l-0.4,133.6c11.9,0,35.9,0,62.2,0l0.4-133.4L830.8,147.3z"/>
<path class="st0" d="M1017,147.8l-0.2,132.3c27.7-3.1,42-13.1,63.6-18.8l0.5-113.4L1017,147.8z"/>
<path class="st0" d="M1080.9,147.9l-0.5,113.4c9.2-2.4,19.8-4.1,33.3-4.1c11,0,17.7,0,25.8,0l0.5-109.1L1080.9,147.9z"/>
<path class="st0" d="M1139.9,148.1l-0.5,109.1c9.6,0,21.2,0,44.3,0c5.3,0,10.2,0.4,14.8,1l0.5-110L1139.9,148.1z"/>
<path class="st0" d="M1257.8,148.3l-0.5,128.3c11.2,3.2,24.2,5.5,40.8,5.5c6.7,0,15.6,0,26.1,0.1l0.6-133.6L1257.8,148.3z"/>
</svg>
